<svg xmlns="http://www.w3.org/2000/svg" xmlns:xlink="http://www.w3.org/1999/xlink" style="width: 100%; height: 100%" viewBox="0 0 512 512" preserveAspectRatio="none" width="512" height="512"><defs><svg width="512" height="512" viewBox="0 0 512 512" fill="none" xmlns="http://www.w3.org/2000/svg" id="svg1329236579_17732">
<g clip-path="url(#svg1329236579_17732_clip0_460_67)" fill="none">
<mask id="svg1329236579_17732_path-1-outside-1_460_67" maskUnits="userSpaceOnUse" x="-4" y="125" width="194" height="328" fill="black">
<rect fill="#FFFFFF" x="-4" y="125" width="194" height="328"></rect>
<path d="M52.4001 211.528H112.269C113.792 211.528 115.025 210.307 115.025 208.799V153.125C115.025 151.617 113.792 150.395 112.269 150.395H52.4001C50.8773 150.395 49.6442 151.617 49.6442 153.125V208.799C49.6442 210.307 50.8773 211.528 52.4001 211.528ZM55.156 155.854H109.513V206.069H55.1455L55.156 155.854Z"></path>
<path d="M52.3997 306.916L70.2581 306.497L52.6176 366.746H52.6151C52.2356 368.043 52.8663 369.422 54.1045 369.988C55.3428 370.554 56.8117 370.14 57.5629 369.016L114.622 283.599C115.196 282.739 115.229 281.632 114.711 280.735C114.209 279.826 113.217 279.293 112.173 279.367L99.6369 280.04L113.116 257.305C113.622 256.462 113.627 255.416 113.137 254.565C112.645 253.714 111.732 253.189 110.743 253.191H78.8992C77.8917 253.191 76.9637 253.735 76.4791 254.611L49.9071 302.873C49.4328 303.729 49.4585 304.77 49.9686 305.603C50.4814 306.435 51.4017 306.936 52.3862 306.913L52.3997 306.916ZM80.5488 258.653H105.941L92.2978 281.657V281.66C91.7825 282.526 91.7902 283.602 92.3209 284.46C92.8336 285.334 93.8052 285.839 94.823 285.768L107.01 285.113L62.9462 351.062L76.5846 304.445C76.8256 303.619 76.6615 302.731 76.1436 302.045C75.6232 301.357 74.8054 300.953 73.9389 300.953H73.8722L57.0291 301.342L80.5488 258.653Z"></path>
<path d="M157.309 411.253H139.668V375.641C147.154 374.028 156.171 366.106 164.387 353.711C180.715 329.087 193.92 286.924 177.397 249.139V249.137C177.066 248.4 176.42 247.849 175.636 247.636L183.088 242.446H183.091C183.696 242.027 184.103 241.382 184.226 240.661C184.347 239.94 184.17 239.201 183.737 238.61L139.652 178.446V158.497C139.652 155.918 139.721 153.424 139.788 151.065C140.034 142.189 140.237 135.176 136.56 131.451C134.873 129.79 132.564 128.904 130.187 129.008H34.9786C32.6046 128.904 30.2923 129.79 28.6079 131.451C24.9316 135.176 25.1419 142.186 25.388 151.06C25.4547 153.419 25.5239 155.915 25.5239 158.497V411.249H7.86043C3.40926e-06 411.249 0 423.99 0 430.112C0 436.233 3.40926e-06 449 7.86043 449H157.312C165.172 449 165.172 436.259 165.172 430.112C165.172 423.965 165.172 411.249 157.312 411.249L157.309 411.253ZM172.326 251.295C187.973 287.083 175.341 327.215 159.767 350.706C152.935 361.012 145.39 368.149 139.653 369.998V226.166L160.693 254.751C161.58 255.955 163.277 256.234 164.505 255.376L172.127 250.059C172.091 250.483 172.16 250.907 172.327 251.298L172.326 251.295ZM177.618 239.567L163.548 249.363L139.66 216.899V187.745L177.618 239.567ZM157.309 443.537H7.85769C7.83461 443.537 5.50941 443.174 5.50941 430.108C5.50941 417.044 7.83465 416.704 7.85769 416.704H28.277V416.707C29.7997 416.707 31.0329 415.486 31.0329 413.977V158.495C31.0329 155.865 30.9636 153.316 30.8944 150.906C30.6996 143.924 30.5278 137.329 32.5556 135.255V135.253C33.2094 134.656 34.0938 134.369 34.9757 134.468H130.197C131.082 134.369 131.964 134.656 132.617 135.253C134.658 137.327 134.456 143.924 134.279 150.903C134.212 153.31 134.143 155.855 134.143 158.485L134.14 413.98C134.14 415.488 135.376 416.709 136.899 416.709H157.311C157.334 416.709 159.659 417.073 159.659 430.113C159.659 443.151 157.331 443.54 157.311 443.54L157.309 443.537Z"></path>
</mask>
<path d="M52.4001 211.528H112.269C113.792 211.528 115.025 210.307 115.025 208.799V153.125C115.025 151.617 113.792 150.395 112.269 150.395H52.4001C50.8773 150.395 49.6442 151.617 49.6442 153.125V208.799C49.6442 210.307 50.8773 211.528 52.4001 211.528ZM55.156 155.854H109.513V206.069H55.1455L55.156 155.854Z" fill="black"></path>
<path d="M52.3997 306.916L70.2581 306.497L52.6176 366.746H52.6151C52.2356 368.043 52.8663 369.422 54.1045 369.988C55.3428 370.554 56.8117 370.14 57.5629 369.016L114.622 283.599C115.196 282.739 115.229 281.632 114.711 280.735C114.209 279.826 113.217 279.293 112.173 279.367L99.6369 280.04L113.116 257.305C113.622 256.462 113.627 255.416 113.137 254.565C112.645 253.714 111.732 253.189 110.743 253.191H78.8992C77.8917 253.191 76.9637 253.735 76.4791 254.611L49.9071 302.873C49.4328 303.729 49.4585 304.77 49.9686 305.603C50.4814 306.435 51.4017 306.936 52.3862 306.913L52.3997 306.916ZM80.5488 258.653H105.941L92.2978 281.657V281.66C91.7825 282.526 91.7902 283.602 92.3209 284.46C92.8336 285.334 93.8052 285.839 94.823 285.768L107.01 285.113L62.9462 351.062L76.5846 304.445C76.8256 303.619 76.6615 302.731 76.1436 302.045C75.6232 301.357 74.8054 300.953 73.9389 300.953H73.8722L57.0291 301.342L80.5488 258.653Z" fill="black"></path>
<path d="M157.309 411.253H139.668V375.641C147.154 374.028 156.171 366.106 164.387 353.711C180.715 329.087 193.92 286.924 177.397 249.139V249.137C177.066 248.4 176.42 247.849 175.636 247.636L183.088 242.446H183.091C183.696 242.027 184.103 241.382 184.226 240.661C184.347 239.94 184.17 239.201 183.737 238.61L139.652 178.446V158.497C139.652 155.918 139.721 153.424 139.788 151.065C140.034 142.189 140.237 135.176 136.56 131.451C134.873 129.79 132.564 128.904 130.187 129.008H34.9786C32.6046 128.904 30.2923 129.79 28.6079 131.451C24.9316 135.176 25.1419 142.186 25.388 151.06C25.4547 153.419 25.5239 155.915 25.5239 158.497V411.249H7.86043C3.40926e-06 411.249 0 423.99 0 430.112C0 436.233 3.40926e-06 449 7.86043 449H157.312C165.172 449 165.172 436.259 165.172 430.112C165.172 423.965 165.172 411.249 157.312 411.249L157.309 411.253ZM172.326 251.295C187.973 287.083 175.341 327.215 159.767 350.706C152.935 361.012 145.39 368.149 139.653 369.998V226.166L160.693 254.751C161.58 255.955 163.277 256.234 164.505 255.376L172.127 250.059C172.091 250.483 172.16 250.907 172.327 251.298L172.326 251.295ZM177.618 239.567L163.548 249.363L139.66 216.899V187.745L177.618 239.567ZM157.309 443.537H7.85769C7.83461 443.537 5.50941 443.174 5.50941 430.108C5.50941 417.044 7.83465 416.704 7.85769 416.704H28.277V416.707C29.7997 416.707 31.0329 415.486 31.0329 413.977V158.495C31.0329 155.865 30.9636 153.316 30.8944 150.906C30.6996 143.924 30.5278 137.329 32.5556 135.255V135.253C33.2094 134.656 34.0938 134.369 34.9757 134.468H130.197C131.082 134.369 131.964 134.656 132.617 135.253C134.658 137.327 134.456 143.924 134.279 150.903C134.212 153.31 134.143 155.855 134.143 158.485L134.14 413.98C134.14 415.488 135.376 416.709 136.899 416.709H157.311C157.334 416.709 159.659 417.073 159.659 430.113C159.659 443.151 157.331 443.54 157.311 443.54L157.309 443.537Z" fill="black"></path>
<path d="M52.4001 211.528H112.269C113.792 211.528 115.025 210.307 115.025 208.799V153.125C115.025 151.617 113.792 150.395 112.269 150.395H52.4001C50.8773 150.395 49.6442 151.617 49.6442 153.125V208.799C49.6442 210.307 50.8773 211.528 52.4001 211.528ZM55.156 155.854H109.513V206.069H55.1455L55.156 155.854Z" stroke="#000000" stroke-width="8px" mask="url(#svg1329236579_17732_path-1-outside-1_460_67)" fill="none"></path>
<path d="M52.3997 306.916L70.2581 306.497L52.6176 366.746H52.6151C52.2356 368.043 52.8663 369.422 54.1045 369.988C55.3428 370.554 56.8117 370.14 57.5629 369.016L114.622 283.599C115.196 282.739 115.229 281.632 114.711 280.735C114.209 279.826 113.217 279.293 112.173 279.367L99.6369 280.04L113.116 257.305C113.622 256.462 113.627 255.416 113.137 254.565C112.645 253.714 111.732 253.189 110.743 253.191H78.8992C77.8917 253.191 76.9637 253.735 76.4791 254.611L49.9071 302.873C49.4328 303.729 49.4585 304.77 49.9686 305.603C50.4814 306.435 51.4017 306.936 52.3862 306.913L52.3997 306.916ZM80.5488 258.653H105.941L92.2978 281.657V281.66C91.7825 282.526 91.7902 283.602 92.3209 284.46C92.8336 285.334 93.8052 285.839 94.823 285.768L107.01 285.113L62.9462 351.062L76.5846 304.445C76.8256 303.619 76.6615 302.731 76.1436 302.045C75.6232 301.357 74.8054 300.953 73.9389 300.953H73.8722L57.0291 301.342L80.5488 258.653Z" stroke="#000000" stroke-width="8px" mask="url(#svg1329236579_17732_path-1-outside-1_460_67)" fill="none"></path>
<path d="M157.309 411.253H139.668V375.641C147.154 374.028 156.171 366.106 164.387 353.711C180.715 329.087 193.92 286.924 177.397 249.139V249.137C177.066 248.4 176.42 247.849 175.636 247.636L183.088 242.446H183.091C183.696 242.027 184.103 241.382 184.226 240.661C184.347 239.94 184.17 239.201 183.737 238.61L139.652 178.446V158.497C139.652 155.918 139.721 153.424 139.788 151.065C140.034 142.189 140.237 135.176 136.56 131.451C134.873 129.79 132.564 128.904 130.187 129.008H34.9786C32.6046 128.904 30.2923 129.79 28.6079 131.451C24.9316 135.176 25.1419 142.186 25.388 151.06C25.4547 153.419 25.5239 155.915 25.5239 158.497V411.249H7.86043C3.40926e-06 411.249 0 423.99 0 430.112C0 436.233 3.40926e-06 449 7.86043 449H157.312C165.172 449 165.172 436.259 165.172 430.112C165.172 423.965 165.172 411.249 157.312 411.249L157.309 411.253ZM172.326 251.295C187.973 287.083 175.341 327.215 159.767 350.706C152.935 361.012 145.39 368.149 139.653 369.998V226.166L160.693 254.751C161.58 255.955 163.277 256.234 164.505 255.376L172.127 250.059C172.091 250.483 172.16 250.907 172.327 251.298L172.326 251.295ZM177.618 239.567L163.548 249.363L139.66 216.899V187.745L177.618 239.567ZM157.309 443.537H7.85769C7.83461 443.537 5.50941 443.174 5.50941 430.108C5.50941 417.044 7.83465 416.704 7.85769 416.704H28.277V416.707C29.7997 416.707 31.0329 415.486 31.0329 413.977V158.495C31.0329 155.865 30.9636 153.316 30.8944 150.906C30.6996 143.924 30.5278 137.329 32.5556 135.255V135.253C33.2094 134.656 34.0938 134.369 34.9757 134.468H130.197C131.082 134.369 131.964 134.656 132.617 135.253C134.658 137.327 134.456 143.924 134.279 150.903C134.212 153.31 134.143 155.855 134.143 158.485L134.14 413.98C134.14 415.488 135.376 416.709 136.899 416.709H157.311C157.334 416.709 159.659 417.073 159.659 430.113C159.659 443.151 157.331 443.54 157.311 443.54L157.309 443.537Z" stroke="#000000" stroke-width="8px" mask="url(#svg1329236579_17732_path-1-outside-1_460_67)" fill="none"></path>
<path d="M270.59 118.934C263.151 112.321 253.543 108.668 243.59 108.668C233.636 108.668 224.028 112.321 216.589 118.934C215.96 119.478 215.446 120.142 215.076 120.886C214.706 121.63 214.488 122.441 214.433 123.27C214.379 124.1 214.49 124.932 214.76 125.718C215.03 126.504 215.454 127.229 216.006 127.85C216.559 128.471 217.229 128.977 217.978 129.337C218.728 129.696 219.541 129.904 220.371 129.947C221.202 129.99 222.032 129.867 222.814 129.587C223.597 129.306 224.316 128.872 224.929 128.312C230.071 123.742 236.711 121.218 243.59 121.218C250.469 121.218 257.108 123.742 262.25 128.312C263.494 129.418 265.127 129.984 266.789 129.886C268.451 129.788 270.006 129.034 271.112 127.79C272.218 126.546 272.784 124.913 272.686 123.251C272.589 121.589 271.835 120.034 270.59 118.928V118.934Z" fill="black"></path>
<path d="M243.587 82.8941C226.738 82.8709 210.515 89.2747 198.225 100.8C197.603 101.357 197.098 102.033 196.741 102.788C196.383 103.543 196.18 104.362 196.143 105.197C196.106 106.031 196.236 106.865 196.525 107.649C196.815 108.432 197.258 109.15 197.829 109.76C198.399 110.371 199.086 110.861 199.848 111.202C200.611 111.543 201.434 111.729 202.269 111.748C203.104 111.767 203.935 111.619 204.712 111.313C205.489 111.007 206.198 110.548 206.795 109.965C216.775 100.635 229.926 95.445 243.587 95.445C257.248 95.445 270.4 100.635 280.379 109.965C280.977 110.548 281.685 111.007 282.462 111.313C283.24 111.619 284.07 111.767 284.905 111.748C285.741 111.729 286.564 111.543 287.326 111.202C288.089 110.861 288.775 110.371 289.346 109.76C289.916 109.15 290.359 108.432 290.649 107.649C290.938 106.865 291.068 106.031 291.031 105.197C290.995 104.362 290.791 103.543 290.434 102.788C290.076 102.033 289.572 101.357 288.949 100.8C276.659 89.2747 260.436 82.8709 243.587 82.8941Z" fill="black"></path>
<path d="M305.061 80.5523C288.143 65.4566 266.261 57.1138 243.587 57.1138C220.912 57.1138 199.03 65.4566 182.112 80.5523C181.476 81.0955 180.955 81.7602 180.58 82.5075C180.204 83.2549 179.982 84.0696 179.926 84.904C179.87 85.7384 179.982 86.5756 180.254 87.3663C180.526 88.157 180.953 88.8854 181.511 89.5086C182.069 90.1317 182.745 90.6372 183.501 90.9952C184.257 91.3532 185.077 91.5565 185.912 91.5932C186.747 91.6299 187.582 91.4993 188.366 91.209C189.15 90.9186 189.869 90.4745 190.479 89.9026C205.096 76.8659 223.999 69.6614 243.585 69.6614C263.172 69.6614 282.074 76.8659 296.691 89.9026C297.932 91.0122 299.563 91.5834 301.225 91.4907C302.886 91.3979 304.443 90.6488 305.553 89.4081C306.663 88.1674 307.234 86.5367 307.141 84.8748C307.048 83.2129 306.299 81.6559 305.058 80.5463L305.061 80.5523Z" fill="black"></path>
<path d="M243.58 155.125C248.861 155.125 253.143 150.844 253.143 145.562C253.143 140.281 248.861 136 243.58 136C238.299 136 234.018 140.281 234.018 145.562C234.018 150.844 238.299 155.125 243.58 155.125Z" fill="black"></path>
<path d="M511.872 303.87C511.825 303.538 511.802 303.212 511.68 302.897C511.534 302.536 511.302 302.244 511.075 301.941C510.97 301.801 510.923 301.626 510.795 301.498L510.731 301.428L510.72 301.417L452.853 240.74H507.64C508.205 240.74 508.758 240.623 509.288 240.408C509.561 240.297 509.777 240.099 510.015 239.936C510.225 239.796 510.463 239.709 510.65 239.528C510.661 239.516 510.667 239.499 510.679 239.487C510.987 239.184 511.203 238.811 511.412 238.432C511.482 238.31 511.593 238.211 511.645 238.083C511.721 237.908 511.721 237.704 511.767 237.517C511.872 237.15 511.983 236.789 511.988 236.416C511.988 236.398 512 236.381 512 236.363C512 236.13 511.901 235.938 511.872 235.717C511.82 235.39 511.796 235.064 511.68 234.749C511.54 234.4 511.313 234.114 511.086 233.817C510.976 233.665 510.929 233.485 510.789 233.345L445.804 165.215C445.373 164.76 444.867 164.434 444.32 164.206L393.368 96.694C392.337 95.3303 390.667 94.7884 389.101 95.0739C387.541 94.8059 385.888 95.342 384.87 96.694L333.027 165.401L268.205 233.351C268.053 233.508 267.989 233.712 267.867 233.887C267.669 234.166 267.454 234.429 267.326 234.749C267.192 235.087 267.163 235.437 267.116 235.792C267.087 235.991 267 236.165 267 236.375C267 236.393 267.006 236.404 267.006 236.422C267.012 236.836 267.128 237.238 267.25 237.64C267.297 237.785 267.291 237.949 267.349 238.088C267.419 238.252 267.559 238.374 267.646 238.531C267.844 238.875 268.036 239.219 268.315 239.493C268.327 239.505 268.333 239.522 268.345 239.534C268.542 239.72 268.787 239.813 269.002 239.953C269.241 240.111 269.445 240.303 269.712 240.408C270.242 240.623 270.795 240.74 271.36 240.74H326.153L268.205 301.492C268.059 301.638 268.001 301.836 267.885 301.999C267.681 302.285 267.46 302.559 267.326 302.885C267.192 303.223 267.163 303.579 267.116 303.934C267.087 304.132 267 304.301 267 304.511C267 304.529 267.006 304.54 267.006 304.558C267.012 304.96 267.128 305.356 267.244 305.741C267.291 305.898 267.285 306.085 267.355 306.23C267.407 306.353 267.524 306.458 267.594 306.586C267.803 306.959 268.019 307.337 268.327 307.635C268.339 307.646 268.339 307.664 268.35 307.675C268.531 307.844 268.746 307.926 268.95 308.054C269.2 308.229 269.433 308.433 269.724 308.555C270.248 308.765 270.807 308.888 271.365 308.888H329.983L278.001 443.038C277.925 443.237 277.942 443.44 277.896 443.644C277.826 443.947 277.75 444.233 277.745 444.536C277.739 444.822 277.797 445.09 277.849 445.369C277.896 445.643 277.931 445.911 278.03 446.174C278.14 446.465 278.315 446.71 278.484 446.972C278.594 447.141 278.647 447.339 278.786 447.502C278.821 447.549 278.88 447.561 278.92 447.601C279.182 447.881 279.514 448.085 279.852 448.289C280.038 448.406 280.201 448.557 280.404 448.645C280.439 448.656 280.463 448.691 280.498 448.703C281.016 448.901 281.551 449 282.075 449H282.087C282.564 448.994 283.024 448.901 283.466 448.749C283.606 448.703 283.728 448.627 283.862 448.563C284.176 448.423 284.467 448.254 284.741 448.038C284.805 447.986 284.88 447.969 284.944 447.916L389.119 356.592L493.287 447.916C493.351 447.969 493.421 447.986 493.485 448.038C493.759 448.254 494.061 448.417 494.37 448.569C494.498 448.627 494.626 448.703 494.76 448.749C495.208 448.901 495.674 449 496.157 449C496.686 449 497.216 448.901 497.734 448.703C497.769 448.691 497.792 448.656 497.827 448.645C498.025 448.557 498.188 448.406 498.374 448.289C498.718 448.085 499.044 447.887 499.306 447.601C499.346 447.561 499.405 447.549 499.439 447.502C499.579 447.345 499.632 447.141 499.748 446.966C499.911 446.71 500.086 446.465 500.196 446.179C500.301 445.911 500.33 445.637 500.377 445.358C500.429 445.084 500.487 444.822 500.487 444.542C500.481 444.227 500.4 443.936 500.33 443.639C500.283 443.44 500.307 443.237 500.225 443.033L448.249 308.882H507.623C508.188 308.882 508.735 308.759 509.264 308.55C509.567 308.427 509.806 308.212 510.068 308.031C510.254 307.903 510.463 307.827 510.638 307.664C510.65 307.652 510.65 307.641 510.661 307.629C510.999 307.303 511.243 306.906 511.459 306.493C511.505 306.393 511.593 306.324 511.633 306.23C511.715 306.044 511.715 305.828 511.761 305.63C511.86 305.269 511.971 304.925 511.977 304.552C511.977 304.534 511.988 304.517 511.988 304.499C512.006 304.284 511.907 304.092 511.872 303.87ZM437.522 228.351L397.174 202.301L437.522 176.252V228.351ZM446.252 178.338L497.437 231.999H446.252V178.338ZM433.831 236.369L389.119 265.239L344.412 236.369L389.119 207.499L433.831 236.369ZM437.522 244.388V296.492L397.174 270.437L437.522 244.388ZM381.075 270.437L340.728 296.492V244.388L381.075 270.437ZM340.728 228.351V176.252L381.075 202.301L340.728 228.351ZM331.997 231.999H281.569L331.997 179.137V231.999ZM331.997 300.14H281.569L331.997 247.279V300.14ZM389.125 275.641L434.658 305.041L389.125 344.96L343.591 305.041L389.125 275.641ZM446.252 246.474L497.437 300.14H446.252V246.474ZM389.125 105.564L435.566 167.114L389.125 197.103L342.683 167.114L389.125 105.564ZM292.569 429.594L338.172 311.918L382.489 350.77L292.569 429.594ZM440.071 311.912L485.662 429.588L395.748 350.765L440.071 311.912Z" fill="black"></path>
</g>
<defs>
<clipPath id="svg1329236579_17732_clip0_460_67">
<rect width="512" height="512" fill="white"></rect>
</clipPath>
</defs>
</svg></defs><use href="#svg1329236579_17732"></use></svg>