<svg xmlns:xlink="http://www.w3.org/1999/xlink" width="512" height="512" viewBox="0 0 512 512" fill="none" xmlns="http://www.w3.org/2000/svg" id="svg-77600639_3819">
<path d="M412 208H391.68C389.992 203.195 388.059 198.52 385.902 193.973L400.246 179.629C404.934 174.941 404.934 167.348 400.246 162.66L349.34 111.754C344.652 107.066 337.059 107.066 332.371 111.754L318.021 126.098C313.486 123.941 308.805 122.008 304 120.32V100C304 93.3672 298.627 88 292 88H220C213.373 88 208 93.3672 208 100V120.32C203.195 122.008 198.514 123.941 193.979 126.098L179.629 111.754C174.941 107.066 167.348 107.066 162.66 111.754L111.754 162.66C107.066 167.348 107.066 174.941 111.754 179.629L126.098 193.973C123.941 198.52 122.008 203.195 120.32 208H100C93.373 208 88 213.367 88 220V292C88 298.633 93.373 304 100 304H120.32C122.008 308.805 123.941 313.48 126.098 318.027L111.754 332.371C107.066 337.059 107.066 344.652 111.754 349.34L162.66 400.246C167.348 404.934 174.941 404.934 179.629 400.246L193.979 385.902C198.514 388.059 203.195 389.992 208 391.68V412C208 418.633 213.373 424 220 424H292C298.627 424 304 418.633 304 412V382.902C304 376.27 298.627 370.902 292 370.902C285.373 370.902 280 376.27 280 382.902V400H232V382.902C232 377.535 228.438 372.824 223.275 371.359C214.176 368.781 205.521 365.207 197.547 360.742C192.848 358.141 187 358.937 183.203 362.734L171.145 374.793L137.207 340.855L149.26 328.797C153.057 325 153.871 319.141 151.252 314.453C146.787 306.473 143.219 297.824 140.641 288.73C139.176 283.562 134.465 280 129.098 280H112V232H129.098C134.465 232 139.176 228.438 140.641 223.27C143.219 214.176 146.787 205.527 151.252 197.547C153.871 192.859 153.057 187 149.26 183.203L137.207 171.145L171.145 137.207L183.203 149.266C187 153.051 192.859 153.871 197.547 151.258C205.521 146.793 214.176 143.219 223.275 140.641C228.437 139.176 232 134.465 232 129.098V112H280V129.098C280 134.465 283.562 139.176 288.725 140.641C297.824 143.219 306.479 146.793 314.453 151.258C319.158 153.871 325 153.051 328.797 149.266L340.855 137.207L374.793 171.145L362.74 183.203C358.943 187 358.129 192.859 360.748 197.547C365.213 205.527 368.781 214.176 371.359 223.27C372.824 228.437 377.535 232 382.902 232H400V280H382.902C376.275 280 370.902 285.367 370.902 292C370.902 298.633 376.275 304 382.902 304H412C418.627 304 424 298.633 424 292V220C424 213.367 418.627 208 412 208Z" fill="black"></path>
<path d="M372.484 331.516C368.678 327.709 363.027 327.157 358.501 329.532L345.437 316.468C357.147 299.203 364 278.389 364 256C364 196.445 315.549 148 256 148C196.451 148 148 196.445 148 256C148 315.555 196.451 364 256 364C278.388 364 299.202 357.147 316.467 345.436L329.532 358.501C327.157 363.027 327.709 368.678 331.516 372.484L362.547 403.516C368.02 408.988 375.297 412 383.031 412C390.766 412 398.043 408.988 403.521 403.516C408.988 398.043 412 390.766 412 383.031C412 375.285 408.988 368.008 403.516 362.547L372.484 331.516ZM172 256C172 209.688 209.682 172 256 172C302.318 172 340 209.688 340 256C340 302.312 302.318 340 256 340C209.682 340 172 302.312 172 256ZM386.547 386.547C384.016 389.078 382.047 389.078 379.516 386.547L356.969 364L364 356.969L386.547 379.516C387.812 380.781 388 382.258 388 383.031C388 383.793 387.812 385.281 386.547 386.547Z" fill="black"></path>
<path d="M256 196C236.148 196 220 212.148 220 232C220 238.633 225.373 244 232 244C238.627 244 244 238.633 244 232C244 225.379 249.385 220 256 220C262.615 220 268 225.379 268 232C268 237.18 264.701 241.762 259.814 243.391C250.357 246.52 244 255.695 244 266.219V280C244 286.633 249.373 292 256 292C262.627 292 268 286.633 268 280L267.379 266.172C282.104 261.262 292 247.527 292 232C292 212.148 275.852 196 256 196Z" fill="black"></path>
<path d="M256.363 304H256.246C249.619 304 244.305 309.367 244.305 316C244.305 322.633 249.736 328 256.363 328C262.996 328 268.363 322.633 268.363 316C268.363 309.367 262.996 304 256.363 304Z" fill="black"></path>
</svg>