<svg xmlns:xlink="http://www.w3.org/1999/xlink" width="512" height="512" viewBox="0 0 512 512" fill="none" xmlns="http://www.w3.org/2000/svg" id="svg2058283341_2573">
<path d="M256.258 326.882C264.83 326.882 271.779 319.933 271.779 311.36C271.779 302.788 264.83 295.839 256.258 295.839C247.686 295.839 240.736 302.788 240.736 311.36C240.736 319.933 247.686 326.882 256.258 326.882Z" stroke="#000000" stroke-width="20px" stroke-miterlimit="10" stroke-linecap="round" stroke-linejoin="round" fill="none"></path>
<path d="M255.227 178.912C246.949 178.912 240.223 185.638 240.223 194.434V263.246C240.223 271.524 246.949 278.768 255.227 278.768C263.505 278.768 270.231 272.042 270.231 263.246V194.434C270.231 185.638 263.505 178.912 255.227 178.912Z" stroke="#000000" stroke-width="20px" stroke-miterlimit="10" stroke-linecap="round" stroke-linejoin="round" fill="none"></path>
<path d="M431.135 233.235L399.575 224.957C397.505 212.54 392.331 200.123 387.157 188.223L405.266 154.075C407.335 149.419 406.818 143.728 403.196 140.106L379.397 116.306C375.775 112.685 369.566 111.65 364.392 114.237L335.936 130.793C325.588 124.067 315.241 118.893 303.341 115.272L290.924 78.0198C289.371 72.8459 284.198 70.7764 279.024 70.7764H245.394C240.22 70.7764 235.046 72.8459 233.494 78.0198L223.663 110.615C212.281 112.685 201.933 116.824 191.586 120.963L153.816 100.785C149.16 98.7152 143.469 99.2326 139.847 102.854L116.047 126.654C112.426 130.276 111.391 136.484 113.978 141.658L132.086 173.736C125.878 182.532 121.739 191.845 118.117 202.192L77.2434 215.644C72.0695 217.196 70 222.37 70 227.544V261.174C70 266.348 72.0695 271.522 77.2434 273.074L112.426 282.904C114.495 293.252 117.599 303.082 122.256 312.913L102.078 352.234C100.008 356.891 100.526 362.582 104.147 366.203L127.947 390.003C131.569 393.625 137.777 394.66 142.951 392.073L174.512 373.964C183.307 380.173 193.655 385.347 204.52 389.486L216.937 431.394C218.49 436.568 223.663 441.224 228.837 441.224H262.467C267.641 441.224 272.815 436.051 274.367 430.877L283.163 397.247C295.063 395.177 306.963 391.038 317.31 385.864L353.01 403.973C357.666 406.042 363.358 405.525 366.979 401.903L390.779 378.103C394.401 374.482 395.435 368.273 392.849 363.099L377.327 334.643C384.57 324.295 389.744 312.913 394.401 300.496L432.17 288.596C437.344 287.043 442 281.87 442 276.696V243.066C442 238.927 436.309 234.788 431.135 233.235ZM254.707 367.238C191.586 367.238 139.847 316.017 139.847 252.379C139.847 188.74 191.068 137.519 254.707 137.519C318.345 137.519 369.566 188.74 369.566 252.379C369.566 316.017 317.828 367.238 254.707 367.238Z" stroke="#000000" stroke-width="20px" stroke-miterlimit="10" stroke-linecap="round" stroke-linejoin="round" fill="none"></path>
</svg>