<svg xmlns="http://www.w3.org/2000/svg" xmlns:xlink="http://www.w3.org/1999/xlink" style="width: 100%; height: 100%" viewBox="0 0 511 512" preserveAspectRatio="none" width="511" height="512"><defs><svg width="511" height="512" viewBox="0 0 511 512" fill="none" xmlns="http://www.w3.org/2000/svg" id="svg-1663688273_4167">
<path d="M360.265 352.707H339.217V344.071H328.357V352.707H305.625V347.915C305.625 344.879 303.196 342.45 300.16 342.45H194.385C191.348 342.45 188.92 344.879 188.92 347.915V442.018C188.92 445.054 191.348 447.482 194.385 447.482H300.16C303.196 447.482 305.625 445.054 305.625 442.018V437.226H328.357V445.862H339.217V437.226H360.265C372.612 437.226 382.594 427.174 382.594 414.897V375.096C382.594 362.75 372.541 352.768 360.265 352.768V352.707ZM343.939 394.936C343.939 415.107 338.071 423.607 335.642 426.305H325.59C326.667 423.942 327.275 421.379 327.275 418.681V371.256C327.275 368.558 326.667 365.995 325.59 363.632H335.438C337.936 366.599 343.87 375.708 343.87 395.001L343.939 394.936ZM294.695 436.558H199.779V353.381H294.695V436.558ZM305.555 426.306V363.637H308.726C312.91 363.637 316.35 367.077 316.35 371.261V418.686C316.35 422.869 312.91 426.31 308.726 426.31H305.555V426.306ZM371.664 414.838C371.664 421.18 366.537 426.306 360.196 426.306H348.662C351.898 419.963 354.8 410.05 354.8 394.937C354.8 379.828 351.699 370.045 348.458 363.568H360.196C366.538 363.568 371.664 368.694 371.664 375.036L371.664 414.838Z" fill="black"></path>
<path d="M194.385 169.489H300.16C303.196 169.489 305.625 167.061 305.625 164.024V159.232H328.357V167.868H339.217V159.232H360.265C372.612 159.232 382.594 149.18 382.594 136.904V97.1028C382.594 84.7563 372.541 74.7741 360.265 74.7741H339.217V66.138H328.357V74.7741H305.625V69.9825C305.625 66.946 303.196 64.5176 300.16 64.5176H194.385C191.348 64.5176 188.92 66.946 188.92 69.9825V164.085C188.92 167.121 191.348 169.55 194.385 169.55V169.489ZM325.657 85.639H335.505C338.003 88.6061 343.937 97.7153 343.937 117.008C343.937 136.301 338.068 145.679 335.64 148.377H325.587C326.665 146.014 327.273 143.451 327.273 140.753V93.3275C327.273 90.6297 326.665 88.0667 325.587 85.7035L325.657 85.639ZM371.731 97.1069V136.908C371.731 143.25 366.605 148.376 360.263 148.376H348.73C351.966 142.033 354.868 132.12 354.868 117.007C354.868 101.898 351.766 92.1147 348.525 85.6379H360.264C366.606 85.6379 371.732 90.764 371.732 97.1058L371.731 97.1069ZM308.859 85.639C313.042 85.639 316.483 89.0796 316.483 93.263V140.688C316.483 144.872 313.042 148.312 308.859 148.312H305.687V85.6434H308.859V85.639ZM199.847 75.3868H294.763V158.564H199.847V75.3868Z" fill="black"></path>
<path d="M417.671 214.351H396.624V205.715H385.763V214.351H363.031V209.56C363.031 206.523 360.603 204.095 357.566 204.095H251.791C248.755 204.095 246.326 206.523 246.326 209.56V303.662C246.326 306.699 248.755 309.127 251.791 309.127H357.566C360.603 309.127 363.031 306.699 363.031 303.662V298.87H385.763V307.507H396.624V298.87H417.671C430.018 298.87 440 288.818 440 276.542V236.741C440 224.394 429.948 214.412 417.671 214.412V214.351ZM401.346 256.581C401.346 276.751 395.477 285.252 393.048 287.95H382.996C384.073 285.587 384.682 283.024 384.682 280.326V232.9C384.682 230.203 384.073 227.64 382.996 225.277H392.844C395.342 228.244 401.276 237.353 401.276 256.645L401.346 256.581ZM352.101 298.202H257.186V215.025H352.101V298.202ZM362.961 287.95V225.281H366.132C370.316 225.281 373.756 228.722 373.756 232.905V280.331C373.756 284.514 370.316 287.955 366.132 287.955H362.961V287.95ZM429.07 276.482C429.07 282.825 423.944 287.95 417.602 287.95H406.068C409.305 281.608 412.207 271.695 412.207 256.581C412.207 241.472 409.105 231.689 405.864 225.212H417.602C423.945 225.212 429.07 230.338 429.07 236.68L429.07 276.482Z" fill="black"></path>
<path d="M197.075 252.729L166.788 222.442L159.099 230.132L180.147 251.179L71 251.175V262.035H180.081L159.034 283.083L166.723 290.772L197.01 260.485C199.169 258.326 199.169 254.885 197.01 252.796L197.075 252.729Z" fill="black"></path>
<path d="M127.803 133.056L135.492 140.745L155.393 120.844C157.552 118.685 157.552 115.244 155.393 113.155L135.492 93.2539L127.803 100.943L138.463 111.604H71.207V122.464H138.463L127.803 133.124V133.056Z" fill="black"></path>
<path d="M135.555 371.19L127.865 378.88L138.526 389.54H71.2695V400.4H138.526L127.865 411.061L135.555 418.75L155.456 398.849C157.615 396.69 157.615 393.249 155.456 391.16L135.555 371.259V371.19Z" fill="black"></path>
</svg></defs><use href="#svg-1663688273_4167"></use></svg>