<svg xmlns:xlink="http://www.w3.org/1999/xlink" width="25" height="25" viewBox="0 0 25 25" fill="none" xmlns="http://www.w3.org/2000/svg" id="svg1998871150_11028">
<g filter="url(#svg1998871150_11028_filter0_dddd_194_824)" fill="none">
<g clip-path="url(#svg1998871150_11028_clip0_194_824)" fill="none">
<path d="M0 0H25V8.33496H0V0Z" fill="#FF9933"></path>
<path d="M0 8.33496H25V16.665H0V8.33496Z" fill="#FFFFFF"></path>
<path d="M0 16.665H25V25H0V16.665Z" fill="#128807"></path>
<path d="M12.5 15.8334C14.3409 15.8334 15.8333 14.341 15.8333 12.5001C15.8333 10.6591 14.3409 9.16675 12.5 9.16675C10.659 9.16675 9.16663 10.6591 9.16663 12.5001C9.16663 14.341 10.659 15.8334 12.5 15.8334Z" fill="#000088"></path>
<path d="M12.4999 15.4168C14.1107 15.4168 15.4166 14.111 15.4166 12.5002C15.4166 10.8893 14.1107 9.5835 12.4999 9.5835C10.8891 9.5835 9.58325 10.8893 9.58325 12.5002C9.58325 14.111 10.8891 15.4168 12.4999 15.4168Z" fill="#FFFFFF"></path>
<path d="M12.5 13.0834C12.8221 13.0834 13.0833 12.8222 13.0833 12.5001C13.0833 12.1779 12.8221 11.9167 12.5 11.9167C12.1778 11.9167 11.9166 12.1779 11.9166 12.5001C11.9166 12.8222 12.1778 13.0834 12.5 13.0834Z" fill="#000088"></path>
<path d="M15.372 13.0306C15.4541 13.0414 15.5295 12.9836 15.5403 12.9015C15.5511 12.8194 15.4933 12.744 15.4112 12.7332C15.329 12.7224 15.2537 12.7802 15.2429 12.8623C15.2321 12.9445 15.2899 13.0198 15.372 13.0306Z" fill="#000088"></path>
<path d="M12.4999 15.4168L12.5999 13.6668L12.4999 12.8335L12.3999 13.6668L12.4999 15.4168Z" fill="#000088"></path>
<path d="M15.1368 13.756C15.2134 13.7877 15.3011 13.7513 15.3328 13.6748C15.3645 13.5982 15.3282 13.5105 15.2516 13.4788C15.1751 13.4471 15.0873 13.4834 15.0556 13.56C15.0239 13.6365 15.0603 13.7243 15.1368 13.756Z" fill="#000088"></path>
<path d="M11.745 15.3173L12.2945 13.6528L12.4136 12.822L12.1013 13.6011L11.745 15.3173Z" fill="#000088"></path>
<path d="M14.722 14.3955C14.7877 14.4459 14.8819 14.4335 14.9323 14.3678C14.9828 14.3021 14.9704 14.2079 14.9046 14.1575C14.8389 14.107 14.7448 14.1194 14.6943 14.1852C14.6439 14.2509 14.6563 14.3451 14.722 14.3955Z" fill="#000088"></path>
<path d="M11.0416 15.026L12.0032 13.5605L12.3333 12.7888L11.83 13.4605L11.0416 15.026Z" fill="#000088"></path>
<path d="M14.1557 14.9061C14.2061 14.9718 14.3003 14.9842 14.366 14.9338C14.4317 14.8834 14.4441 14.7892 14.3937 14.7235C14.3433 14.6578 14.2491 14.6454 14.1834 14.6958C14.1176 14.7462 14.1052 14.8404 14.1557 14.9061Z" fill="#000088"></path>
<path d="M10.4376 14.5624L11.7458 13.3957L12.2643 12.7357L11.6043 13.2543L10.4376 14.5624Z" fill="#000088"></path>
<path d="M13.4766 15.2527C13.5084 15.3292 13.5961 15.3655 13.6726 15.3338C13.7492 15.3021 13.7855 15.2144 13.7538 15.1378C13.7221 15.0613 13.6344 15.025 13.5578 15.0567C13.4813 15.0884 13.4449 15.1761 13.4766 15.2527Z" fill="#000088"></path>
<path d="M9.97415 13.9583L11.5397 13.1699L12.2114 12.6667L11.4397 12.9967L9.97415 13.9583Z" fill="#000088"></path>
<path d="M12.7309 15.4115C12.7417 15.4936 12.8171 15.5515 12.8992 15.5406C12.9814 15.5298 13.0392 15.4545 13.0284 15.3723C13.0176 15.2902 12.9422 15.2324 12.8601 15.2432C12.7779 15.254 12.7201 15.3294 12.7309 15.4115Z" fill="#000088"></path>
<path d="M9.6828 13.255L11.399 12.8986L12.1781 12.5863L11.3473 12.7054L9.6828 13.255Z" fill="#000088"></path>
<path d="M11.9694 15.3723C11.9586 15.4544 12.0164 15.5297 12.0985 15.5405C12.1806 15.5514 12.256 15.4935 12.2668 15.4114C12.2776 15.3293 12.2198 15.2539 12.1377 15.2431C12.0555 15.2323 11.9802 15.2901 11.9694 15.3723Z" fill="#000088"></path>
<path d="M9.58317 12.5001L11.3332 12.6001L12.1665 12.5001L11.3332 12.4001L9.58317 12.5001Z" fill="#000088"></path>
<path d="M11.2442 15.1371C11.2125 15.2136 11.2488 15.3013 11.3253 15.333C11.4019 15.3647 11.4896 15.3284 11.5213 15.2519C11.553 15.1753 11.5167 15.0876 11.4402 15.0559C11.3636 15.0242 11.2759 15.0605 11.2442 15.1371Z" fill="#000088"></path>
<path d="M9.68267 11.7454L11.3472 12.2949L12.178 12.414L11.3989 12.1017L9.68267 11.7454Z" fill="#000088"></path>
<path d="M10.6045 14.722C10.5541 14.7877 10.5665 14.8819 10.6322 14.9323C10.6979 14.9828 10.7921 14.9704 10.8425 14.9046C10.893 14.8389 10.8806 14.7448 10.8148 14.6943C10.7491 14.6439 10.6549 14.6563 10.6045 14.722Z" fill="#000088"></path>
<path d="M9.97412 11.0418L11.4397 12.0034L12.2114 12.3334L11.5397 11.8302L9.97412 11.0418Z" fill="#000088"></path>
<path d="M10.094 14.1558C10.0283 14.2062 10.0159 14.3004 10.0663 14.3661C10.1167 14.4318 10.2109 14.4442 10.2766 14.3938C10.3424 14.3434 10.3547 14.2492 10.3043 14.1835C10.2539 14.1178 10.1597 14.1054 10.094 14.1558Z" fill="#000088"></path>
<path d="M10.4376 10.4376L11.6043 11.7458L12.2643 12.2643L11.7457 11.6043L10.4376 10.4376Z" fill="#000088"></path>
<path d="M9.74747 13.4765C9.67093 13.5082 9.63459 13.596 9.66629 13.6725C9.69799 13.749 9.78574 13.7854 9.86227 13.7537C9.93881 13.722 9.97515 13.6342 9.94345 13.5577C9.91175 13.4812 9.824 13.4448 9.74747 13.4765Z" fill="#000088"></path>
<path d="M11.0417 9.97415L11.8301 11.5397L12.3333 12.2114L12.0033 11.4397L11.0417 9.97415Z" fill="#000088"></path>
<path d="M9.58837 12.7312C9.50624 12.742 9.44842 12.8173 9.45923 12.8995C9.47005 12.9816 9.54539 13.0394 9.62753 13.0286C9.70966 13.0178 9.76748 12.9425 9.75667 12.8603C9.74585 12.7782 9.6705 12.7204 9.58837 12.7312Z" fill="#000088"></path>
<path d="M11.745 9.68292L12.1014 11.3992L12.4137 12.1782L12.2946 11.3474L11.745 9.68292Z" fill="#000088"></path>
<path d="M9.62787 11.9694C9.54573 11.9586 9.47039 12.0164 9.45957 12.0985C9.44876 12.1806 9.50658 12.256 9.58871 12.2668C9.67084 12.2776 9.74619 12.2198 9.75701 12.1377C9.76782 12.0555 9.71 11.9802 9.62787 11.9694Z" fill="#000088"></path>
<path d="M12.5 9.58317L12.4 11.3332L12.5 12.1665L12.6 11.3332L12.5 9.58317Z" fill="#000088"></path>
<path d="M9.86306 11.244C9.78653 11.2123 9.69878 11.2487 9.66708 11.3252C9.63538 11.4018 9.67172 11.4895 9.74826 11.5212C9.8248 11.5529 9.91254 11.5166 9.94424 11.44C9.97595 11.3635 9.9396 11.2757 9.86306 11.244Z" fill="#000088"></path>
<path d="M13.2549 9.68267L12.7054 11.3472L12.5863 12.178L12.8985 11.3989L13.2549 9.68267Z" fill="#000088"></path>
<path d="M10.2779 10.6045C10.2121 10.5541 10.118 10.5665 10.0675 10.6322C10.0171 10.6979 10.0295 10.7921 10.0952 10.8425C10.161 10.893 10.2551 10.8806 10.3055 10.8148C10.356 10.7491 10.3436 10.6549 10.2779 10.6045Z" fill="#000088"></path>
<path d="M13.9582 9.974L12.9966 11.4395L12.6666 12.2112L13.1698 11.5395L13.9582 9.974Z" fill="#000088"></path>
<path d="M10.8442 10.0939C10.7938 10.0282 10.6996 10.0158 10.6339 10.0662C10.5682 10.1166 10.5558 10.2108 10.6062 10.2765C10.6566 10.3422 10.7508 10.3546 10.8165 10.3042C10.8822 10.2538 10.8946 10.1596 10.8442 10.0939Z" fill="#000088"></path>
<path d="M14.5623 10.4376L13.2541 11.6043L12.7356 12.2643L13.3955 11.7457L14.5623 10.4376Z" fill="#000088"></path>
<path d="M11.5232 9.74759C11.4915 9.67105 11.4038 9.63471 11.3272 9.66641C11.2507 9.69811 11.2144 9.78586 11.2461 9.86239C11.2778 9.93893 11.3655 9.97528 11.442 9.94357C11.5186 9.91187 11.5549 9.82413 11.5232 9.74759Z" fill="#000088"></path>
<path d="M15.0257 11.0419L13.4602 11.8303L12.7885 12.3336L13.5602 12.0035L15.0257 11.0419Z" fill="#000088"></path>
<path d="M12.2689 9.58874C12.2581 9.5066 12.1828 9.44879 12.1006 9.4596C12.0185 9.47041 11.9607 9.54576 11.9715 9.62789C11.9823 9.71003 12.0577 9.76785 12.1398 9.75703C12.2219 9.74622 12.2798 9.67087 12.2689 9.58874Z" fill="#000088"></path>
<path d="M15.3171 11.7453L13.6008 12.1016L12.8218 12.4139L13.6526 12.2948L15.3171 11.7453Z" fill="#000088"></path>
<path d="M13.0305 9.62799C13.0413 9.54586 12.9835 9.47051 12.9014 9.45969C12.8192 9.44888 12.7439 9.5067 12.7331 9.58883C12.7223 9.67097 12.7801 9.74631 12.8622 9.75713C12.9444 9.76794 13.0197 9.71012 13.0305 9.62799Z" fill="#000088"></path>
<path d="M15.4167 12.5001L13.6667 12.4001L12.8334 12.5001L13.6667 12.6001L15.4167 12.5001Z" fill="#000088"></path>
<path d="M13.7557 9.86319C13.7874 9.78665 13.7511 9.6989 13.6745 9.6672C13.598 9.6355 13.5102 9.67184 13.4785 9.74838C13.4468 9.82492 13.4832 9.91266 13.5597 9.94437C13.6363 9.97607 13.724 9.93972 13.7557 9.86319Z" fill="#000088"></path>
<path d="M15.3172 13.2549L13.6527 12.7054L12.8219 12.5863L13.601 12.8985L15.3172 13.2549Z" fill="#000088"></path>
<path d="M14.3954 10.2782C14.4458 10.2125 14.4334 10.1183 14.3677 10.0679C14.3019 10.0175 14.2078 10.0299 14.1574 10.0956C14.1069 10.1613 14.1193 10.2555 14.185 10.3059C14.2508 10.3563 14.3449 10.3439 14.3954 10.2782Z" fill="#000088"></path>
<path d="M15.0258 13.9585L13.5602 12.9969L12.7885 12.6668L13.4602 13.1701L15.0258 13.9585Z" fill="#000088"></path>
<path d="M14.9059 10.8444C14.9716 10.794 14.984 10.6999 14.9336 10.6341C14.8831 10.5684 14.789 10.556 14.7233 10.6064C14.6575 10.6569 14.6451 10.751 14.6956 10.8168C14.746 10.8825 14.8402 10.8949 14.9059 10.8444Z" fill="#000088"></path>
<path d="M14.5623 14.5626L13.3956 13.2545L12.7356 12.7359L13.2542 13.3959L14.5623 14.5626Z" fill="#000088"></path>
<path d="M15.2524 11.5237C15.3289 11.492 15.3653 11.4043 15.3336 11.3277C15.3019 11.2512 15.2141 11.2149 15.1376 11.2466C15.0611 11.2783 15.0247 11.366 15.0564 11.4425C15.0881 11.5191 15.1759 11.5554 15.2524 11.5237Z" fill="#000088"></path>
<path d="M13.9582 15.0261L13.1698 13.4606L12.6666 12.7889L12.9966 13.5606L13.9582 15.0261Z" fill="#000088"></path>
<path d="M15.4115 12.2691C15.4936 12.2583 15.5515 12.1829 15.5406 12.1008C15.5298 12.0186 15.4545 11.9608 15.3723 11.9716C15.2902 11.9824 15.2324 12.0578 15.2432 12.1399C15.254 12.2221 15.3294 12.2799 15.4115 12.2691Z" fill="#000088"></path>
<path d="M13.2548 15.3173L12.8985 13.6011L12.5862 12.822L12.7053 13.6528L13.2548 15.3173Z" fill="#000088"></path>
</g>
</g>
<defs>
<filter id="svg1998871150_11028_filter0_dddd_194_824" x="-4" y="-1" width="33" height="41" filterUnits="userSpaceOnUse" color-interpolation-filters="sRGB">
<feFlood flood-opacity="0" result="BackgroundImageFix"></feFlood>
<feColorMatrix in="SourceAlpha" type="matrix" values="0 0 0 0 0 0 0 0 0 0 0 0 0 0 0 0 0 0 127 0" result="hardAlpha"></feColorMatrix>
<feOffset dy="1"></feOffset>
<feGaussianBlur stdDeviation="1"></feGaussianBlur>
<feColorMatrix type="matrix" values="0 0 0 0 0 0 0 0 0 0 0 0 0 0 0 0 0 0 0.2 0"></feColorMatrix>
<feBlend mode="normal" in2="BackgroundImageFix" result="effect1_dropShadow_194_824"></feBlend>
<feColorMatrix in="SourceAlpha" type="matrix" values="0 0 0 0 0 0 0 0 0 0 0 0 0 0 0 0 0 0 127 0" result="hardAlpha"></feColorMatrix>
<feOffset dy="3"></feOffset>
<feGaussianBlur stdDeviation="1.5"></feGaussianBlur>
<feColorMatrix type="matrix" values="0 0 0 0 0 0 0 0 0 0 0 0 0 0 0 0 0 0 0.17 0"></feColorMatrix>
<feBlend mode="normal" in2="effect1_dropShadow_194_824" result="effect2_dropShadow_194_824"></feBlend>
<feColorMatrix in="SourceAlpha" type="matrix" values="0 0 0 0 0 0 0 0 0 0 0 0 0 0 0 0 0 0 127 0" result="hardAlpha"></feColorMatrix>
<feOffset dy="6"></feOffset>
<feGaussianBlur stdDeviation="2"></feGaussianBlur>
<feColorMatrix type="matrix" values="0 0 0 0 0 0 0 0 0 0 0 0 0 0 0 0 0 0 0.1 0"></feColorMatrix>
<feBlend mode="normal" in2="effect2_dropShadow_194_824" result="effect3_dropShadow_194_824"></feBlend>
<feColorMatrix in="SourceAlpha" type="matrix" values="0 0 0 0 0 0 0 0 0 0 0 0 0 0 0 0 0 0 127 0" result="hardAlpha"></feColorMatrix>
<feOffset dy="11"></feOffset>
<feGaussianBlur stdDeviation="2"></feGaussianBlur>
<feColorMatrix type="matrix" values="0 0 0 0 0 0 0 0 0 0 0 0 0 0 0 0 0 0 0.03 0"></feColorMatrix>
<feBlend mode="normal" in2="effect3_dropShadow_194_824" result="effect4_dropShadow_194_824"></feBlend>
<feBlend mode="normal" in="SourceGraphic" in2="effect4_dropShadow_194_824" result="shape"></feBlend>
</filter>
<clipPath id="svg1998871150_11028_clip0_194_824">
<rect width="25" height="25" rx="12.5" fill="white"></rect>
</clipPath>
</defs>
</svg>