<svg xmlns="http://www.w3.org/2000/svg" xmlns:xlink="http://www.w3.org/1999/xlink" style="width: 100%; height: 100%" viewBox="0 0 26 25" preserveAspectRatio="none" width="26" height="25"><defs><svg width="26" height="25" viewBox="0 0 26 25" fill="none" xmlns="http://www.w3.org/2000/svg" id="svg-36882872_11139">
<g filter="url(#svg-36882872_11139_filter0_dddd_194_1816)" fill="none">
<g clip-path="url(#svg-36882872_11139_clip0_194_1816)" fill="none">
<path d="M0.570312 0H25.5703V8.33496H0.570312V0Z" fill="#FF9933"></path>
<path d="M0.570312 8.33496H25.5703V16.665H0.570312V8.33496Z" fill="#FFFFFF"></path>
<path d="M0.570312 16.665H25.5703V25H0.570312V16.665Z" fill="#128807"></path>
<path d="M13.0704 15.8333C14.9113 15.8333 16.4037 14.3409 16.4037 12.5C16.4037 10.659 14.9113 9.16663 13.0704 9.16663C11.2294 9.16663 9.73706 10.659 9.73706 12.5C9.73706 14.3409 11.2294 15.8333 13.0704 15.8333Z" fill="#000088"></path>
<path d="M13.0705 15.4167C14.6813 15.4167 15.9871 14.1109 15.9871 12.5C15.9871 10.8892 14.6813 9.58337 13.0705 9.58337C11.4596 9.58337 10.1538 10.8892 10.1538 12.5C10.1538 14.1109 11.4596 15.4167 13.0705 15.4167Z" fill="#FFFFFF"></path>
<path d="M13.0704 13.0833C13.3926 13.0833 13.6537 12.8221 13.6537 12.5C13.6537 12.1778 13.3926 11.9166 13.0704 11.9166C12.7482 11.9166 12.4871 12.1778 12.4871 12.5C12.4871 12.8221 12.7482 13.0833 13.0704 13.0833Z" fill="#000088"></path>
<path d="M15.9423 13.0305C16.0245 13.0413 16.0998 12.9835 16.1106 12.9014C16.1214 12.8192 16.0636 12.7439 15.9815 12.7331C15.8993 12.7223 15.824 12.7801 15.8132 12.8622C15.8024 12.9444 15.8602 13.0197 15.9423 13.0305Z" fill="#000088"></path>
<path d="M13.0702 15.4167L13.1702 13.6667L13.0702 12.8334L12.9702 13.6667L13.0702 15.4167Z" fill="#000088"></path>
<path d="M15.7071 13.7557C15.7837 13.7874 15.8714 13.7511 15.9031 13.6745C15.9348 13.598 15.8985 13.5102 15.8219 13.4785C15.7454 13.4468 15.6576 13.4832 15.6259 13.5597C15.5942 13.6363 15.6306 13.724 15.7071 13.7557Z" fill="#000088"></path>
<path d="M12.3154 15.3172L12.865 13.6527L12.984 12.8219L12.6718 13.601L12.3154 15.3172Z" fill="#000088"></path>
<path d="M15.2923 14.3954C15.3581 14.4458 15.4522 14.4334 15.5026 14.3677C15.5531 14.3019 15.5407 14.2078 15.475 14.1574C15.4092 14.1069 15.3151 14.1193 15.2646 14.185C15.2142 14.2508 15.2266 14.3449 15.2923 14.3954Z" fill="#000088"></path>
<path d="M11.6121 15.0258L12.5737 13.5602L12.9037 12.7885L12.4005 13.4602L11.6121 15.0258Z" fill="#000088"></path>
<path d="M14.7261 14.9059C14.7765 14.9716 14.8707 14.984 14.9364 14.9336C15.0022 14.8831 15.0145 14.789 14.9641 14.7233C14.9137 14.6575 14.8195 14.6451 14.7538 14.6956C14.6881 14.746 14.6757 14.8402 14.7261 14.9059Z" fill="#000088"></path>
<path d="M11.0079 14.5623L12.3161 13.3956L12.8346 12.7356L12.1747 13.2542L11.0079 14.5623Z" fill="#000088"></path>
<path d="M14.0466 15.2524C14.0783 15.3289 14.166 15.3653 14.2426 15.3336C14.3191 15.3019 14.3555 15.2141 14.3238 15.1376C14.2921 15.0611 14.2043 15.0247 14.1278 15.0564C14.0512 15.0881 14.0149 15.1759 14.0466 15.2524Z" fill="#000088"></path>
<path d="M10.5442 13.9582L12.1098 13.1698L12.7814 12.6666L12.0098 12.9966L10.5442 13.9582Z" fill="#000088"></path>
<path d="M13.3012 15.4115C13.3121 15.4936 13.3874 15.5515 13.4695 15.5406C13.5517 15.5298 13.6095 15.4545 13.5987 15.3723C13.5879 15.2902 13.5125 15.2324 13.4304 15.2432C13.3483 15.254 13.2904 15.3294 13.3012 15.4115Z" fill="#000088"></path>
<path d="M10.253 13.2548L11.9692 12.8985L12.7483 12.5862L11.9175 12.7053L10.253 13.2548Z" fill="#000088"></path>
<path d="M12.5397 15.372C12.5289 15.4541 12.5867 15.5295 12.6688 15.5403C12.7509 15.5511 12.8263 15.4933 12.8371 15.4112C12.8479 15.329 12.7901 15.2537 12.708 15.2429C12.6258 15.2321 12.5505 15.2899 12.5397 15.372Z" fill="#000088"></path>
<path d="M10.1535 12.4999L11.9035 12.5999L12.7368 12.4999L11.9035 12.3999L10.1535 12.4999Z" fill="#000088"></path>
<path d="M11.8144 15.1368C11.7827 15.2134 11.819 15.3011 11.8955 15.3328C11.9721 15.3645 12.0598 15.3282 12.0915 15.2516C12.1232 15.1751 12.0869 15.0873 12.0103 15.0556C11.9338 15.0239 11.8461 15.0603 11.8144 15.1368Z" fill="#000088"></path>
<path d="M10.253 11.745L11.9175 12.2945L12.7483 12.4136L11.9692 12.1013L10.253 11.745Z" fill="#000088"></path>
<path d="M11.1751 14.722C11.1246 14.7877 11.137 14.8819 11.2028 14.9323C11.2685 14.9828 11.3626 14.9704 11.4131 14.9046C11.4635 14.8389 11.4511 14.7448 11.3854 14.6943C11.3197 14.6439 11.2255 14.6563 11.1751 14.722Z" fill="#000088"></path>
<path d="M10.5446 11.0416L12.0101 12.0032L12.7818 12.3333L12.1101 11.83L10.5446 11.0416Z" fill="#000088"></path>
<path d="M10.6644 14.1557C10.5987 14.2061 10.5863 14.3003 10.6367 14.366C10.6872 14.4317 10.7813 14.4441 10.8471 14.3937C10.9128 14.3433 10.9252 14.2491 10.8748 14.1834C10.8243 14.1176 10.7302 14.1052 10.6644 14.1557Z" fill="#000088"></path>
<path d="M11.0081 10.4376L12.1748 11.7458L12.8348 12.2643L12.3163 11.6043L11.0081 10.4376Z" fill="#000088"></path>
<path d="M10.3179 13.4765C10.2414 13.5082 10.205 13.596 10.2367 13.6725C10.2684 13.749 10.3562 13.7854 10.4327 13.7537C10.5092 13.722 10.5456 13.6342 10.5139 13.5577C10.4822 13.4812 10.3944 13.4448 10.3179 13.4765Z" fill="#000088"></path>
<path d="M11.6122 9.97402L12.4006 11.5396L12.9039 12.2113L12.5738 11.4396L11.6122 9.97402Z" fill="#000088"></path>
<path d="M10.159 12.7308C10.0769 12.7416 10.0191 12.817 10.0299 12.8991C10.0407 12.9812 10.1161 13.0391 10.1982 13.0282C10.2803 13.0174 10.3382 12.9421 10.3273 12.86C10.3165 12.7778 10.2412 12.72 10.159 12.7308Z" fill="#000088"></path>
<path d="M12.3156 9.68268L12.6719 11.3989L12.9842 12.178L12.8651 11.3472L12.3156 9.68268Z" fill="#000088"></path>
<path d="M10.1983 11.9694C10.1162 11.9586 10.0408 12.0164 10.03 12.0985C10.0192 12.1806 10.077 12.256 10.1591 12.2668C10.2413 12.2776 10.3166 12.2198 10.3274 12.1377C10.3383 12.0555 10.2804 11.9802 10.1983 11.9694Z" fill="#000088"></path>
<path d="M13.0704 9.58317L12.9704 11.3332L13.0704 12.1665L13.1704 11.3332L13.0704 9.58317Z" fill="#000088"></path>
<path d="M10.4335 11.2442C10.357 11.2125 10.2692 11.2488 10.2375 11.3253C10.2058 11.4019 10.2422 11.4896 10.3187 11.5213C10.3952 11.553 10.483 11.5167 10.5147 11.4402C10.5464 11.3636 10.51 11.2759 10.4335 11.2442Z" fill="#000088"></path>
<path d="M13.8252 9.68267L13.2757 11.3472L13.1566 12.178L13.4689 11.3989L13.8252 9.68267Z" fill="#000088"></path>
<path d="M10.8483 10.6045C10.7826 10.5541 10.6884 10.5665 10.638 10.6322C10.5875 10.6979 10.5999 10.7921 10.6657 10.8425C10.7314 10.893 10.8256 10.8806 10.876 10.8148C10.9264 10.7491 10.914 10.6549 10.8483 10.6045Z" fill="#000088"></path>
<path d="M14.5285 9.97412L13.5669 11.4397L13.2369 12.2114L13.7402 11.5397L14.5285 9.97412Z" fill="#000088"></path>
<path d="M11.4145 10.094C11.3641 10.0283 11.2699 10.0159 11.2042 10.0663C11.1385 10.1167 11.1261 10.2109 11.1765 10.2766C11.2269 10.3424 11.3211 10.3547 11.3868 10.3043C11.4525 10.2539 11.4649 10.1597 11.4145 10.094Z" fill="#000088"></path>
<path d="M15.1327 10.4376L13.8245 11.6043L13.306 12.2643L13.966 11.7457L15.1327 10.4376Z" fill="#000088"></path>
<path d="M12.0943 9.74759C12.0626 9.67105 11.9748 9.63471 11.8983 9.66641C11.8218 9.69811 11.7854 9.78586 11.8171 9.86239C11.8488 9.93893 11.9366 9.97528 12.0131 9.94357C12.0896 9.91187 12.126 9.82413 12.0943 9.74759Z" fill="#000088"></path>
<path d="M15.5967 11.0418L14.0311 11.8302L13.3594 12.3334L14.1311 12.0034L15.5967 11.0418Z" fill="#000088"></path>
<path d="M12.8396 9.58849C12.8288 9.50636 12.7535 9.44854 12.6713 9.45936C12.5892 9.47017 12.5314 9.54552 12.5422 9.62765C12.553 9.70978 12.6284 9.7676 12.7105 9.75679C12.7926 9.74598 12.8504 9.67063 12.8396 9.58849Z" fill="#000088"></path>
<path d="M15.8879 11.7452L14.1716 12.1015L13.3926 12.4138L14.2234 12.2947L15.8879 11.7452Z" fill="#000088"></path>
<path d="M13.6012 9.62799C13.612 9.54586 13.5542 9.47051 13.4721 9.45969C13.3899 9.44888 13.3146 9.5067 13.3038 9.58883C13.2929 9.67097 13.3508 9.74631 13.4329 9.75713C13.515 9.76794 13.5904 9.71012 13.6012 9.62799Z" fill="#000088"></path>
<path d="M15.9874 12.5001L14.2374 12.4001L13.4041 12.5001L14.2374 12.6001L15.9874 12.5001Z" fill="#000088"></path>
<path d="M14.3265 9.86319C14.3582 9.78665 14.3219 9.6989 14.2453 9.6672C14.1688 9.6355 14.081 9.67184 14.0493 9.74838C14.0176 9.82492 14.054 9.91266 14.1305 9.94437C14.2071 9.97607 14.2948 9.93972 14.3265 9.86319Z" fill="#000088"></path>
<path d="M15.8879 13.255L14.2234 12.7055L13.3926 12.5864L14.1716 12.8987L15.8879 13.255Z" fill="#000088"></path>
<path d="M14.9658 10.2779C15.0162 10.2121 15.0038 10.118 14.9381 10.0675C14.8724 10.0171 14.7782 10.0295 14.7278 10.0952C14.6774 10.161 14.6898 10.2551 14.7555 10.3055C14.8212 10.356 14.9154 10.3436 14.9658 10.2779Z" fill="#000088"></path>
<path d="M15.5963 13.9582L14.1308 12.9966L13.3591 12.6666L14.0308 13.1698L15.5963 13.9582Z" fill="#000088"></path>
<path d="M15.4764 10.8442C15.5422 10.7938 15.5546 10.6996 15.5041 10.6339C15.4537 10.5682 15.3595 10.5558 15.2938 10.6062C15.2281 10.6566 15.2157 10.7508 15.2661 10.8165C15.3166 10.8822 15.4107 10.8946 15.4764 10.8442Z" fill="#000088"></path>
<path d="M15.1328 14.5623L13.966 13.2541L13.3061 12.7356L13.8246 13.3955L15.1328 14.5623Z" fill="#000088"></path>
<path d="M15.823 11.5234C15.8995 11.4916 15.9358 11.4039 15.9041 11.3274C15.8724 11.2508 15.7847 11.2145 15.7082 11.2462C15.6316 11.2779 15.5953 11.3656 15.627 11.4422C15.6587 11.5187 15.7464 11.5551 15.823 11.5234Z" fill="#000088"></path>
<path d="M14.5287 15.0259L13.7403 13.4603L13.237 12.7886L13.5671 13.5603L14.5287 15.0259Z" fill="#000088"></path>
<path d="M15.9818 12.2691C16.064 12.2583 16.1218 12.1829 16.111 12.1008C16.1001 12.0186 16.0248 11.9608 15.9427 11.9716C15.8605 11.9824 15.8027 12.0578 15.8135 12.1399C15.8243 12.2221 15.8997 12.2799 15.9818 12.2691Z" fill="#000088"></path>
<path d="M13.8253 15.3172L13.4689 13.601L13.1567 12.8219L13.2757 13.6527L13.8253 15.3172Z" fill="#000088"></path>
</g>
</g>
<defs>
<filter id="svg-36882872_11139_filter0_dddd_194_1816" x="-3.42969" y="-1" width="33" height="41" filterUnits="userSpaceOnUse" color-interpolation-filters="sRGB">
<feFlood flood-opacity="0" result="BackgroundImageFix"></feFlood>
<feColorMatrix in="SourceAlpha" type="matrix" values="0 0 0 0 0 0 0 0 0 0 0 0 0 0 0 0 0 0 127 0" result="hardAlpha"></feColorMatrix>
<feOffset dy="1"></feOffset>
<feGaussianBlur stdDeviation="1"></feGaussianBlur>
<feColorMatrix type="matrix" values="0 0 0 0 0 0 0 0 0 0 0 0 0 0 0 0 0 0 0.2 0"></feColorMatrix>
<feBlend mode="normal" in2="BackgroundImageFix" result="effect1_dropShadow_194_1816"></feBlend>
<feColorMatrix in="SourceAlpha" type="matrix" values="0 0 0 0 0 0 0 0 0 0 0 0 0 0 0 0 0 0 127 0" result="hardAlpha"></feColorMatrix>
<feOffset dy="3"></feOffset>
<feGaussianBlur stdDeviation="1.5"></feGaussianBlur>
<feColorMatrix type="matrix" values="0 0 0 0 0 0 0 0 0 0 0 0 0 0 0 0 0 0 0.17 0"></feColorMatrix>
<feBlend mode="normal" in2="effect1_dropShadow_194_1816" result="effect2_dropShadow_194_1816"></feBlend>
<feColorMatrix in="SourceAlpha" type="matrix" values="0 0 0 0 0 0 0 0 0 0 0 0 0 0 0 0 0 0 127 0" result="hardAlpha"></feColorMatrix>
<feOffset dy="6"></feOffset>
<feGaussianBlur stdDeviation="2"></feGaussianBlur>
<feColorMatrix type="matrix" values="0 0 0 0 0 0 0 0 0 0 0 0 0 0 0 0 0 0 0.1 0"></feColorMatrix>
<feBlend mode="normal" in2="effect2_dropShadow_194_1816" result="effect3_dropShadow_194_1816"></feBlend>
<feColorMatrix in="SourceAlpha" type="matrix" values="0 0 0 0 0 0 0 0 0 0 0 0 0 0 0 0 0 0 127 0" result="hardAlpha"></feColorMatrix>
<feOffset dy="11"></feOffset>
<feGaussianBlur stdDeviation="2"></feGaussianBlur>
<feColorMatrix type="matrix" values="0 0 0 0 0 0 0 0 0 0 0 0 0 0 0 0 0 0 0.03 0"></feColorMatrix>
<feBlend mode="normal" in2="effect3_dropShadow_194_1816" result="effect4_dropShadow_194_1816"></feBlend>
<feBlend mode="normal" in="SourceGraphic" in2="effect4_dropShadow_194_1816" result="shape"></feBlend>
</filter>
<clipPath id="svg-36882872_11139_clip0_194_1816">
<rect x="0.570312" width="25" height="25" rx="12.5" fill="white"></rect>
</clipPath>
</defs>
</svg></defs><use href="#svg-36882872_11139"></use></svg>