<svg xmlns:xlink="http://www.w3.org/1999/xlink" width="512" height="512" viewBox="0 0 512 512" fill="none" xmlns="http://www.w3.org/2000/svg" id="svg194966176_2632">
<path d="M420.213 362.349H91.7884C81.9641 362.349 74 354.385 74 344.56V98.8714C74 89.0471 81.9641 81.083 91.7884 81.083H420.213C430.037 81.083 438.001 89.0471 438.001 98.8714V344.56C438.001 354.385 430.037 362.349 420.213 362.349Z" stroke="#000000" stroke-width="20px" stroke-miterlimit="10" stroke-linecap="round" stroke-linejoin="round" fill="none"></path>
<path d="M316.156 430.915H195.852L223.26 362.349H288.748L316.156 430.915Z" stroke="#000000" stroke-width="20px" stroke-miterlimit="10" stroke-linecap="round" stroke-linejoin="round" fill="none"></path>
<path d="M330.375 430.917H181.633" stroke="#000000" stroke-width="20px" stroke-miterlimit="10" stroke-linecap="round" stroke-linejoin="round" fill="none"></path>
<path d="M74 305.792H438.001" stroke="#000000" stroke-width="20px" stroke-miterlimit="10" stroke-linecap="round" stroke-linejoin="round" fill="none"></path>
<path d="M208.725 194.184L161.859 241.049" stroke="#000000" stroke-width="20px" stroke-miterlimit="10" stroke-linecap="round" stroke-linejoin="round" fill="none"></path>
<path d="M350.002 157.178L293.051 214.129" stroke="#000000" stroke-width="20px" stroke-miterlimit="10" stroke-linecap="round" stroke-linejoin="round" fill="none"></path>
<path d="M260.82 213.979L240.951 194.11" stroke="#000000" stroke-width="20px" stroke-miterlimit="10" stroke-linecap="round" stroke-linejoin="round" fill="none"></path>
<path d="M366.102 163.828C378.666 163.828 388.852 153.643 388.852 141.078C388.852 128.514 378.666 118.328 366.102 118.328C353.537 118.328 343.352 128.514 343.352 141.078C343.352 153.643 353.537 163.828 366.102 163.828Z" stroke="#000000" stroke-width="20px" stroke-miterlimit="10" stroke-linecap="round" stroke-linejoin="round" fill="none"></path>
<path d="M276.922 252.807C289.486 252.807 299.672 242.621 299.672 230.057C299.672 217.492 289.486 207.307 276.922 207.307C264.357 207.307 254.172 217.492 254.172 230.057C254.172 242.621 264.357 252.807 276.922 252.807Z" stroke="#000000" stroke-width="20px" stroke-miterlimit="10" stroke-linecap="round" stroke-linejoin="round" fill="none"></path>
<path d="M224.822 200.842C237.387 200.842 247.572 190.656 247.572 178.092C247.572 165.527 237.387 155.342 224.822 155.342C212.258 155.342 202.072 165.527 202.072 178.092C202.072 190.656 212.258 200.842 224.822 200.842Z" stroke="#000000" stroke-width="20px" stroke-miterlimit="10" stroke-linecap="round" stroke-linejoin="round" fill="none"></path>
<path d="M145.9 279.948C158.465 279.948 168.651 269.763 168.651 257.198C168.651 244.634 158.465 234.448 145.9 234.448C133.336 234.448 123.15 244.634 123.15 257.198C123.15 269.763 133.336 279.948 145.9 279.948Z" stroke="#000000" stroke-width="20px" stroke-miterlimit="10" stroke-linecap="round" stroke-linejoin="round" fill="none"></path>
</svg>