<svg xmlns:xlink="http://www.w3.org/1999/xlink" width="512" height="512" viewBox="0 0 512 512" fill="none" xmlns="http://www.w3.org/2000/svg" id="svg1314273170_3956">
<path d="M152.304 394.549V347.31V310.44C152.304 309.864 152.304 308.712 152.304 308.136L95.8478 364.592C92.3913 368.049 84.9021 375.538 84.9021 375.538V394.549V447.549H152.88V394.549H152.304ZM132.717 394.549V428.538H103.337V394.549V383.603C105.641 381.875 107.37 379.571 109.098 378.418L132.717 354.799V394.549ZM226.043 378.995L211.641 364.592L178.228 331.756C178.228 331.756 178.228 338.668 178.228 341.549V347.886V425.658V448.125H246.206V425.658V398.006C246.206 398.006 235.261 387.636 230.652 383.603L226.043 378.995ZM226.62 425.082V427.962H197.239V425.082V377.266L198.391 378.418L212.793 392.821L216.826 396.853C219.13 399.158 223.163 403.19 226.62 406.071V425.082ZM338.957 347.31V340.973C338.957 336.364 338.957 325.995 338.957 325.995L284.804 378.995L280.772 383.027C277.891 385.908 270.978 392.245 270.978 392.245V425.082V447.549H338.957V425.082V347.31ZM319.946 425.082V427.962H290.565V425.082V400.886C292.293 399.158 293.446 398.005 294.598 396.853L298.63 392.821L319.946 372.082V425.082ZM374.674 289.701L368.913 295.462L364.88 299.495V310.44V317.929V347.31V354.799V393.973V446.973H432.859V393.973V354.799V347.31V317.929V310.44V271.266V234.397C432.859 233.821 432.859 233.245 432.859 232.092L374.674 289.701ZM413.272 310.44V317.929V347.31V354.799V393.973V427.962H383.891V393.973V354.799V347.31V317.929V310.44V307.56L387.924 303.527L413.272 278.179V310.44ZM269.25 63.875V85.7663H296.326V104.777H249.087C241.598 104.777 235.261 111.114 235.261 118.603C235.261 126.092 241.598 132.429 249.087 132.429H270.402C288.837 132.429 303.815 147.408 303.815 165.842C303.815 184.277 288.837 199.255 270.402 199.255H269.25V224.027H250.239V199.255H222.587V180.245H270.978C278.467 180.245 284.804 173.908 284.804 166.419C284.804 158.929 278.467 152.592 270.978 152.592H249.663C231.228 152.592 216.25 137.614 216.25 119.179C216.25 100.745 231.228 85.7663 249.663 85.7663H250.815V63.875H269.25ZM433.435 102.473C414.424 102.473 399.446 118.027 399.446 136.462C399.446 142.223 401.174 147.984 403.478 152.592L271.554 284.516C266.946 281.636 261.185 280.484 255.424 280.484C249.663 280.484 243.902 282.212 239.293 284.516L186.87 232.092C189.174 227.484 190.902 222.299 190.902 216.538C190.902 197.527 175.348 182.549 156.913 182.549C137.902 182.549 122.924 198.103 122.924 216.538C122.924 222.299 124.652 227.484 126.956 232.669L94.1195 265.506C89.5109 262.625 83.75 261.473 77.9891 261.473C58.9782 261.473 44 277.027 44 295.462C44 314.473 59.5543 329.451 77.9891 329.451C97 329.451 111.978 313.897 111.978 295.462C111.978 289.701 110.25 283.94 107.946 279.332L140.207 247.071C145.391 249.951 151.152 251.679 156.913 251.679C163.25 251.679 169.011 249.951 174.196 247.071L226.043 298.919C223.163 303.527 222.011 309.288 222.011 315.049C222.011 334.06 237.565 349.038 256 349.038C274.435 349.038 289.989 333.484 289.989 315.049C289.989 309.288 288.261 303.527 285.957 298.919L417.88 166.995C422.489 169.875 428.25 171.027 434.011 171.027C453.022 171.027 468 155.473 468 137.038C468 118.027 452.446 102.473 433.435 102.473ZM77.4131 310.44C69.3478 310.44 62.4348 303.527 62.4348 295.462C62.4348 287.397 69.3478 280.484 77.4131 280.484C85.4783 280.484 92.3913 287.397 92.3913 295.462C91.8152 304.103 85.4783 310.44 77.4131 310.44ZM156.337 232.092C148.272 232.092 141.359 225.179 141.359 217.114C141.359 209.049 148.272 202.136 156.337 202.136C164.402 202.136 171.315 209.049 171.315 217.114C171.315 225.179 164.402 232.092 156.337 232.092ZM255.424 330.027C247.359 330.027 240.446 323.114 240.446 315.049C240.446 306.984 247.359 300.071 255.424 300.071C263.489 300.071 270.402 306.984 270.402 315.049C270.402 323.69 263.489 330.027 255.424 330.027ZM433.435 152.016C425.37 152.016 418.457 145.103 418.457 137.038C418.457 128.973 425.37 122.06 433.435 122.06C441.5 122.06 448.413 128.973 448.413 137.038C448.413 145.103 442.076 152.016 433.435 152.016Z" fill="black"></path>
</svg>