<svg xmlns="http://www.w3.org/2000/svg" xmlns:xlink="http://www.w3.org/1999/xlink" style="width: 100%; height: 100%" viewBox="0 0 26 25" preserveAspectRatio="none" width="26" height="25"><defs><svg width="26" height="25" viewBox="0 0 26 25" fill="none" xmlns="http://www.w3.org/2000/svg" id="svg812544196_11122">
<g filter="url(#svg812544196_11122_filter0_dddd_194_1300)" fill="none">
<g clip-path="url(#svg812544196_11122_clip0_194_1300)" fill="none">
<path d="M0.570312 0H25.5703V8.33496H0.570312V0Z" fill="#FF9933"></path>
<path d="M0.570312 8.33496H25.5703V16.665H0.570312V8.33496Z" fill="#FFFFFF"></path>
<path d="M0.570312 16.665H25.5703V25H0.570312V16.665Z" fill="#128807"></path>
<path d="M13.0703 15.8333C14.9112 15.8333 16.4036 14.3409 16.4036 12.5C16.4036 10.659 14.9112 9.16663 13.0703 9.16663C11.2293 9.16663 9.73694 10.659 9.73694 12.5C9.73694 14.3409 11.2293 15.8333 13.0703 15.8333Z" fill="#000088"></path>
<path d="M13.0702 15.4167C14.6811 15.4167 15.9869 14.1109 15.9869 12.5C15.9869 10.8892 14.6811 9.58337 13.0702 9.58337C11.4594 9.58337 10.1536 10.8892 10.1536 12.5C10.1536 14.1109 11.4594 15.4167 13.0702 15.4167Z" fill="#FFFFFF"></path>
<path d="M13.0703 13.0833C13.3924 13.0833 13.6536 12.8221 13.6536 12.5C13.6536 12.1778 13.3924 11.9166 13.0703 11.9166C12.7481 11.9166 12.4869 12.1778 12.4869 12.5C12.4869 12.8221 12.7481 13.0833 13.0703 13.0833Z" fill="#000088"></path>
<path d="M15.9423 13.0305C16.0245 13.0413 16.0998 12.9835 16.1106 12.9014C16.1214 12.8192 16.0636 12.7439 15.9815 12.7331C15.8993 12.7223 15.824 12.7801 15.8132 12.8622C15.8024 12.9444 15.8602 13.0197 15.9423 13.0305Z" fill="#000088"></path>
<path d="M13.0702 15.4167L13.1702 13.6667L13.0702 12.8334L12.9702 13.6667L13.0702 15.4167Z" fill="#000088"></path>
<path d="M15.7071 13.7557C15.7837 13.7874 15.8714 13.7511 15.9031 13.6745C15.9348 13.598 15.8985 13.5102 15.8219 13.4785C15.7454 13.4468 15.6576 13.4832 15.6259 13.5597C15.5942 13.6363 15.6306 13.724 15.7071 13.7557Z" fill="#000088"></path>
<path d="M12.3153 15.3172L12.8648 13.6527L12.9839 12.8219L12.6716 13.601L12.3153 15.3172Z" fill="#000088"></path>
<path d="M15.2923 14.3954C15.3581 14.4458 15.4522 14.4334 15.5026 14.3677C15.5531 14.3019 15.5407 14.2078 15.475 14.1574C15.4092 14.1069 15.3151 14.1193 15.2646 14.185C15.2142 14.2508 15.2266 14.3449 15.2923 14.3954Z" fill="#000088"></path>
<path d="M11.612 15.0258L12.5736 13.5602L12.9036 12.7885L12.4004 13.4602L11.612 15.0258Z" fill="#000088"></path>
<path d="M14.726 14.9059C14.7764 14.9716 14.8706 14.984 14.9363 14.9336C15.002 14.8831 15.0144 14.789 14.964 14.7233C14.9136 14.6575 14.8194 14.6451 14.7537 14.6956C14.688 14.746 14.6756 14.8402 14.726 14.9059Z" fill="#000088"></path>
<path d="M11.0079 14.5623L12.3161 13.3956L12.8346 12.7356L12.1747 13.2542L11.0079 14.5623Z" fill="#000088"></path>
<path d="M14.047 15.2524C14.0787 15.3289 14.1664 15.3653 14.2429 15.3336C14.3195 15.3019 14.3558 15.2141 14.3241 15.1376C14.2924 15.0611 14.2047 15.0247 14.1281 15.0564C14.0516 15.0881 14.0153 15.1759 14.047 15.2524Z" fill="#000088"></path>
<path d="M10.5445 13.9582L12.11 13.1698L12.7817 12.6666L12.01 12.9966L10.5445 13.9582Z" fill="#000088"></path>
<path d="M13.3012 15.4115C13.3121 15.4936 13.3874 15.5515 13.4695 15.5406C13.5517 15.5298 13.6095 15.4545 13.5987 15.3723C13.5879 15.2902 13.5125 15.2324 13.4304 15.2432C13.3483 15.254 13.2904 15.3294 13.3012 15.4115Z" fill="#000088"></path>
<path d="M10.2531 13.2548L11.9694 12.8985L12.7484 12.5862L11.9176 12.7053L10.2531 13.2548Z" fill="#000088"></path>
<path d="M12.5397 15.372C12.5289 15.4541 12.5867 15.5295 12.6688 15.5403C12.7509 15.5511 12.8263 15.4933 12.8371 15.4112C12.8479 15.329 12.7901 15.2537 12.708 15.2429C12.6258 15.2321 12.5505 15.2899 12.5397 15.372Z" fill="#000088"></path>
<path d="M10.1535 12.4999L11.9035 12.5999L12.7368 12.4999L11.9035 12.3999L10.1535 12.4999Z" fill="#000088"></path>
<path d="M11.8145 15.1368C11.7828 15.2134 11.8191 15.3011 11.8957 15.3328C11.9722 15.3645 12.0599 15.3282 12.0916 15.2516C12.1233 15.1751 12.087 15.0873 12.0105 15.0556C11.9339 15.0239 11.8462 15.0603 11.8145 15.1368Z" fill="#000088"></path>
<path d="M10.253 11.745L11.9175 12.2945L12.7483 12.4136L11.9692 12.1013L10.253 11.745Z" fill="#000088"></path>
<path d="M11.1748 14.722C11.1244 14.7877 11.1368 14.8819 11.2025 14.9323C11.2682 14.9828 11.3624 14.9704 11.4128 14.9046C11.4633 14.8389 11.4509 14.7448 11.3851 14.6943C11.3194 14.6439 11.2253 14.6563 11.1748 14.722Z" fill="#000088"></path>
<path d="M10.5444 11.0416L12.01 12.0032L12.7817 12.3333L12.11 11.83L10.5444 11.0416Z" fill="#000088"></path>
<path d="M10.6643 14.1557C10.5986 14.2061 10.5862 14.3003 10.6366 14.366C10.6871 14.4317 10.7812 14.4441 10.8469 14.3937C10.9127 14.3433 10.9251 14.2491 10.8746 14.1834C10.8242 14.1176 10.73 14.1052 10.6643 14.1557Z" fill="#000088"></path>
<path d="M11.0079 10.4376L12.1746 11.7458L12.8346 12.2643L12.316 11.6043L11.0079 10.4376Z" fill="#000088"></path>
<path d="M10.3178 13.4765C10.2412 13.5082 10.2049 13.596 10.2366 13.6725C10.2683 13.749 10.356 13.7854 10.4326 13.7537C10.5091 13.722 10.5455 13.6342 10.5138 13.5577C10.4821 13.4812 10.3943 13.4448 10.3178 13.4765Z" fill="#000088"></path>
<path d="M11.612 9.97402L12.4004 11.5396L12.9036 12.2113L12.5736 11.4396L11.612 9.97402Z" fill="#000088"></path>
<path d="M10.1587 12.7308C10.0765 12.7416 10.0187 12.817 10.0295 12.8991C10.0404 12.9812 10.1157 13.0391 10.1978 13.0282C10.28 13.0174 10.3378 12.9421 10.327 12.86C10.3162 12.7778 10.2408 12.72 10.1587 12.7308Z" fill="#000088"></path>
<path d="M12.3154 9.68268L12.6717 11.3989L12.984 12.178L12.8649 11.3472L12.3154 9.68268Z" fill="#000088"></path>
<path d="M10.1982 11.9694C10.116 11.9586 10.0407 12.0164 10.0299 12.0985C10.0191 12.1806 10.0769 12.256 10.159 12.2668C10.2412 12.2776 10.3165 12.2198 10.3273 12.1377C10.3381 12.0555 10.2803 11.9802 10.1982 11.9694Z" fill="#000088"></path>
<path d="M13.0703 9.58317L12.9703 11.3332L13.0703 12.1665L13.1703 11.3332L13.0703 9.58317Z" fill="#000088"></path>
<path d="M10.4334 11.2442C10.3568 11.2125 10.2691 11.2488 10.2374 11.3253C10.2057 11.4019 10.242 11.4896 10.3186 11.5213C10.3951 11.553 10.4829 11.5167 10.5146 11.4402C10.5463 11.3636 10.5099 11.2759 10.4334 11.2442Z" fill="#000088"></path>
<path d="M13.8252 9.68267L13.2757 11.3472L13.1566 12.178L13.4689 11.3989L13.8252 9.68267Z" fill="#000088"></path>
<path d="M10.8482 10.6045C10.7824 10.5541 10.6883 10.5665 10.6379 10.6322C10.5874 10.6979 10.5998 10.7921 10.6655 10.8425C10.7313 10.893 10.8254 10.8806 10.8759 10.8148C10.9263 10.7491 10.9139 10.6549 10.8482 10.6045Z" fill="#000088"></path>
<path d="M14.5285 9.97412L13.5669 11.4397L13.2369 12.2114L13.7402 11.5397L14.5285 9.97412Z" fill="#000088"></path>
<path d="M11.4145 10.094C11.3641 10.0283 11.2699 10.0159 11.2042 10.0663C11.1385 10.1167 11.1261 10.2109 11.1765 10.2766C11.2269 10.3424 11.3211 10.3547 11.3868 10.3043C11.4525 10.2539 11.4649 10.1597 11.4145 10.094Z" fill="#000088"></path>
<path d="M15.1326 10.4376L13.8244 11.6043L13.3059 12.2643L13.9658 11.7457L15.1326 10.4376Z" fill="#000088"></path>
<path d="M12.0935 9.74759C12.0618 9.67105 11.9741 9.63471 11.8976 9.66641C11.821 9.69811 11.7847 9.78586 11.8164 9.86239C11.8481 9.93893 11.9358 9.97528 12.0124 9.94357C12.0889 9.91187 12.1252 9.82413 12.0935 9.74759Z" fill="#000088"></path>
<path d="M15.596 11.0418L14.0305 11.8302L13.3588 12.3334L14.1305 12.0034L15.596 11.0418Z" fill="#000088"></path>
<path d="M12.8393 9.58849C12.8284 9.50636 12.7531 9.44854 12.671 9.45936C12.5888 9.47017 12.531 9.54552 12.5418 9.62765C12.5526 9.70978 12.628 9.7676 12.7101 9.75679C12.7923 9.74598 12.8501 9.67063 12.8393 9.58849Z" fill="#000088"></path>
<path d="M15.8874 11.7452L14.1711 12.1015L13.3921 12.4138L14.2229 12.2947L15.8874 11.7452Z" fill="#000088"></path>
<path d="M13.6008 9.62799C13.6116 9.54586 13.5538 9.47051 13.4717 9.45969C13.3896 9.44888 13.3142 9.5067 13.3034 9.58883C13.2926 9.67097 13.3504 9.74631 13.4325 9.75713C13.5147 9.76794 13.59 9.71012 13.6008 9.62799Z" fill="#000088"></path>
<path d="M15.987 12.5001L14.237 12.4001L13.4037 12.5001L14.237 12.6001L15.987 12.5001Z" fill="#000088"></path>
<path d="M14.326 9.86319C14.3577 9.78665 14.3214 9.6989 14.2448 9.6672C14.1683 9.6355 14.0806 9.67184 14.0489 9.74838C14.0172 9.82492 14.0535 9.91266 14.13 9.94437C14.2066 9.97607 14.2943 9.93972 14.326 9.86319Z" fill="#000088"></path>
<path d="M15.8875 13.255L14.223 12.7055L13.3922 12.5864L14.1713 12.8987L15.8875 13.255Z" fill="#000088"></path>
<path d="M14.9657 10.2779C15.0161 10.2121 15.0037 10.118 14.938 10.0675C14.8723 10.0171 14.7781 10.0295 14.7277 10.0952C14.6772 10.161 14.6896 10.2551 14.7554 10.3055C14.8211 10.356 14.9152 10.3436 14.9657 10.2779Z" fill="#000088"></path>
<path d="M15.5961 13.9582L14.1305 12.9966L13.3588 12.6666L14.0305 13.1698L15.5961 13.9582Z" fill="#000088"></path>
<path d="M15.4762 10.8442C15.5419 10.7938 15.5543 10.6996 15.5039 10.6339C15.4534 10.5682 15.3593 10.5558 15.2936 10.6062C15.2278 10.6566 15.2154 10.7508 15.2659 10.8165C15.3163 10.8822 15.4105 10.8946 15.4762 10.8442Z" fill="#000088"></path>
<path d="M15.1326 14.5623L13.9659 13.2541L13.3059 12.7356L13.8245 13.3955L15.1326 14.5623Z" fill="#000088"></path>
<path d="M15.8227 11.5234C15.8993 11.4916 15.9356 11.4039 15.9039 11.3274C15.8722 11.2508 15.7845 11.2145 15.7079 11.2462C15.6314 11.2779 15.595 11.3656 15.6267 11.4422C15.6584 11.5187 15.7462 11.5551 15.8227 11.5234Z" fill="#000088"></path>
<path d="M14.5285 15.0259L13.7401 13.4603L13.2369 12.7886L13.5669 13.5603L14.5285 15.0259Z" fill="#000088"></path>
<path d="M15.9818 12.2691C16.064 12.2583 16.1218 12.1829 16.111 12.1008C16.1001 12.0186 16.0248 11.9608 15.9427 11.9716C15.8605 11.9824 15.8027 12.0578 15.8135 12.1399C15.8243 12.2221 15.8997 12.2799 15.9818 12.2691Z" fill="#000088"></path>
<path d="M13.8251 15.3172L13.4688 13.601L13.1565 12.8219L13.2756 13.6527L13.8251 15.3172Z" fill="#000088"></path>
</g>
</g>
<defs>
<filter id="svg812544196_11122_filter0_dddd_194_1300" x="-3.42969" y="-1" width="33" height="41" filterUnits="userSpaceOnUse" color-interpolation-filters="sRGB">
<feFlood flood-opacity="0" result="BackgroundImageFix"></feFlood>
<feColorMatrix in="SourceAlpha" type="matrix" values="0 0 0 0 0 0 0 0 0 0 0 0 0 0 0 0 0 0 127 0" result="hardAlpha"></feColorMatrix>
<feOffset dy="1"></feOffset>
<feGaussianBlur stdDeviation="1"></feGaussianBlur>
<feColorMatrix type="matrix" values="0 0 0 0 0 0 0 0 0 0 0 0 0 0 0 0 0 0 0.2 0"></feColorMatrix>
<feBlend mode="normal" in2="BackgroundImageFix" result="effect1_dropShadow_194_1300"></feBlend>
<feColorMatrix in="SourceAlpha" type="matrix" values="0 0 0 0 0 0 0 0 0 0 0 0 0 0 0 0 0 0 127 0" result="hardAlpha"></feColorMatrix>
<feOffset dy="3"></feOffset>
<feGaussianBlur stdDeviation="1.5"></feGaussianBlur>
<feColorMatrix type="matrix" values="0 0 0 0 0 0 0 0 0 0 0 0 0 0 0 0 0 0 0.17 0"></feColorMatrix>
<feBlend mode="normal" in2="effect1_dropShadow_194_1300" result="effect2_dropShadow_194_1300"></feBlend>
<feColorMatrix in="SourceAlpha" type="matrix" values="0 0 0 0 0 0 0 0 0 0 0 0 0 0 0 0 0 0 127 0" result="hardAlpha"></feColorMatrix>
<feOffset dy="6"></feOffset>
<feGaussianBlur stdDeviation="2"></feGaussianBlur>
<feColorMatrix type="matrix" values="0 0 0 0 0 0 0 0 0 0 0 0 0 0 0 0 0 0 0.1 0"></feColorMatrix>
<feBlend mode="normal" in2="effect2_dropShadow_194_1300" result="effect3_dropShadow_194_1300"></feBlend>
<feColorMatrix in="SourceAlpha" type="matrix" values="0 0 0 0 0 0 0 0 0 0 0 0 0 0 0 0 0 0 127 0" result="hardAlpha"></feColorMatrix>
<feOffset dy="11"></feOffset>
<feGaussianBlur stdDeviation="2"></feGaussianBlur>
<feColorMatrix type="matrix" values="0 0 0 0 0 0 0 0 0 0 0 0 0 0 0 0 0 0 0.03 0"></feColorMatrix>
<feBlend mode="normal" in2="effect3_dropShadow_194_1300" result="effect4_dropShadow_194_1300"></feBlend>
<feBlend mode="normal" in="SourceGraphic" in2="effect4_dropShadow_194_1300" result="shape"></feBlend>
</filter>
<clipPath id="svg812544196_11122_clip0_194_1300">
<rect x="0.570312" width="25" height="25" rx="12.5" fill="white"></rect>
</clipPath>
</defs>
</svg></defs><use href="#svg812544196_11122"></use></svg>