<svg xmlns:xlink="http://www.w3.org/1999/xlink" width="26" height="26" viewBox="0 0 26 26" fill="none" xmlns="http://www.w3.org/2000/svg" id="svg2067547115_11161">
<g filter="url(#svg2067547115_11161_filter0_dddd_194_930)" fill="none">
<g clip-path="url(#svg2067547115_11161_clip0_194_930)" fill="none">
<path d="M0.28125 0.851562H25.2812V9.18652H0.28125V0.851562Z" fill="#FF9933"></path>
<path d="M0.28125 9.18652H25.2812V17.5166H0.28125V9.18652Z" fill="#FFFFFF"></path>
<path d="M0.28125 17.5166H25.2812V25.8516H0.28125V17.5166Z" fill="#128807"></path>
<path d="M12.7812 16.685C14.6222 16.685 16.1145 15.1926 16.1145 13.3516C16.1145 11.5107 14.6222 10.0183 12.7812 10.0183C10.9403 10.0183 9.44788 11.5107 9.44788 13.3516C9.44788 15.1926 10.9403 16.685 12.7812 16.685Z" fill="#000088"></path>
<path d="M12.7812 16.2684C14.392 16.2684 15.6978 14.9626 15.6978 13.3517C15.6978 11.7409 14.392 10.4351 12.7812 10.4351C11.1703 10.4351 9.8645 11.7409 9.8645 13.3517C9.8645 14.9626 11.1703 16.2684 12.7812 16.2684Z" fill="#FFFFFF"></path>
<path d="M12.7812 13.935C13.1034 13.935 13.3645 13.6738 13.3645 13.3516C13.3645 13.0295 13.1034 12.7683 12.7812 12.7683C12.459 12.7683 12.1979 13.0295 12.1979 13.3516C12.1979 13.6738 12.459 13.935 12.7812 13.935Z" fill="#000088"></path>
<path d="M15.6533 13.8822C15.7354 13.893 15.8107 13.8352 15.8216 13.7531C15.8324 13.6709 15.7746 13.5956 15.6924 13.5848C15.6103 13.574 15.5349 13.6318 15.5241 13.7139C15.5133 13.796 15.5711 13.8714 15.6533 13.8822Z" fill="#000088"></path>
<path d="M12.7812 16.2684L12.8812 14.5184L12.7812 13.6851L12.6812 14.5184L12.7812 16.2684Z" fill="#000088"></path>
<path d="M15.4181 14.6075C15.4946 14.6392 15.5823 14.6029 15.614 14.5263C15.6458 14.4498 15.6094 14.3621 15.5329 14.3304C15.4563 14.2986 15.3686 14.335 15.3369 14.4115C15.3052 14.4881 15.3415 14.5758 15.4181 14.6075Z" fill="#000088"></path>
<path d="M12.0262 16.1689L12.5758 14.5044L12.6949 13.6736L12.3826 14.4526L12.0262 16.1689Z" fill="#000088"></path>
<path d="M15.0033 15.247C15.069 15.2975 15.1632 15.2851 15.2136 15.2194C15.264 15.1536 15.2516 15.0595 15.1859 15.009C15.1202 14.9586 15.026 14.971 14.9756 15.0367C14.9251 15.1025 14.9375 15.1966 15.0033 15.247Z" fill="#000088"></path>
<path d="M11.3229 15.8776L12.2845 14.412L12.6146 13.6403L12.1113 14.312L11.3229 15.8776Z" fill="#000088"></path>
<path d="M14.4369 15.7577C14.4874 15.8234 14.5815 15.8358 14.6472 15.7854C14.713 15.7349 14.7254 15.6408 14.6749 15.5751C14.6245 15.5093 14.5303 15.4969 14.4646 15.5474C14.3989 15.5978 14.3865 15.692 14.4369 15.7577Z" fill="#000088"></path>
<path d="M10.7189 15.414L12.027 14.2473L12.5456 13.5873L11.8856 14.1059L10.7189 15.414Z" fill="#000088"></path>
<path d="M13.7579 16.1042C13.7896 16.1808 13.8773 16.2171 13.9539 16.1854C14.0304 16.1537 14.0668 16.0659 14.0351 15.9894C14.0034 15.9129 13.9156 15.8765 13.8391 15.9082C13.7625 15.9399 13.7262 16.0277 13.7579 16.1042Z" fill="#000088"></path>
<path d="M10.2554 14.8099L11.8209 14.0215L12.4926 13.5182L11.7209 13.8483L10.2554 14.8099Z" fill="#000088"></path>
<path d="M13.0122 16.2631C13.023 16.3452 13.0983 16.403 13.1805 16.3922C13.2626 16.3814 13.3204 16.306 13.3096 16.2239C13.2988 16.1418 13.2235 16.084 13.1413 16.0948C13.0592 16.1056 13.0014 16.1809 13.0122 16.2631Z" fill="#000088"></path>
<path d="M9.96405 14.1065L11.6803 13.7502L12.4594 13.4379L11.6285 13.557L9.96405 14.1065Z" fill="#000088"></path>
<path d="M12.2506 16.2238C12.2398 16.306 12.2976 16.3813 12.3798 16.3921C12.4619 16.4029 12.5372 16.3451 12.548 16.263C12.5589 16.1808 12.501 16.1055 12.4189 16.0947C12.3368 16.0839 12.2614 16.1417 12.2506 16.2238Z" fill="#000088"></path>
<path d="M9.86442 13.3517L11.6144 13.4517L12.4478 13.3517L11.6144 13.2517L9.86442 13.3517Z" fill="#000088"></path>
<path d="M11.5254 15.9886C11.4937 16.0652 11.5301 16.1529 11.6066 16.1846C11.6831 16.2163 11.7709 16.18 11.8026 16.1034C11.8343 16.0269 11.7979 15.9391 11.7214 15.9074C11.6449 15.8757 11.5571 15.9121 11.5254 15.9886Z" fill="#000088"></path>
<path d="M9.96392 12.5969L11.6284 13.1464L12.4592 13.2655L11.6802 12.9533L9.96392 12.5969Z" fill="#000088"></path>
<path d="M10.8858 15.5736C10.8353 15.6393 10.8477 15.7335 10.9135 15.7839C10.9792 15.8343 11.0733 15.8219 11.1238 15.7562C11.1742 15.6905 11.1618 15.5963 11.0961 15.5459C11.0304 15.4955 10.9362 15.5079 10.8858 15.5736Z" fill="#000088"></path>
<path d="M10.2554 11.8933L11.7209 12.8549L12.4926 13.185L11.8209 12.6817L10.2554 11.8933Z" fill="#000088"></path>
<path d="M10.3752 15.0074C10.3095 15.0578 10.2971 15.152 10.3476 15.2177C10.398 15.2834 10.4922 15.2958 10.5579 15.2454C10.6236 15.1949 10.636 15.1008 10.5856 15.035C10.5351 14.9693 10.441 14.9569 10.3752 15.0074Z" fill="#000088"></path>
<path d="M10.7188 11.2892L11.8855 12.5973L12.5455 13.1159L12.027 12.4559L10.7188 11.2892Z" fill="#000088"></path>
<path d="M10.0287 14.3281C9.95218 14.3598 9.91584 14.4475 9.94754 14.5241C9.97924 14.6006 10.067 14.637 10.1435 14.6053C10.2201 14.5736 10.2564 14.4858 10.2247 14.4093C10.193 14.3327 10.1053 14.2964 10.0287 14.3281Z" fill="#000088"></path>
<path d="M11.3229 10.8257L12.1113 12.3913L12.6146 13.0629L12.2845 12.2913L11.3229 10.8257Z" fill="#000088"></path>
<path d="M9.86962 13.5827C9.78749 13.5936 9.72967 13.6689 9.74048 13.751C9.7513 13.8332 9.82664 13.891 9.90878 13.8802C9.99091 13.8694 10.0487 13.794 10.0379 13.7119C10.0271 13.6297 9.95175 13.5719 9.86962 13.5827Z" fill="#000088"></path>
<path d="M12.0263 10.5345L12.3826 12.2507L12.6949 13.0298L12.5758 12.199L12.0263 10.5345Z" fill="#000088"></path>
<path d="M9.90912 12.8209C9.82698 12.8101 9.75164 12.8679 9.74082 12.9501C9.73001 13.0322 9.78783 13.1075 9.86996 13.1184C9.95209 13.1292 10.0274 13.0714 10.0383 12.9892C10.0491 12.9071 9.99125 12.8317 9.90912 12.8209Z" fill="#000088"></path>
<path d="M12.7812 10.4347L12.6812 12.1847L12.7812 13.0181L12.8812 12.1847L12.7812 10.4347Z" fill="#000088"></path>
<path d="M10.1443 12.0956C10.0678 12.0639 9.98003 12.1003 9.94833 12.1768C9.91663 12.2533 9.95297 12.3411 10.0295 12.3728C10.106 12.4045 10.1938 12.3681 10.2255 12.2916C10.2572 12.2151 10.2209 12.1273 10.1443 12.0956Z" fill="#000088"></path>
<path d="M13.5361 10.5342L12.9866 12.1987L12.8675 13.0295L13.1798 12.2505L13.5361 10.5342Z" fill="#000088"></path>
<path d="M10.5591 11.4561C10.4934 11.4056 10.3992 11.418 10.3488 11.4838C10.2984 11.5495 10.3108 11.6437 10.3765 11.6941C10.4422 11.7445 10.5364 11.7321 10.5868 11.6664C10.6372 11.6007 10.6248 11.5065 10.5591 11.4561Z" fill="#000088"></path>
<path d="M14.2395 10.8256L13.2779 12.2911L12.9478 13.0628L13.4511 12.3911L14.2395 10.8256Z" fill="#000088"></path>
<path d="M11.1255 10.9454C11.075 10.8797 10.9809 10.8673 10.9151 10.9178C10.8494 10.9682 10.837 11.0623 10.8874 11.1281C10.9379 11.1938 11.032 11.2062 11.0978 11.1558C11.1635 11.1053 11.1759 11.0112 11.1255 10.9454Z" fill="#000088"></path>
<path d="M14.8435 11.2891L13.5354 12.4558L13.0168 13.1158L13.6768 12.5973L14.8435 11.2891Z" fill="#000088"></path>
<path d="M11.8045 10.5992C11.7728 10.5226 11.685 10.4863 11.6085 10.518C11.532 10.5497 11.4956 10.6374 11.5273 10.714C11.559 10.7905 11.6468 10.8268 11.7233 10.7951C11.7998 10.7634 11.8362 10.6757 11.8045 10.5992Z" fill="#000088"></path>
<path d="M15.307 11.8935L13.7414 12.6819L13.0698 13.1851L13.8414 12.8551L15.307 11.8935Z" fill="#000088"></path>
<path d="M12.5502 10.4403C12.5394 10.3582 12.464 10.3003 12.3819 10.3112C12.2998 10.322 12.2419 10.3973 12.2528 10.4795C12.2636 10.5616 12.3389 10.6194 12.4211 10.6086C12.5032 10.5978 12.561 10.5224 12.5502 10.4403Z" fill="#000088"></path>
<path d="M15.5983 12.5969L13.8821 12.9532L13.103 13.2655L13.9338 13.1464L15.5983 12.5969Z" fill="#000088"></path>
<path d="M13.3118 10.4796C13.3226 10.3974 13.2648 10.3221 13.1826 10.3113C13.1005 10.3004 13.0251 10.3583 13.0143 10.4404C13.0035 10.5225 13.0613 10.5979 13.1435 10.6087C13.2256 10.6195 13.3009 10.5617 13.3118 10.4796Z" fill="#000088"></path>
<path d="M15.698 13.3517L13.948 13.2517L13.1146 13.3517L13.948 13.4517L15.698 13.3517Z" fill="#000088"></path>
<path d="M14.037 10.7147C14.0687 10.6382 14.0323 10.5505 13.9558 10.5188C13.8792 10.4871 13.7915 10.5234 13.7598 10.5999C13.7281 10.6765 13.7644 10.7642 13.841 10.7959C13.9175 10.8276 14.0053 10.7913 14.037 10.7147Z" fill="#000088"></path>
<path d="M15.5985 14.1064L13.934 13.5569L13.1032 13.4378L13.8822 13.7501L15.5985 14.1064Z" fill="#000088"></path>
<path d="M14.6766 11.1298C14.727 11.0641 14.7146 10.9699 14.6489 10.9195C14.5832 10.869 14.489 10.8814 14.4386 10.9472C14.3882 11.0129 14.4006 11.107 14.4663 11.1575C14.532 11.2079 14.6262 11.1955 14.6766 11.1298Z" fill="#000088"></path>
<path d="M15.307 14.81L13.8415 13.8484L13.0698 13.5184L13.7415 14.0216L15.307 14.81Z" fill="#000088"></path>
<path d="M15.1871 11.696C15.2529 11.6456 15.2652 11.5514 15.2148 11.4857C15.1644 11.42 15.0702 11.4076 15.0045 11.458C14.9388 11.5084 14.9264 11.6026 14.9768 11.6683C15.0272 11.734 15.1214 11.7464 15.1871 11.696Z" fill="#000088"></path>
<path d="M14.8436 15.4142L13.6768 14.106L13.0169 13.5875L13.5354 14.2475L14.8436 15.4142Z" fill="#000088"></path>
<path d="M15.5337 12.3753C15.6102 12.3436 15.6465 12.2558 15.6148 12.1793C15.5831 12.1028 15.4954 12.0664 15.4189 12.0981C15.3423 12.1298 15.306 12.2176 15.3377 12.2941C15.3694 12.3706 15.4571 12.407 15.5337 12.3753Z" fill="#000088"></path>
<path d="M14.2395 15.8777L13.4511 14.3121L12.9478 13.6404L13.2779 14.4121L14.2395 15.8777Z" fill="#000088"></path>
<path d="M15.6928 13.1206C15.7749 13.1098 15.8327 13.0345 15.8219 12.9523C15.8111 12.8702 15.7357 12.8124 15.6536 12.8232C15.5715 12.834 15.5136 12.9094 15.5245 12.9915C15.5353 13.0736 15.6106 13.1314 15.6928 13.1206Z" fill="#000088"></path>
<path d="M13.5361 16.1689L13.1797 14.4526L12.8675 13.6736L12.9866 14.5044L13.5361 16.1689Z" fill="#000088"></path>
</g>
</g>
<defs>
<filter id="svg2067547115_11161_filter0_dddd_194_930" x="-3.71875" y="-0.148438" width="33" height="41" filterUnits="userSpaceOnUse" color-interpolation-filters="sRGB">
<feFlood flood-opacity="0" result="BackgroundImageFix"></feFlood>
<feColorMatrix in="SourceAlpha" type="matrix" values="0 0 0 0 0 0 0 0 0 0 0 0 0 0 0 0 0 0 127 0" result="hardAlpha"></feColorMatrix>
<feOffset dy="1"></feOffset>
<feGaussianBlur stdDeviation="1"></feGaussianBlur>
<feColorMatrix type="matrix" values="0 0 0 0 0 0 0 0 0 0 0 0 0 0 0 0 0 0 0.2 0"></feColorMatrix>
<feBlend mode="normal" in2="BackgroundImageFix" result="effect1_dropShadow_194_930"></feBlend>
<feColorMatrix in="SourceAlpha" type="matrix" values="0 0 0 0 0 0 0 0 0 0 0 0 0 0 0 0 0 0 127 0" result="hardAlpha"></feColorMatrix>
<feOffset dy="3"></feOffset>
<feGaussianBlur stdDeviation="1.5"></feGaussianBlur>
<feColorMatrix type="matrix" values="0 0 0 0 0 0 0 0 0 0 0 0 0 0 0 0 0 0 0.17 0"></feColorMatrix>
<feBlend mode="normal" in2="effect1_dropShadow_194_930" result="effect2_dropShadow_194_930"></feBlend>
<feColorMatrix in="SourceAlpha" type="matrix" values="0 0 0 0 0 0 0 0 0 0 0 0 0 0 0 0 0 0 127 0" result="hardAlpha"></feColorMatrix>
<feOffset dy="6"></feOffset>
<feGaussianBlur stdDeviation="2"></feGaussianBlur>
<feColorMatrix type="matrix" values="0 0 0 0 0 0 0 0 0 0 0 0 0 0 0 0 0 0 0.1 0"></feColorMatrix>
<feBlend mode="normal" in2="effect2_dropShadow_194_930" result="effect3_dropShadow_194_930"></feBlend>
<feColorMatrix in="SourceAlpha" type="matrix" values="0 0 0 0 0 0 0 0 0 0 0 0 0 0 0 0 0 0 127 0" result="hardAlpha"></feColorMatrix>
<feOffset dy="11"></feOffset>
<feGaussianBlur stdDeviation="2"></feGaussianBlur>
<feColorMatrix type="matrix" values="0 0 0 0 0 0 0 0 0 0 0 0 0 0 0 0 0 0 0.03 0"></feColorMatrix>
<feBlend mode="normal" in2="effect3_dropShadow_194_930" result="effect4_dropShadow_194_930"></feBlend>
<feBlend mode="normal" in="SourceGraphic" in2="effect4_dropShadow_194_930" result="shape"></feBlend>
</filter>
<clipPath id="svg2067547115_11161_clip0_194_930">
<rect x="0.28125" y="0.851562" width="25" height="25" rx="12.5" fill="white"></rect>
</clipPath>
</defs>
</svg>