<svg xmlns="http://www.w3.org/2000/svg" xmlns:xlink="http://www.w3.org/1999/xlink" style="width: 100%; height: 100%" viewBox="0 0 512 512" preserveAspectRatio="none" width="512" height="512"><defs><svg width="512" height="512" viewBox="0 0 512 512" fill="none" xmlns="http://www.w3.org/2000/svg" id="svg920941551_11016">
<path d="M386.576 393.8C386.576 400.655 389.256 401.609 397.719 403.599C405.877 405.517 418.2 408.415 418.2 425.237C418.193 429.969 416.647 434.57 413.796 438.348C410.944 442.125 406.941 444.875 402.39 446.181V452.695C402.412 453.495 402.273 454.291 401.982 455.037C401.691 455.783 401.253 456.463 400.694 457.037C400.135 457.611 399.467 458.067 398.729 458.378C397.991 458.69 397.198 458.85 396.397 458.85C395.596 458.85 394.803 458.69 394.065 458.378C393.327 458.067 392.659 457.611 392.1 457.037C391.542 456.463 391.104 455.783 390.812 455.037C390.521 454.291 390.382 453.495 390.404 452.695V446.181C385.852 444.875 381.849 442.126 378.996 438.349C376.144 434.571 374.597 429.969 374.59 425.237C374.568 424.436 374.706 423.64 374.998 422.894C375.289 422.148 375.727 421.468 376.286 420.895C376.844 420.321 377.512 419.865 378.25 419.553C378.988 419.242 379.781 419.081 380.583 419.081C381.384 419.081 382.177 419.242 382.915 419.553C383.653 419.865 384.321 420.321 384.88 420.895C385.438 421.468 385.876 422.148 386.167 422.894C386.459 423.64 386.597 424.436 386.576 425.237C386.576 427.839 387.61 430.335 389.452 432.175C391.293 434.016 393.791 435.05 396.395 435.05C398.999 435.05 401.497 434.016 403.338 432.175C405.18 430.335 406.214 427.839 406.214 425.237C406.214 418.26 403.327 417.224 394.954 415.262C386.846 413.353 374.572 410.468 374.572 393.8C374.578 389.067 376.124 384.464 378.976 380.686C381.829 376.908 385.834 374.16 390.386 372.855V366.319C390.429 364.759 391.079 363.278 392.198 362.189C393.318 361.101 394.818 360.492 396.379 360.492C397.941 360.492 399.441 361.101 400.56 362.189C401.679 363.278 402.329 364.759 402.372 366.319V372.837C406.924 374.143 410.928 376.891 413.779 380.669C416.631 384.447 418.176 389.049 418.182 393.782C418.204 394.582 418.065 395.379 417.774 396.124C417.483 396.87 417.045 397.55 416.486 398.124C415.928 398.698 415.26 399.154 414.521 399.465C413.783 399.777 412.99 399.937 412.189 399.937C411.388 399.937 410.595 399.777 409.857 399.465C409.119 399.154 408.451 398.698 407.892 398.124C407.334 397.55 406.896 396.87 406.604 396.124C406.313 395.379 406.174 394.582 406.196 393.782C406.196 391.179 405.162 388.683 403.32 386.843C401.479 385.003 398.981 383.969 396.377 383.969C393.773 383.969 391.275 385.003 389.434 386.843C387.592 388.683 386.558 391.179 386.558 393.782L386.576 393.8ZM468 409.532C467.976 426.074 462.219 442.098 451.707 454.877C441.195 467.657 426.578 476.402 410.342 479.627C394.106 482.852 377.253 480.356 362.65 472.565C348.047 464.773 336.596 452.167 330.245 436.891L316.155 447.451C315.116 448.231 313.852 448.654 312.552 448.654C311.252 448.654 309.987 448.231 308.948 447.451L284.598 429.202L260.248 447.451C259.209 448.232 257.944 448.655 256.644 448.655C255.344 448.655 254.079 448.232 253.041 447.451L228.69 429.202L204.34 447.451C203.301 448.232 202.037 448.655 200.737 448.655C199.437 448.655 198.172 448.232 197.133 447.451L172.783 429.202L148.432 447.451C147.394 448.233 146.129 448.656 144.829 448.656C143.529 448.656 142.264 448.233 141.226 447.451L113.276 426.506C112.543 425.937 111.952 425.205 111.551 424.368C111.149 423.532 110.947 422.613 110.961 421.685V194.879H49.9907C49.2039 194.879 48.4246 194.725 47.6975 194.424C46.9704 194.123 46.3097 193.682 45.7533 193.126C45.1969 192.57 44.7557 191.91 44.4548 191.184C44.154 190.457 43.9994 189.678 44 188.892V70.4403C44.0119 59.9806 48.1763 49.953 55.5791 42.5586C62.9819 35.1642 73.0181 31.0071 83.4848 31H362.923C373.387 31.0119 383.419 35.171 390.817 42.565C398.216 49.9589 402.378 59.9838 402.39 70.4403V338.231C420.273 339.75 436.934 347.918 449.082 361.12C461.23 374.321 467.981 391.597 468 409.532ZM110.961 70.4403C110.961 63.158 108.066 56.174 102.913 51.0247C97.7607 45.8753 90.772 42.9824 83.4848 42.9824C76.1976 42.9824 69.2089 45.8753 64.0561 51.0247C58.9033 56.174 56.0085 63.158 56.0085 70.4403V182.901H110.961V70.4403ZM326.443 424.755C324.264 414.805 324.239 404.504 326.368 394.543C328.497 384.581 332.731 375.19 338.788 366.997C344.844 358.804 352.582 352 361.484 347.039C370.386 342.077 380.246 339.075 390.404 338.231V70.4403C390.395 63.161 387.497 56.1825 382.346 51.0352C377.195 45.8879 370.212 42.992 362.928 42.9824H111.767C118.929 50.3298 122.935 60.1832 122.929 70.4403V418.705L144.883 435.158L169.233 416.909C170.272 416.128 171.537 415.705 172.837 415.705C174.137 415.705 175.402 416.128 176.44 416.909L200.791 435.158L225.136 416.909C226.175 416.128 227.44 415.705 228.74 415.705C230.04 415.705 231.305 416.128 232.343 416.909L256.694 435.158L281.044 416.909C282.083 416.128 283.347 415.705 284.647 415.705C285.948 415.705 287.212 416.128 288.251 416.909L312.574 435.158L326.443 424.755ZM456.014 409.532C456.001 393.735 449.718 378.59 438.543 367.417C427.369 356.245 412.215 349.959 396.408 349.939C384.617 349.936 373.089 353.428 363.284 359.973C353.478 366.517 345.834 375.82 341.319 386.706C336.804 397.591 335.621 409.571 337.919 421.128C340.217 432.686 345.892 443.303 354.228 451.637C362.564 459.972 373.186 465.648 384.751 467.95C396.315 470.251 408.303 469.074 419.198 464.567C430.093 460.06 439.406 452.426 445.959 442.63C452.512 432.834 456.011 421.315 456.014 409.532ZM179.656 153.746C176.789 153.746 174.04 152.608 172.012 150.582C169.985 148.556 168.846 145.808 168.846 142.943C168.803 141.383 168.153 139.901 167.034 138.813C165.915 137.725 164.415 137.116 162.853 137.116C161.291 137.116 159.792 137.725 158.672 138.813C157.553 139.901 156.903 141.383 156.86 142.943C156.867 147.94 158.514 152.798 161.55 156.769C164.586 160.74 168.842 163.606 173.666 164.927V172.129C173.666 173.718 174.297 175.242 175.422 176.365C176.546 177.489 178.071 178.12 179.661 178.12C181.251 178.12 182.776 177.489 183.9 176.365C185.025 175.242 185.656 173.718 185.656 172.129V164.927C190.479 163.606 194.736 160.74 197.771 156.769C200.807 152.798 202.455 147.94 202.462 142.943C202.462 125.388 189.534 122.327 180.981 120.319C171.972 118.199 168.846 117.083 168.846 109.516C168.846 106.651 169.985 103.903 172.012 101.877C174.04 99.8511 176.789 98.7129 179.656 98.7129C182.523 98.7129 185.273 99.8511 187.3 101.877C189.328 103.903 190.467 106.651 190.467 109.516C190.445 110.316 190.584 111.113 190.875 111.859C191.166 112.605 191.604 113.284 192.163 113.858C192.721 114.432 193.39 114.888 194.128 115.2C194.866 115.511 195.659 115.671 196.46 115.671C197.261 115.671 198.054 115.511 198.792 115.2C199.53 114.888 200.198 114.432 200.757 113.858C201.315 113.284 201.753 112.605 202.045 111.859C202.336 111.113 202.475 110.316 202.453 109.516C202.446 104.519 200.798 99.6624 197.762 95.6917C194.726 91.7211 190.47 88.856 185.647 87.5362V80.3342C185.647 78.7452 185.015 77.2213 183.891 76.0977C182.767 74.9742 181.242 74.343 179.652 74.343C178.062 74.343 176.537 74.9742 175.413 76.0977C174.288 77.2213 173.657 78.7452 173.657 80.3342V87.5362C168.834 88.856 164.578 91.7211 161.542 95.6917C158.506 99.6624 156.858 104.519 156.851 109.516C156.851 126.936 169.715 129.961 178.229 131.959C187.318 134.098 190.467 135.227 190.467 142.925C190.469 144.345 190.191 145.752 189.649 147.064C189.107 148.377 188.311 149.57 187.307 150.575C186.303 151.58 185.11 152.378 183.797 152.922C182.485 153.466 181.078 153.746 179.656 153.746ZM229.253 150.932V101.535C229.253 100.749 229.409 99.9698 229.71 99.2432C230.011 98.5166 230.453 97.8564 231.01 97.3004C231.566 96.7444 232.227 96.3036 232.955 96.003C233.682 95.7024 234.462 95.5479 235.249 95.5485H358.27C359.057 95.5479 359.837 95.7024 360.564 96.003C361.291 96.3037 361.951 96.7447 362.508 97.3007C363.064 97.8567 363.506 98.5169 363.806 99.2435C364.107 99.9702 364.262 100.749 364.261 101.535V150.932C364.262 151.719 364.107 152.498 363.806 153.225C363.506 153.952 363.064 154.612 362.508 155.169C361.952 155.725 361.291 156.166 360.564 156.468C359.837 156.769 359.058 156.924 358.27 156.924H235.249C233.659 156.924 232.134 156.292 231.009 155.169C229.885 154.045 229.253 152.521 229.253 150.932ZM241.239 144.941H352.275V107.526H241.239V144.941ZM283.58 209.634H153.964C152.374 209.634 150.849 210.265 149.725 211.389C148.6 212.512 147.969 214.036 147.969 215.625C147.969 217.214 148.6 218.738 149.725 219.861C150.849 220.985 152.374 221.616 153.964 221.616H283.58C285.17 221.616 286.695 220.985 287.819 219.861C288.944 218.738 289.575 217.214 289.575 215.625C289.575 214.036 288.944 212.512 287.819 211.389C286.695 210.265 285.17 209.634 283.58 209.634ZM283.58 259.031H153.964C152.403 259.074 150.92 259.724 149.831 260.842C148.742 261.96 148.133 263.459 148.133 265.02C148.133 266.58 148.742 268.079 149.831 269.198C150.92 270.316 152.403 270.966 153.964 271.009H283.58C285.141 270.966 286.624 270.316 287.713 269.198C288.802 268.079 289.411 266.58 289.411 265.02C289.411 263.459 288.802 261.96 287.713 260.842C286.624 259.724 285.141 259.074 283.58 259.031ZM283.58 308.424H153.964C152.374 308.424 150.849 309.055 149.725 310.178C148.6 311.302 147.969 312.826 147.969 314.415C147.969 316.004 148.6 317.528 149.725 318.651C150.849 319.775 152.374 320.406 153.964 320.406H283.58C285.17 320.406 286.695 319.775 287.819 318.651C288.944 317.528 289.575 316.004 289.575 314.415C289.575 312.826 288.944 311.302 287.819 310.178C286.695 309.055 285.17 308.424 283.58 308.424ZM283.58 357.821H153.964C152.403 357.864 150.92 358.513 149.831 359.632C148.742 360.75 148.133 362.249 148.133 363.81C148.133 365.37 148.742 366.869 149.831 367.988C150.92 369.106 152.403 369.756 153.964 369.799H283.58C285.141 369.756 286.624 369.106 287.713 367.988C288.802 366.869 289.411 365.37 289.411 363.81C289.411 362.249 288.802 360.75 287.713 359.632C286.624 358.513 285.141 357.864 283.58 357.821ZM358.27 209.634H315.43C313.84 209.634 312.315 210.265 311.191 211.389C310.066 212.512 309.435 214.036 309.435 215.625C309.435 217.214 310.066 218.738 311.191 219.861C312.315 220.985 313.84 221.616 315.43 221.616H358.27C359.86 221.616 361.385 220.985 362.51 219.861C363.634 218.738 364.266 217.214 364.266 215.625C364.266 214.036 363.634 212.512 362.51 211.389C361.385 210.265 359.86 209.634 358.27 209.634ZM358.27 259.031H315.43C313.869 259.074 312.386 259.724 311.297 260.842C310.208 261.96 309.599 263.459 309.599 265.02C309.599 266.58 310.208 268.079 311.297 269.198C312.386 270.316 313.869 270.966 315.43 271.009H358.27C359.831 270.966 361.314 270.316 362.403 269.198C363.492 268.079 364.101 266.58 364.101 265.02C364.101 263.459 363.492 261.96 362.403 260.842C361.314 259.724 359.831 259.074 358.27 259.031ZM364.261 314.397C364.262 313.61 364.107 312.831 363.806 312.104C363.506 311.378 363.064 310.717 362.508 310.161C361.952 309.604 361.291 309.163 360.564 308.862C359.837 308.561 359.058 308.406 358.27 308.406H315.43C313.84 308.406 312.315 309.037 311.191 310.16C310.066 311.284 309.435 312.808 309.435 314.397C309.435 315.986 310.066 317.51 311.191 318.633C312.315 319.757 313.84 320.388 315.43 320.388H358.27C359.857 320.388 361.379 319.759 362.502 318.639C363.625 317.52 364.258 316 364.261 314.415V314.397Z" fill="black"></path>
</svg></defs><use href="#svg920941551_11016"></use></svg>