<svg xmlns:xlink="http://www.w3.org/1999/xlink" width="26" height="26" viewBox="0 0 26 26" fill="none" xmlns="http://www.w3.org/2000/svg" id="svg-946052769_11154">
<g filter="url(#svg-946052769_11154_filter0_dddd_194_610)" fill="none">
<g clip-path="url(#svg-946052769_11154_clip0_194_610)" fill="none">
<path d="M0.28125 0.851562H25.2812V9.18652H0.28125V0.851562Z" fill="#FF9933"></path>
<path d="M0.28125 9.18652H25.2812V17.5166H0.28125V9.18652Z" fill="#FFFFFF"></path>
<path d="M0.28125 17.5166H25.2812V25.8516H0.28125V17.5166Z" fill="#128807"></path>
<path d="M12.7813 16.685C14.6223 16.685 16.1147 15.1926 16.1147 13.3516C16.1147 11.5107 14.6223 10.0183 12.7813 10.0183C10.9404 10.0183 9.448 11.5107 9.448 13.3516C9.448 15.1926 10.9404 16.685 12.7813 16.685Z" fill="#000088"></path>
<path d="M12.7814 16.2684C14.3922 16.2684 15.6981 14.9626 15.6981 13.3517C15.6981 11.7409 14.3922 10.4351 12.7814 10.4351C11.1706 10.4351 9.86475 11.7409 9.86475 13.3517C9.86475 14.9626 11.1706 16.2684 12.7814 16.2684Z" fill="#FFFFFF"></path>
<path d="M12.7813 13.935C13.1035 13.935 13.3647 13.6738 13.3647 13.3516C13.3647 13.0295 13.1035 12.7683 12.7813 12.7683C12.4592 12.7683 12.198 13.0295 12.198 13.3516C12.198 13.6738 12.4592 13.935 12.7813 13.935Z" fill="#000088"></path>
<path d="M15.6533 13.8822C15.7354 13.893 15.8107 13.8352 15.8216 13.7531C15.8324 13.6709 15.7746 13.5956 15.6924 13.5848C15.6103 13.574 15.5349 13.6318 15.5241 13.7139C15.5133 13.796 15.5711 13.8714 15.6533 13.8822Z" fill="#000088"></path>
<path d="M12.7812 16.2684L12.8812 14.5184L12.7812 13.6851L12.6812 14.5184L12.7812 16.2684Z" fill="#000088"></path>
<path d="M15.4181 14.6075C15.4946 14.6392 15.5823 14.6029 15.614 14.5263C15.6458 14.4498 15.6094 14.3621 15.5329 14.3304C15.4563 14.2986 15.3686 14.335 15.3369 14.4115C15.3052 14.4881 15.3415 14.5758 15.4181 14.6075Z" fill="#000088"></path>
<path d="M12.0264 16.1689L12.5759 14.5044L12.695 13.6736L12.3827 14.4526L12.0264 16.1689Z" fill="#000088"></path>
<path d="M15.0033 15.247C15.069 15.2975 15.1632 15.2851 15.2136 15.2194C15.264 15.1536 15.2516 15.0595 15.1859 15.009C15.1202 14.9586 15.026 14.971 14.9756 15.0367C14.9251 15.1025 14.9375 15.1966 15.0033 15.247Z" fill="#000088"></path>
<path d="M11.323 15.8776L12.2846 14.412L12.6147 13.6403L12.1114 14.312L11.323 15.8776Z" fill="#000088"></path>
<path d="M14.437 15.7577C14.4875 15.8234 14.5816 15.8358 14.6474 15.7854C14.7131 15.7349 14.7255 15.6408 14.6751 15.5751C14.6246 15.5093 14.5305 15.4969 14.4647 15.5474C14.399 15.5978 14.3866 15.692 14.437 15.7577Z" fill="#000088"></path>
<path d="M10.7189 15.414L12.027 14.2473L12.5456 13.5873L11.8856 14.1059L10.7189 15.414Z" fill="#000088"></path>
<path d="M13.7575 16.1042C13.7892 16.1808 13.877 16.2171 13.9535 16.1854C14.0301 16.1537 14.0664 16.0659 14.0347 15.9894C14.003 15.9129 13.9152 15.8765 13.8387 15.9082C13.7622 15.9399 13.7258 16.0277 13.7575 16.1042Z" fill="#000088"></path>
<path d="M10.2552 14.8099L11.8207 14.0215L12.4924 13.5182L11.7207 13.8483L10.2552 14.8099Z" fill="#000088"></path>
<path d="M13.0122 16.2631C13.023 16.3452 13.0983 16.403 13.1805 16.3922C13.2626 16.3814 13.3204 16.306 13.3096 16.2239C13.2988 16.1418 13.2235 16.084 13.1413 16.0948C13.0592 16.1056 13.0014 16.1809 13.0122 16.2631Z" fill="#000088"></path>
<path d="M9.96393 14.1065L11.6802 13.7502L12.4592 13.4379L11.6284 13.557L9.96393 14.1065Z" fill="#000088"></path>
<path d="M12.2506 16.2238C12.2398 16.306 12.2976 16.3813 12.3798 16.3921C12.4619 16.4029 12.5372 16.3451 12.548 16.263C12.5589 16.1808 12.501 16.1055 12.4189 16.0947C12.3368 16.0839 12.2614 16.1417 12.2506 16.2238Z" fill="#000088"></path>
<path d="M9.86442 13.3517L11.6144 13.4517L12.4478 13.3517L11.6144 13.2517L9.86442 13.3517Z" fill="#000088"></path>
<path d="M11.5253 15.9886C11.4936 16.0652 11.5299 16.1529 11.6065 16.1846C11.683 16.2163 11.7708 16.18 11.8025 16.1034C11.8342 16.0269 11.7978 15.9391 11.7213 15.9074C11.6447 15.8757 11.557 15.9121 11.5253 15.9886Z" fill="#000088"></path>
<path d="M9.96392 12.5969L11.6284 13.1464L12.4592 13.2655L11.6802 12.9533L9.96392 12.5969Z" fill="#000088"></path>
<path d="M10.886 15.5736C10.8356 15.6393 10.848 15.7335 10.9137 15.7839C10.9794 15.8343 11.0736 15.8219 11.124 15.7562C11.1744 15.6905 11.1621 15.5963 11.0963 15.5459C11.0306 15.4955 10.9364 15.5079 10.886 15.5736Z" fill="#000088"></path>
<path d="M10.2555 11.8933L11.721 12.8549L12.4927 13.185L11.821 12.6817L10.2555 11.8933Z" fill="#000088"></path>
<path d="M10.3754 15.0074C10.3096 15.0578 10.2973 15.152 10.3477 15.2177C10.3981 15.2834 10.4923 15.2958 10.558 15.2454C10.6237 15.1949 10.6361 15.1008 10.5857 15.035C10.5353 14.9693 10.4411 14.9569 10.3754 15.0074Z" fill="#000088"></path>
<path d="M10.7191 11.2892L11.8858 12.5973L12.5457 13.1159L12.0272 12.4559L10.7191 11.2892Z" fill="#000088"></path>
<path d="M10.0288 14.3281C9.9523 14.3598 9.91596 14.4475 9.94766 14.5241C9.97936 14.6006 10.0671 14.637 10.1436 14.6053C10.2202 14.5736 10.2565 14.4858 10.2248 14.4093C10.1931 14.3327 10.1054 14.2964 10.0288 14.3281Z" fill="#000088"></path>
<path d="M11.3231 10.8257L12.1115 12.3913L12.6148 13.0629L12.2847 12.2913L11.3231 10.8257Z" fill="#000088"></path>
<path d="M9.86999 13.5827C9.78785 13.5936 9.73004 13.6689 9.74085 13.751C9.75166 13.8332 9.82701 13.891 9.90914 13.8802C9.99128 13.8694 10.0491 13.794 10.0383 13.7119C10.0275 13.6297 9.95212 13.5719 9.86999 13.5827Z" fill="#000088"></path>
<path d="M12.0265 10.5345L12.3829 12.2507L12.6952 13.0298L12.5761 12.199L12.0265 10.5345Z" fill="#000088"></path>
<path d="M9.90924 12.8209C9.82711 12.8101 9.75176 12.8679 9.74094 12.9501C9.73013 13.0322 9.78795 13.1075 9.87008 13.1184C9.95222 13.1292 10.0276 13.0714 10.0384 12.9892C10.0492 12.9071 9.99137 12.8317 9.90924 12.8209Z" fill="#000088"></path>
<path d="M12.7813 10.4347L12.6813 12.1847L12.7813 13.0181L12.8813 12.1847L12.7813 10.4347Z" fill="#000088"></path>
<path d="M10.1444 12.0956C10.0679 12.0639 9.98015 12.1003 9.94845 12.1768C9.91675 12.2533 9.95309 12.3411 10.0296 12.3728C10.1062 12.4045 10.1939 12.3681 10.2256 12.2916C10.2573 12.2151 10.221 12.1273 10.1444 12.0956Z" fill="#000088"></path>
<path d="M13.5361 10.5342L12.9866 12.1987L12.8675 13.0295L13.1798 12.2505L13.5361 10.5342Z" fill="#000088"></path>
<path d="M10.5592 11.4561C10.4935 11.4056 10.3993 11.418 10.3489 11.4838C10.2985 11.5495 10.3109 11.6437 10.3766 11.6941C10.4423 11.7445 10.5365 11.7321 10.5869 11.6664C10.6374 11.6007 10.625 11.5065 10.5592 11.4561Z" fill="#000088"></path>
<path d="M14.2395 10.8256L13.2779 12.2911L12.9478 13.0628L13.4511 12.3911L14.2395 10.8256Z" fill="#000088"></path>
<path d="M11.1255 10.9454C11.075 10.8797 10.9809 10.8673 10.9151 10.9178C10.8494 10.9682 10.837 11.0623 10.8874 11.1281C10.9379 11.1938 11.032 11.2062 11.0978 11.1558C11.1635 11.1053 11.1759 11.0112 11.1255 10.9454Z" fill="#000088"></path>
<path d="M14.8436 11.2891L13.5355 12.4558L13.0169 13.1158L13.6769 12.5973L14.8436 11.2891Z" fill="#000088"></path>
<path d="M11.8052 10.5992C11.7735 10.5226 11.6858 10.4863 11.6092 10.518C11.5327 10.5497 11.4963 10.6374 11.528 10.714C11.5597 10.7905 11.6475 10.8268 11.724 10.7951C11.8006 10.7634 11.8369 10.6757 11.8052 10.5992Z" fill="#000088"></path>
<path d="M15.3076 11.8935L13.742 12.6819L13.0704 13.1851L13.842 12.8551L15.3076 11.8935Z" fill="#000088"></path>
<path d="M12.5506 10.4403C12.5397 10.3582 12.4644 10.3003 12.3823 10.3112C12.3001 10.322 12.2423 10.3973 12.2531 10.4795C12.2639 10.5616 12.3393 10.6194 12.4214 10.6086C12.5036 10.5978 12.5614 10.5224 12.5506 10.4403Z" fill="#000088"></path>
<path d="M15.5988 12.5969L13.8826 12.9532L13.1035 13.2655L13.9343 13.1464L15.5988 12.5969Z" fill="#000088"></path>
<path d="M13.3121 10.4796C13.3229 10.3974 13.2651 10.3221 13.183 10.3113C13.1009 10.3004 13.0255 10.3583 13.0147 10.4404C13.0039 10.5225 13.0617 10.5979 13.1438 10.6087C13.226 10.6195 13.3013 10.5617 13.3121 10.4796Z" fill="#000088"></path>
<path d="M15.6983 13.3517L13.9483 13.2517L13.115 13.3517L13.9483 13.4517L15.6983 13.3517Z" fill="#000088"></path>
<path d="M14.0374 10.7147C14.0691 10.6382 14.0328 10.5505 13.9563 10.5188C13.8797 10.4871 13.792 10.5234 13.7603 10.5999C13.7286 10.6765 13.7649 10.7642 13.8415 10.7959C13.918 10.8276 14.0057 10.7913 14.0374 10.7147Z" fill="#000088"></path>
<path d="M15.5988 14.1064L13.9343 13.5569L13.1035 13.4378L13.8826 13.7501L15.5988 14.1064Z" fill="#000088"></path>
<path d="M14.6767 11.1298C14.7272 11.0641 14.7148 10.9699 14.649 10.9195C14.5833 10.869 14.4892 10.8814 14.4387 10.9472C14.3883 11.0129 14.4007 11.107 14.4664 11.1575C14.5321 11.2079 14.6263 11.1955 14.6767 11.1298Z" fill="#000088"></path>
<path d="M15.3072 14.81L13.8417 13.8484L13.07 13.5184L13.7417 14.0216L15.3072 14.81Z" fill="#000088"></path>
<path d="M15.1874 11.696C15.2531 11.6456 15.2655 11.5514 15.2151 11.4857C15.1646 11.42 15.0705 11.4076 15.0047 11.458C14.939 11.5084 14.9266 11.6026 14.9771 11.6683C15.0275 11.734 15.1216 11.7464 15.1874 11.696Z" fill="#000088"></path>
<path d="M14.8437 15.4142L13.677 14.106L13.017 13.5875L13.5355 14.2475L14.8437 15.4142Z" fill="#000088"></path>
<path d="M15.5339 12.3753C15.6104 12.3436 15.6468 12.2558 15.6151 12.1793C15.5834 12.1028 15.4956 12.0664 15.4191 12.0981C15.3426 12.1298 15.3062 12.2176 15.3379 12.2941C15.3696 12.3706 15.4574 12.407 15.5339 12.3753Z" fill="#000088"></path>
<path d="M14.2396 15.8777L13.4512 14.3121L12.9479 13.6404L13.278 14.4121L14.2396 15.8777Z" fill="#000088"></path>
<path d="M15.6928 13.1206C15.7749 13.1098 15.8327 13.0345 15.8219 12.9523C15.8111 12.8702 15.7357 12.8124 15.6536 12.8232C15.5715 12.834 15.5136 12.9094 15.5245 12.9915C15.5353 13.0736 15.6106 13.1314 15.6928 13.1206Z" fill="#000088"></path>
<path d="M13.5362 16.1689L13.1799 14.4526L12.8676 13.6736L12.9867 14.5044L13.5362 16.1689Z" fill="#000088"></path>
</g>
</g>
<defs>
<filter id="svg-946052769_11154_filter0_dddd_194_610" x="-3.71875" y="-0.148438" width="33" height="41" filterUnits="userSpaceOnUse" color-interpolation-filters="sRGB">
<feFlood flood-opacity="0" result="BackgroundImageFix"></feFlood>
<feColorMatrix in="SourceAlpha" type="matrix" values="0 0 0 0 0 0 0 0 0 0 0 0 0 0 0 0 0 0 127 0" result="hardAlpha"></feColorMatrix>
<feOffset dy="1"></feOffset>
<feGaussianBlur stdDeviation="1"></feGaussianBlur>
<feColorMatrix type="matrix" values="0 0 0 0 0 0 0 0 0 0 0 0 0 0 0 0 0 0 0.2 0"></feColorMatrix>
<feBlend mode="normal" in2="BackgroundImageFix" result="effect1_dropShadow_194_610"></feBlend>
<feColorMatrix in="SourceAlpha" type="matrix" values="0 0 0 0 0 0 0 0 0 0 0 0 0 0 0 0 0 0 127 0" result="hardAlpha"></feColorMatrix>
<feOffset dy="3"></feOffset>
<feGaussianBlur stdDeviation="1.5"></feGaussianBlur>
<feColorMatrix type="matrix" values="0 0 0 0 0 0 0 0 0 0 0 0 0 0 0 0 0 0 0.17 0"></feColorMatrix>
<feBlend mode="normal" in2="effect1_dropShadow_194_610" result="effect2_dropShadow_194_610"></feBlend>
<feColorMatrix in="SourceAlpha" type="matrix" values="0 0 0 0 0 0 0 0 0 0 0 0 0 0 0 0 0 0 127 0" result="hardAlpha"></feColorMatrix>
<feOffset dy="6"></feOffset>
<feGaussianBlur stdDeviation="2"></feGaussianBlur>
<feColorMatrix type="matrix" values="0 0 0 0 0 0 0 0 0 0 0 0 0 0 0 0 0 0 0.1 0"></feColorMatrix>
<feBlend mode="normal" in2="effect2_dropShadow_194_610" result="effect3_dropShadow_194_610"></feBlend>
<feColorMatrix in="SourceAlpha" type="matrix" values="0 0 0 0 0 0 0 0 0 0 0 0 0 0 0 0 0 0 127 0" result="hardAlpha"></feColorMatrix>
<feOffset dy="11"></feOffset>
<feGaussianBlur stdDeviation="2"></feGaussianBlur>
<feColorMatrix type="matrix" values="0 0 0 0 0 0 0 0 0 0 0 0 0 0 0 0 0 0 0.03 0"></feColorMatrix>
<feBlend mode="normal" in2="effect3_dropShadow_194_610" result="effect4_dropShadow_194_610"></feBlend>
<feBlend mode="normal" in="SourceGraphic" in2="effect4_dropShadow_194_610" result="shape"></feBlend>
</filter>
<clipPath id="svg-946052769_11154_clip0_194_610">
<rect x="0.28125" y="0.851562" width="25" height="25" rx="12.5" fill="white"></rect>
</clipPath>
</defs>
</svg>