<svg xmlns="http://www.w3.org/2000/svg" xmlns:xlink="http://www.w3.org/1999/xlink" style="width: 100%; height: 100%" viewBox="0 0 512 512" preserveAspectRatio="none" width="512" height="512"><defs><svg width="512" height="512" viewBox="0 0 512 512" fill="none" xmlns="http://www.w3.org/2000/svg" id="svg-616612543_3422">
<path d="M286.013 308.895C287.057 313.916 287.605 319.119 287.605 324.451V410.648H310.423C317.423 410.648 323.099 416.323 323.099 423.324C323.099 430.325 317.423 436 310.423 436H112.676C105.675 436 100 430.325 100 423.324C100 416.323 105.675 410.648 112.676 410.648H135.493V324.451C135.493 294.346 152.984 268.327 178.357 256C152.984 243.673 135.493 217.654 135.493 187.549V101.352H112.676C105.675 101.352 100 95.6768 100 88.676C100 81.6752 105.675 76 112.676 76H310.423C317.423 76 323.099 81.6752 323.099 88.676C323.099 95.6768 317.423 101.352 310.423 101.352H287.605V119.329C296.517 116.514 305.978 115 315.782 115C368.922 115 412 159.49 412 214.371C412 269.252 368.922 313.742 315.782 313.742C305.392 313.742 295.387 312.041 286.013 308.895ZM233.208 163.332C240.524 150.734 250.466 139.949 262.253 131.784V101.352H160.845V162.197C160.845 175.374 186.129 144.081 207.074 152.704C215.969 156.366 225.049 160.282 233.208 163.332ZM206.025 274.044C180.621 276.797 160.845 298.314 160.845 324.451V410.648C170.633 389.853 184.22 378.196 201.606 375.676L206.025 274.044ZM217.073 274.044L221.535 376.653C237.146 380.516 250.719 391.848 262.253 410.648V324.451C262.253 298.314 242.478 276.797 217.073 274.044ZM315.782 304.708C364.091 304.708 403.253 264.263 403.253 214.371C403.253 164.479 364.091 124.034 315.782 124.034C267.473 124.034 228.311 164.479 228.311 214.371C228.311 264.263 267.473 304.708 315.782 304.708ZM351.957 230.949C351.957 237.596 349.649 243.342 345.035 248.187C340.421 253.032 333.733 256.136 324.971 257.497V263.624C324.971 267.605 321.846 270.832 317.991 270.832C314.137 270.832 311.013 267.605 311.013 263.624V257.978C305.197 257.577 299.691 256.556 294.495 254.914C291.263 253.893 288.375 252.724 285.833 251.408C283.385 250.14 282.334 247.109 283.448 244.525C283.486 244.438 283.521 244.356 283.554 244.277L287.337 235.503C288.231 233.431 290.581 232.499 292.587 233.422C292.677 233.463 292.765 233.508 292.852 233.556C293.053 233.668 293.242 233.77 293.417 233.861C295.988 235.204 298.79 236.355 301.824 237.316C306.632 238.837 311.362 239.598 316.015 239.598C324.855 239.598 329.274 237.316 329.274 232.751C329.274 230.348 328.015 228.566 325.494 227.405C322.974 226.244 318.922 225.022 313.339 223.741C307.213 222.379 302.095 220.918 297.985 219.356C293.875 217.795 290.347 215.292 287.4 211.848C284.454 208.404 282.98 203.759 282.98 197.913C282.98 191.026 285.384 185.119 290.192 180.194C294.999 175.269 301.94 172.246 311.013 171.124V165.118C311.013 161.137 314.137 157.91 317.991 157.91C321.846 157.91 324.971 161.137 324.971 165.118V170.884C329.391 171.284 333.636 172.085 337.708 173.287C340.577 174.133 343.225 175.159 345.651 176.364C345.854 176.464 346.083 176.583 346.339 176.719C347.618 177.399 348.179 178.979 347.627 180.352L342.347 193.492C341.91 194.58 340.702 195.095 339.649 194.644C339.603 194.624 339.557 194.603 339.512 194.579C339.125 194.378 338.796 194.211 338.523 194.077C331.813 190.788 325.279 189.144 318.922 189.144C314.347 189.144 311.013 189.845 308.919 191.246C306.825 192.648 305.778 194.469 305.778 196.712C305.778 198.954 307.019 200.636 309.5 201.757C311.982 202.879 315.976 204.04 321.481 205.241C327.685 206.603 332.823 208.064 336.894 209.626C340.965 211.187 344.493 213.67 347.479 217.074C350.464 220.477 351.957 225.102 351.957 230.949Z" fill="black"></path>
</svg></defs><use href="#svg-616612543_3422"></use></svg>