<svg xmlns="http://www.w3.org/2000/svg" xmlns:xlink="http://www.w3.org/1999/xlink" style="width: 100%; height: 100%" viewBox="0 0 512 512" preserveAspectRatio="none" width="512" height="512"><defs><svg width="512" height="512" viewBox="0 0 512 512" fill="none" xmlns="http://www.w3.org/2000/svg" id="svg-1552505629_9570">
<path d="M208.571 445.783C206.475 445.783 204.464 446.616 202.982 448.098C201.499 449.581 200.667 451.591 200.667 453.688V477.402H184.857V350.926H192.762C194.858 350.926 196.869 350.093 198.351 348.611C199.834 347.128 200.667 345.118 200.667 343.021C200.667 340.925 199.834 338.914 198.351 337.432C196.869 335.949 194.858 335.116 192.762 335.116H176.952C170.663 335.116 164.631 332.618 160.184 328.171C155.737 323.723 153.238 317.692 153.238 311.402V216.545C165.758 221.779 179.192 224.474 192.762 224.474C206.332 224.474 219.766 221.779 232.286 216.545V271.878C232.286 273.975 233.119 275.985 234.601 277.468C236.083 278.95 238.094 279.783 240.19 279.783C242.287 279.783 244.298 278.95 245.78 277.468C247.262 275.985 248.095 273.975 248.095 271.878V208.142C266.824 196.175 281.167 178.458 288.975 157.648C296.782 136.839 297.633 114.06 291.399 92.7262C285.165 71.3928 272.182 52.6555 254.398 39.3247C236.614 25.9939 214.988 18.7881 192.762 18.7881C170.536 18.7881 148.91 25.9939 131.126 39.3247C113.342 52.6555 100.359 71.3928 94.1252 92.7262C87.8911 114.06 88.7416 136.839 96.5491 157.648C104.357 178.458 118.7 196.175 137.429 208.142V311.402C137.44 320.51 140.591 329.336 146.351 336.391C152.11 343.447 160.126 348.301 169.048 350.136V485.307C169.048 487.403 169.88 489.414 171.363 490.896C172.845 492.379 174.856 493.212 176.952 493.212H208.571C210.668 493.212 212.679 492.379 214.161 490.896C215.643 489.414 216.476 487.403 216.476 485.307V453.688C216.476 451.591 215.643 449.581 214.161 448.098C212.679 446.616 210.668 445.783 208.571 445.783ZM105.81 121.688C105.81 104.49 110.909 87.679 120.464 73.3798C130.018 59.0805 143.598 47.9356 159.487 41.3544C175.375 34.7732 192.858 33.0512 209.725 36.4063C226.593 39.7614 242.086 48.0428 254.247 60.2033C266.407 72.3638 274.688 87.8573 278.044 104.724C281.399 121.591 279.677 139.075 273.095 154.963C266.514 170.852 255.369 184.432 241.07 193.986C226.771 203.541 209.959 208.64 192.762 208.64C169.709 208.613 147.608 199.443 131.307 183.142C115.006 166.842 105.837 144.741 105.81 121.688Z" fill="black"></path>
<path d="M311.333 271.879C289.445 271.879 268.049 278.369 249.85 290.53C231.651 302.69 217.466 319.974 209.09 340.195C200.714 360.417 198.522 382.668 202.792 404.136C207.063 425.603 217.603 445.322 233.08 460.799C248.557 476.276 268.275 486.816 289.743 491.086C311.21 495.356 333.461 493.164 353.683 484.788C373.905 476.412 391.188 462.228 403.349 444.029C415.509 425.83 421.999 404.433 421.999 382.546C421.968 353.205 410.298 325.074 389.551 304.327C368.804 283.58 340.674 271.91 311.333 271.879ZM311.333 477.403C292.572 477.403 274.232 471.839 258.633 461.416C243.034 450.993 230.876 436.179 223.696 418.846C216.517 401.513 214.638 382.44 218.298 364.04C221.958 345.639 230.993 328.737 244.259 315.471C257.525 302.205 274.427 293.171 292.827 289.511C311.228 285.851 330.3 287.729 347.633 294.909C364.966 302.089 379.781 314.247 390.204 329.846C400.627 345.445 406.19 363.785 406.19 382.546C406.163 407.695 396.16 431.806 378.377 449.59C360.594 467.373 336.482 477.375 311.333 477.403Z" fill="black"></path>
<path d="M342.952 366.736H328.194L334.984 312.383C335.207 310.586 334.806 308.766 333.848 307.229C332.89 305.692 331.433 304.531 329.721 303.939C328.009 303.348 326.146 303.362 324.444 303.98C322.741 304.597 321.303 305.78 320.368 307.332L272.939 386.379C272.219 387.579 271.83 388.948 271.811 390.347C271.793 391.746 272.146 393.125 272.835 394.342C273.524 395.56 274.524 396.573 275.732 397.278C276.941 397.983 278.315 398.355 279.714 398.355H294.472L287.682 452.708C287.459 454.506 287.86 456.325 288.818 457.862C289.776 459.399 291.233 460.56 292.945 461.152C294.656 461.743 296.519 461.729 298.222 461.112C299.924 460.494 301.363 459.311 302.298 457.759L349.726 378.712C350.447 377.513 350.836 376.143 350.855 374.744C350.873 373.345 350.52 371.967 349.831 370.749C349.142 369.531 348.142 368.518 346.934 367.813C345.725 367.108 344.351 366.736 342.952 366.736ZM308.013 417.508L311.27 391.423C311.407 390.311 311.307 389.183 310.976 388.114C310.645 387.044 310.091 386.056 309.349 385.217C308.608 384.378 307.697 383.706 306.676 383.245C305.655 382.785 304.548 382.546 303.428 382.546H293.682L314.653 347.583L311.396 373.669C311.258 374.78 311.358 375.908 311.689 376.978C312.02 378.048 312.575 379.035 313.316 379.874C314.058 380.713 314.969 381.386 315.99 381.846C317.011 382.307 318.118 382.545 319.238 382.546H328.984L308.013 417.508Z" fill="black"></path>
<path d="M184.856 74.2592C184.856 69.569 183.466 64.9841 180.86 61.0843C178.254 57.1845 174.55 54.145 170.217 52.3501C165.884 50.5552 161.116 50.0856 156.516 51.0006C151.915 51.9156 147.69 54.1742 144.373 57.4907C141.057 60.8072 138.798 65.0327 137.883 69.6328C136.968 74.2329 137.438 79.0011 139.233 83.3343C141.028 87.6675 144.067 91.3712 147.967 93.9769C151.867 96.5827 156.452 97.9735 161.142 97.9735C167.431 97.9735 173.463 95.475 177.911 91.0277C182.358 86.5805 184.856 80.5486 184.856 74.2592ZM161.142 82.164C159.579 82.164 158.05 81.7004 156.75 80.8318C155.45 79.9632 154.437 78.7286 153.839 77.2842C153.241 75.8398 153.084 74.2504 153.389 72.7171C153.694 71.1837 154.447 69.7752 155.553 68.6697C156.658 67.5642 158.067 66.8113 159.6 66.5063C161.133 66.2013 162.723 66.3579 164.167 66.9562C165.611 67.5545 166.846 68.5676 167.715 69.8676C168.583 71.1675 169.047 72.6958 169.047 74.2592C169.047 76.3557 168.214 78.3663 166.732 79.8487C165.249 81.3312 163.239 82.164 161.142 82.164Z" fill="black"></path>
<path d="M216.475 169.117C216.475 164.426 215.085 159.841 212.479 155.942C209.873 152.042 206.169 149.002 201.836 147.207C197.503 145.413 192.735 144.943 188.135 145.858C183.535 146.773 179.309 149.032 175.993 152.348C172.676 155.665 170.418 159.89 169.503 164.49C168.588 169.09 169.057 173.858 170.852 178.192C172.647 182.525 175.686 186.229 179.586 188.834C183.486 191.44 188.071 192.831 192.761 192.831C199.051 192.831 205.082 190.332 209.53 185.885C213.977 181.438 216.475 175.406 216.475 169.117ZM184.856 169.117C184.856 167.553 185.32 166.025 186.189 164.725C187.057 163.425 188.292 162.412 189.736 161.814C191.181 161.215 192.77 161.059 194.303 161.364C195.837 161.669 197.245 162.422 198.351 163.527C199.456 164.633 200.209 166.041 200.514 167.574C200.819 169.108 200.663 170.697 200.064 172.142C199.466 173.586 198.453 174.821 197.153 175.689C195.853 176.558 194.325 177.021 192.761 177.021C190.665 177.021 188.654 176.189 187.172 174.706C185.689 173.224 184.856 171.213 184.856 169.117Z" fill="black"></path>
<path d="M141.381 113.783C137.473 113.783 133.652 114.942 130.402 117.114C127.152 119.285 124.619 122.372 123.123 125.983C121.628 129.594 121.236 133.567 121.999 137.4C122.761 141.234 124.644 144.755 127.407 147.519C130.171 150.283 133.692 152.165 137.526 152.927C141.359 153.69 145.333 153.298 148.944 151.803C152.555 150.307 155.641 147.774 157.812 144.524C159.984 141.274 161.143 137.454 161.143 133.545C161.143 128.304 159.061 123.277 155.355 119.571C151.649 115.865 146.622 113.783 141.381 113.783ZM141.381 137.497C140.599 137.497 139.835 137.266 139.185 136.831C138.535 136.397 138.029 135.78 137.73 135.058C137.43 134.335 137.352 133.541 137.505 132.774C137.657 132.007 138.034 131.303 138.586 130.75C139.139 130.198 139.843 129.821 140.61 129.669C141.377 129.516 142.171 129.594 142.894 129.894C143.616 130.193 144.233 130.699 144.667 131.349C145.102 131.999 145.333 132.763 145.333 133.545C145.333 134.593 144.917 135.599 144.176 136.34C143.435 137.081 142.429 137.497 141.381 137.497Z" fill="black"></path>
<path d="M224.381 133.545C224.381 137.454 225.54 141.274 227.711 144.524C229.883 147.774 232.969 150.307 236.58 151.803C240.191 153.298 244.165 153.69 247.998 152.927C251.832 152.165 255.353 150.283 258.117 147.519C260.88 144.755 262.762 141.234 263.525 137.4C264.287 133.567 263.896 129.594 262.4 125.983C260.905 122.372 258.372 119.285 255.122 117.114C251.872 114.942 248.051 113.783 244.143 113.783C238.902 113.783 233.875 115.865 230.169 119.571C226.463 123.277 224.381 128.304 224.381 133.545ZM248.095 133.545C248.095 134.327 247.863 135.091 247.429 135.741C246.995 136.391 246.377 136.897 245.655 137.197C244.933 137.496 244.138 137.574 243.372 137.422C242.605 137.269 241.901 136.893 241.348 136.34C240.795 135.787 240.419 135.083 240.266 134.316C240.114 133.549 240.192 132.755 240.491 132.033C240.79 131.31 241.297 130.693 241.947 130.259C242.597 129.825 243.361 129.593 244.143 129.593C245.191 129.593 246.196 130.009 246.938 130.75C247.679 131.492 248.095 132.497 248.095 133.545Z" fill="black"></path>
<path d="M224.38 97.9735C229.071 97.9735 233.655 96.5827 237.555 93.9769C241.455 91.3712 244.495 87.6675 246.289 83.3343C248.084 79.0011 248.554 74.2329 247.639 69.6328C246.724 65.0327 244.465 60.8072 241.149 57.4907C237.832 54.1742 233.607 51.9156 229.007 51.0006C224.407 50.0856 219.638 50.5552 215.305 52.3501C210.972 54.145 207.268 57.1845 204.663 61.0843C202.057 64.9841 200.666 69.569 200.666 74.2592C200.666 80.5486 203.164 86.5805 207.612 91.0277C212.059 95.475 218.091 97.9735 224.38 97.9735ZM224.38 66.3545C225.944 66.3545 227.472 66.8181 228.772 67.6866C230.072 68.5552 231.085 69.7898 231.683 71.2342C232.282 72.6786 232.438 74.268 232.133 75.8014C231.828 77.3347 231.075 78.7432 229.97 79.8487C228.864 80.9542 227.456 81.7071 225.922 82.0121C224.389 82.3171 222.8 82.1606 221.355 81.5623C219.911 80.964 218.676 79.9508 217.808 78.6509C216.939 77.3509 216.476 75.8226 216.476 74.2592C216.476 72.1627 217.308 70.1521 218.791 68.6697C220.273 67.1873 222.284 66.3545 224.38 66.3545Z" fill="black"></path>
</svg></defs><use href="#svg-1552505629_9570"></use></svg>