<svg xmlns:xlink="http://www.w3.org/1999/xlink" width="135" height="28" viewBox="0 0 135 28" fill="none" xmlns="http://www.w3.org/2000/svg" id="svg-1640786208_25530">
<g clip-path="url(#svg-1640786208_25530_clip0_194_1164)" fill="none">
<path d="M0 26.6085L0.734711 21.5425H5.71512L5.63338 22.1566H1.71642L1.55295 23.6404H4.81694L4.7361 24.2551H1.46942L1.22422 25.995H5.06214L4.98041 26.6085H0Z" fill="#FFFFFF"></path>
<path d="M7.18457 26.6096L7.75581 22.7718H8.73573L8.65399 23.3347C8.99437 23.1693 9.34877 23.0156 9.71564 22.8742C10.0599 22.7423 10.4547 22.6713 10.8581 22.6688C11.0865 22.6551 11.3168 22.6758 11.5298 22.7293C11.7428 22.7827 11.9323 22.8674 12.0823 22.9761C12.3623 23.3051 12.4488 23.6853 12.3267 24.0501L12.0006 26.6096H11.0207L11.3476 24.358C11.4354 24.1223 11.4354 23.8772 11.3476 23.6415C11.2851 23.549 11.2029 23.4623 11.1033 23.3837C10.93 23.3195 10.7333 23.2843 10.5321 23.2812C10.2053 23.2872 9.89034 23.3591 9.63391 23.4861C9.24387 23.604 8.88566 23.7593 8.57226 23.9466L8.16089 26.6096H7.18457Z" fill="#FFFFFF"></path>
<path d="M14.4526 24.6642C14.4974 24.123 14.8115 23.6041 15.3508 23.1805C15.5826 23.0124 15.8718 22.8791 16.1969 22.7906C16.522 22.702 16.8747 22.6604 17.2289 22.6688C17.8357 22.6724 18.4184 22.8184 18.8618 23.078L18.9435 22.7707H19.8417L19.3513 26.5072C19.3447 26.9274 19.0818 27.3302 18.6166 27.6329C18.0323 27.9091 17.3032 28.037 16.575 27.9909C15.7982 28.0201 15.0265 27.8948 14.37 27.6329L14.7814 27.1213C15.3077 27.3526 15.9348 27.477 16.5777 27.4776C17.0373 27.5023 17.4969 27.4302 17.8837 27.2727C18.1579 27.07 18.3288 26.8204 18.3741 26.5561L18.4558 26.0957C18.1886 26.2441 17.8854 26.3649 17.5576 26.4537C17.2289 26.5582 16.8645 26.6107 16.496 26.6068C16.1744 26.6259 15.8507 26.5881 15.5616 26.4977C15.2725 26.4074 15.0296 26.2681 14.8604 26.0957C14.4523 25.6648 14.3062 25.1561 14.449 24.6631M15.429 24.6119C15.3068 24.9768 15.3933 25.3569 15.6733 25.6859C15.7893 25.7959 15.947 25.8861 16.1322 25.9486C16.3175 26.0111 16.5245 26.0438 16.7349 26.0439C17.061 26.0359 17.3811 25.9864 17.6757 25.8984C17.9703 25.8105 18.2333 25.6859 18.4486 25.5322L18.6983 23.6398C18.2775 23.3901 17.7262 23.2449 17.1472 23.2311C16.9123 23.2251 16.6785 23.2544 16.4655 23.3167C16.2525 23.379 16.0664 23.4724 15.9229 23.5891C15.6399 23.9031 15.4723 24.2527 15.4325 24.6125" fill="#FFFFFF"></path>
<path d="M22.2883 21.7991C22.2921 21.6887 22.3491 21.5816 22.4518 21.4918C22.5931 21.4253 22.765 21.3894 22.9417 21.3894C23.1184 21.3894 23.2903 21.4253 23.4317 21.4918C23.4911 21.5326 23.5304 21.5834 23.5449 21.6379C23.5594 21.6924 23.5484 21.7484 23.5134 21.7991C23.5246 21.911 23.4659 22.0212 23.3499 22.1065C23.2682 22.1577 23.1056 22.1577 22.8595 22.1577C22.6811 22.1647 22.5052 22.1279 22.3691 22.0552C22.3338 21.9704 22.3065 21.8843 22.2874 21.7974M21.797 26.6079L22.3682 22.7701H23.3482L22.7769 26.6079H21.797Z" fill="#FFFFFF"></path>
<path d="M25.2299 26.6097L25.8011 22.7719H26.781L26.6993 23.3347C27.0397 23.1694 27.3941 23.0157 27.7609 22.8743C28.1051 22.7424 28.5 22.6714 28.9034 22.6688C29.1319 22.655 29.3624 22.6757 29.5756 22.7292C29.7887 22.7826 29.9783 22.8673 30.1285 22.9762C30.3029 23.13 30.4223 23.3055 30.4787 23.4909C30.5352 23.6762 30.5272 23.8669 30.4555 24.0502L30.1285 26.6097H29.1486L29.4756 24.3581C29.5633 24.1224 29.5633 23.8772 29.4756 23.6415C29.413 23.5491 29.3308 23.4624 29.2312 23.3837C29.0579 23.3196 28.8612 23.2843 28.66 23.2813C28.3332 23.2872 28.0183 23.3591 27.7618 23.4862C27.3718 23.604 27.0136 23.7594 26.7002 23.9466L26.2879 26.6097H25.2299Z" fill="#FFFFFF"></path>
<path d="M32.4961 24.7161C32.4952 24.1537 32.8135 23.6094 33.3943 23.1805C33.6492 23.0024 33.9663 22.8635 34.3209 22.7746C34.6754 22.6858 35.0579 22.6494 35.4385 22.6683C35.755 22.6506 36.0738 22.6782 36.3707 22.7491C36.6676 22.82 36.9349 22.9323 37.1523 23.0775C37.5326 23.4777 37.6781 23.9485 37.5636 24.4088L37.4819 24.7668H33.476C33.3539 25.1317 33.4404 25.5118 33.7203 25.8408C33.8821 25.9544 34.0855 26.0417 34.3129 26.0952C34.5404 26.1487 34.7852 26.1669 35.0263 26.1481C35.2783 26.1386 35.5263 26.104 35.761 26.0457C36.0053 25.9944 36.1724 25.8408 36.414 25.6877L37.2304 25.995C36.9937 26.2043 36.6872 26.3789 36.3322 26.5067C35.9006 26.6404 35.426 26.7105 34.9445 26.7116C34.5758 26.7356 34.2034 26.7014 33.8612 26.612C33.519 26.5226 33.218 26.3809 32.9856 26.1999C32.5307 25.7614 32.3565 25.2318 32.4961 24.7161ZM33.6395 24.2579H36.6601C36.7229 23.9757 36.6371 23.6884 36.4158 23.4395C36.3009 23.3321 36.141 23.2466 35.9538 23.1924C35.7665 23.1382 35.559 23.1174 35.3541 23.1321C34.9364 23.1308 34.5314 23.2222 34.2107 23.3899C33.9096 23.6461 33.7134 23.9448 33.6395 24.2596" fill="#FFFFFF"></path>
<path d="M39.2738 24.7161C39.2729 24.1537 39.5913 23.6094 40.172 23.1805C40.427 23.0024 40.744 22.8635 41.0986 22.7746C41.4531 22.6858 41.8356 22.6494 42.2163 22.6683C42.5327 22.6506 42.8515 22.6782 43.1484 22.7491C43.4454 22.82 43.7126 22.9323 43.93 23.0775C44.3103 23.4777 44.4558 23.9485 44.3414 24.4088V24.7668H40.3355C40.2134 25.1317 40.2998 25.5118 40.5798 25.8408C40.7416 25.9544 40.9449 26.0417 41.1724 26.0952C41.3998 26.1488 41.6446 26.1669 41.8857 26.1481C42.137 26.139 42.3844 26.105 42.6187 26.0474C42.863 25.9961 43.03 25.8425 43.2716 25.6894L44.0881 25.9967C43.8514 26.206 43.5449 26.3806 43.1899 26.5084C42.7583 26.6421 42.2837 26.7122 41.8022 26.7133C41.4335 26.7373 41.061 26.7031 40.7188 26.6137C40.3767 26.5243 40.0756 26.3826 39.8433 26.2016C39.5852 25.994 39.4007 25.7542 39.3022 25.4983C39.2037 25.2425 39.1934 24.9764 39.272 24.7178M40.4154 24.2596H43.436C43.4988 23.9774 43.4131 23.6901 43.1917 23.4412C43.0768 23.3338 42.917 23.2483 42.7297 23.1941C42.5424 23.1399 42.335 23.119 42.13 23.1338C41.7123 23.1325 41.3073 23.2238 40.9867 23.3916C40.6855 23.6478 40.4893 23.9465 40.4154 24.2613" fill="#FFFFFF"></path>
<path d="M46.1323 26.6092L46.7036 22.7714H47.6835L47.6017 23.3855C47.8869 23.2001 48.2178 23.0447 48.5817 22.9251C48.8873 22.7812 49.2633 22.7086 49.6451 22.7196C49.8894 22.7196 50.1355 22.7196 50.2163 22.822L49.8894 23.4362C49.8077 23.3849 49.6451 23.3849 49.399 23.3849C49.0838 23.3875 48.7747 23.4402 48.5008 23.538C48.1239 23.6686 47.7693 23.8231 47.4428 23.9991L47.1158 26.6086L46.1323 26.6092Z" fill="#FFFFFF"></path>
<path d="M51.8457 21.7991C51.8495 21.6887 51.9065 21.5816 52.0091 21.4918C52.1505 21.4253 52.3224 21.3894 52.4991 21.3894C52.6758 21.3894 52.8477 21.4253 52.9891 21.4918C53.0484 21.5326 53.0877 21.5834 53.1022 21.6379C53.1167 21.6924 53.1058 21.7484 53.0708 21.7991C53.0819 21.911 53.0233 22.0212 52.9073 22.1065C52.8256 22.1577 52.663 22.1577 52.4169 22.1577C52.2384 22.1647 52.0626 22.1279 51.9265 22.0552C51.8912 21.9704 51.8639 21.8843 51.8448 21.7974M51.3544 26.6079L51.9256 22.7701H52.9055L52.3343 26.6079H51.3544Z" fill="#FFFFFF"></path>
<path d="M54.7872 26.6097L55.3585 22.7719H56.3384L56.2566 23.3347C56.597 23.1694 56.9514 23.0157 57.3183 22.8743C57.6625 22.7424 58.0573 22.6714 58.4608 22.6688C58.6893 22.655 58.9198 22.6757 59.133 22.7292C59.3461 22.7826 59.5357 22.8673 59.6859 22.9762C59.9658 23.3051 60.0523 23.6853 59.9302 24.0502L59.6033 26.6097H58.6234L58.9503 24.3581C59.0381 24.1224 59.0381 23.8772 58.9503 23.6415C58.8877 23.5491 58.8055 23.4624 58.706 23.3837C58.5326 23.3196 58.336 23.2843 58.1347 23.2813C57.808 23.2872 57.493 23.3591 57.2366 23.4862C56.8465 23.604 56.4883 23.7594 56.1749 23.9466L55.8471 26.6097H54.7872Z" fill="#FFFFFF"></path>
<path d="M62.0534 24.6642C62.0982 24.123 62.4123 23.6041 62.9516 23.1805C63.1834 23.0124 63.4726 22.8791 63.7977 22.7906C64.1228 22.702 64.4755 22.6604 64.8297 22.6688C65.4365 22.6724 66.0192 22.8184 66.4626 23.078L66.5443 22.7707H67.5242L67.0338 26.5072C67.0272 26.9274 66.7643 27.3302 66.2991 27.6329C65.7148 27.9091 64.9857 28.037 64.2576 27.9909C63.4807 28.0201 62.7091 27.8948 62.0525 27.6329L62.4639 27.1213C62.9903 27.3526 63.6173 27.477 64.2603 27.4776C64.7198 27.5023 65.1794 27.4302 65.5662 27.2727C65.8404 27.07 66.0112 26.8204 66.0566 26.5561L66.1383 26.0957C65.8711 26.2441 65.5679 26.3649 65.2402 26.4537C64.9115 26.5582 64.547 26.6107 64.1785 26.6068C63.8573 26.6255 63.5341 26.5875 63.2455 26.497C62.957 26.4066 62.7145 26.2674 62.5456 26.0951C62.1092 25.671 61.9348 25.1616 62.0552 24.6626M63.1169 24.6113C62.9947 24.9762 63.0812 25.3564 63.3612 25.6853C63.4772 25.7953 63.6349 25.8856 63.8201 25.948C64.0054 26.0105 64.2124 26.0433 64.4228 26.0433C64.7489 26.0353 65.069 25.9858 65.3636 25.8979C65.6582 25.8099 65.9212 25.6853 66.1365 25.5317L66.3809 23.6387C65.9602 23.3888 65.4088 23.2434 64.8297 23.2294C64.5947 23.2233 64.3607 23.2526 64.1476 23.3149C63.9344 23.3772 63.7482 23.4707 63.6046 23.5874C63.3215 23.9014 63.154 24.251 63.1142 24.6108" fill="#FFFFFF"></path>
<path d="M72.8316 25.6882L73.7298 25.3302C73.9046 25.5734 74.1938 25.7772 74.5587 25.9143C74.9237 26.0515 75.3468 26.1154 75.7713 26.0975C76.2567 26.1215 76.7419 26.0499 77.159 25.8926C77.3251 25.8259 77.4634 25.7354 77.5627 25.6287C77.6621 25.5219 77.7195 25.4019 77.7303 25.2785C77.7495 25.1567 77.7214 25.0339 77.6485 24.9205C77.5558 24.8106 77.4125 24.7208 77.2372 24.6627C77.0534 24.6024 76.8624 24.5512 76.6659 24.5095C76.4596 24.4516 76.2385 24.4169 76.013 24.4071C75.6016 24.3559 75.2783 24.254 74.9513 24.2022C74.6313 24.1478 74.3279 24.0607 74.0531 23.9444C73.8213 23.8331 73.6271 23.694 73.4819 23.5352C73.3361 23.3456 73.2794 23.134 73.3184 22.925C73.3338 22.721 73.414 22.5209 73.5541 22.3365C73.6943 22.1521 73.8917 21.987 74.1349 21.851C74.6946 21.6131 75.3456 21.4735 76.0205 21.4466C76.6954 21.4196 77.3695 21.5064 77.9728 21.6979C78.3783 21.8676 78.7131 22.0958 78.9491 22.3632L78.0509 22.7212C77.8978 22.5066 77.6407 22.3276 77.3162 22.2096C76.9743 22.0741 76.5774 22.0029 76.1728 22.0047C75.7388 21.9791 75.3046 22.0518 74.9486 22.2096C74.8019 22.2725 74.6809 22.3563 74.5957 22.4542C74.5105 22.552 74.4634 22.661 74.4582 22.7725C74.4582 22.8749 74.4582 23.0303 74.5399 23.0798C74.6042 23.1713 74.7208 23.2444 74.8669 23.2847C75.0506 23.345 75.2416 23.3962 75.4381 23.4378C75.6824 23.489 75.9285 23.5402 76.2546 23.5909C76.619 23.6356 76.9748 23.7043 77.3162 23.7958C77.6109 23.8503 77.8875 23.9376 78.1327 24.0536C78.3636 24.1525 78.5359 24.2963 78.6231 24.4628C78.7695 24.6718 78.8259 24.9012 78.7865 25.1282C78.7649 25.3434 78.6742 25.5537 78.5199 25.7465C78.3656 25.9392 78.1508 26.1105 77.8884 26.25C77.2409 26.5291 76.4689 26.6724 75.6833 26.6592C75.0602 26.6646 74.4442 26.5762 73.887 26.4014C73.3994 26.2569 73.0192 26.0003 72.8253 25.6849" fill="#FFFFFF"></path>
<path d="M80.7509 26.6085L81.3221 22.7707H82.302L82.2203 23.3336C82.511 23.1522 82.8409 22.9972 83.2002 22.8732C83.5111 22.736 83.8835 22.6643 84.2636 22.6683C84.6072 22.6575 84.9482 22.7108 85.2435 22.8214C85.3803 22.887 85.4893 22.9726 85.561 23.0707C85.6327 23.1689 85.665 23.2765 85.6549 23.3843C85.9673 23.1823 86.325 23.01 86.7166 22.8726C87.0512 22.729 87.4512 22.6573 87.8564 22.6683C88.1743 22.6568 88.4896 22.7106 88.7545 22.8214C88.9646 22.923 89.1103 23.068 89.1659 23.2306C89.2422 23.5006 89.2697 23.7752 89.2476 24.049L88.9207 26.6074H87.9462L88.2731 24.3558C88.3581 24.1028 88.3581 23.8416 88.2731 23.5886C88.2753 23.5356 88.2535 23.4832 88.2103 23.4376C88.1671 23.392 88.1042 23.355 88.0288 23.3308C87.9471 23.2796 87.7845 23.2796 87.5384 23.2796C87.2792 23.2981 87.029 23.3502 86.8037 23.4327C86.4213 23.5786 86.0653 23.7502 85.742 23.9443L85.3307 26.6564H84.3535L84.6804 24.4048C84.7682 24.1691 84.7682 23.9239 84.6804 23.6882C84.6826 23.6352 84.6608 23.5828 84.6176 23.5372C84.5744 23.4916 84.5114 23.4546 84.4361 23.4304C84.3 23.3577 84.1242 23.321 83.9457 23.328C83.6581 23.3379 83.3783 23.3904 83.1292 23.4811C82.7654 23.6007 82.4345 23.7562 82.1493 23.9415L81.738 26.6535L80.758 26.6023L80.7509 26.6085Z" fill="#FFFFFF"></path>
<path d="M91.0395 25.5346C91.0607 25.2994 91.1729 25.0711 91.3664 24.8692C91.5635 24.6827 91.8491 24.5395 92.1829 24.46C92.6273 24.3502 93.0947 24.2812 93.5705 24.2551L95.1217 24.1527V23.9478C95.1217 23.6404 95.04 23.4361 94.7948 23.3337C94.4734 23.217 94.1035 23.1637 93.7331 23.1805C93.3895 23.1698 93.0485 23.2231 92.7532 23.3337C92.5508 23.4084 92.3821 23.5142 92.2628 23.641L91.4464 23.3337C91.6851 23.1255 91.9911 22.9511 92.3445 22.822C92.8147 22.713 93.3137 22.661 93.8149 22.6689C94.4788 22.6317 95.1427 22.7404 95.6929 22.9762C95.8779 23.1172 96.0107 23.282 96.0818 23.459C96.153 23.6359 96.1606 23.8205 96.1043 23.9996L95.7774 26.6091H94.7975L94.8792 26.1487C94.572 26.3026 94.2442 26.4395 93.8993 26.5579C93.5706 26.6624 93.2061 26.715 92.8376 26.711C92.589 26.7281 92.3376 26.704 92.1085 26.6412C91.8793 26.5784 91.6804 26.479 91.5317 26.353C91.3541 26.2499 91.2173 26.1222 91.1322 25.9801C91.0471 25.838 91.0159 25.6855 91.0413 25.5346M92.1029 25.4833C92.0603 25.6606 92.1182 25.8417 92.2664 25.995C92.3789 26.0538 92.5092 26.0977 92.6496 26.124C92.7899 26.1503 92.9373 26.1585 93.0828 26.1481C93.2505 26.1563 93.4188 26.1387 93.5732 26.0969L94.0637 25.9438C94.2331 25.9058 94.3777 25.8338 94.475 25.7389C94.6385 25.6877 94.7193 25.5858 94.8864 25.534L95.0499 24.6125L94.0699 24.6638C93.5536 24.6731 93.0487 24.7616 92.5996 24.9216C92.359 25.0784 92.1896 25.2728 92.1092 25.4845" fill="#FFFFFF"></path>
<path d="M98.1423 26.6092L98.7136 22.7714H99.6935L99.6118 23.3855C99.897 23.2001 100.228 23.0447 100.592 22.9251C100.897 22.7812 101.273 22.7086 101.655 22.7196C101.899 22.7196 102.146 22.7196 102.226 22.822L101.899 23.4362C101.818 23.3849 101.655 23.3849 101.409 23.3849C101.094 23.3875 100.785 23.4402 100.511 23.538C100.133 23.6683 99.7769 23.8226 99.4492 23.9985L99.0378 26.6615C99.204 26.6092 98.1423 26.6092 98.1423 26.6092Z" fill="#FFFFFF"></path>
<path d="M103.124 23.2853L103.205 22.7736H104.104L104.267 21.6996H105.247L105.083 22.7736H106.636L106.555 23.2853H105.002L104.757 25.3319C104.691 25.5544 104.719 25.7838 104.839 25.9973C104.921 26.1504 105.166 26.2022 105.492 26.2022C105.772 26.1979 106.048 26.1632 106.309 26.0997L106.472 26.6114C106.097 26.667 105.714 26.7013 105.329 26.7138C105.088 26.7326 104.843 26.7144 104.615 26.6609C104.388 26.6074 104.185 26.5201 104.023 26.4065C103.748 26.1135 103.661 25.7661 103.778 25.4344L104.105 23.2869L103.124 23.2853Z" fill="#FFFFFF"></path>
<path d="M108.104 26.6097L108.675 22.7719H109.655L109.573 23.3348C109.914 23.1694 110.268 23.0157 110.635 22.8743C110.98 22.7425 111.375 22.6717 111.778 22.6695C112.007 22.6556 112.237 22.6763 112.451 22.7298C112.664 22.7833 112.853 22.868 113.004 22.9768C113.284 23.3057 113.37 23.6859 113.248 24.0508L112.921 26.6091H111.941L112.268 24.3576C112.356 24.1219 112.356 23.8767 112.268 23.641C112.27 23.588 112.248 23.5356 112.205 23.49C112.162 23.4444 112.099 23.4074 112.024 23.3832C111.85 23.3191 111.654 23.2838 111.452 23.2808C111.126 23.2867 110.811 23.3586 110.554 23.4856C110.164 23.6035 109.806 23.7589 109.493 23.9461L109.081 26.6581L108.101 26.6069L108.104 26.6097Z" fill="#FFFFFF"></path>
<path d="M115.37 24.7161C115.37 24.1538 115.688 23.6098 116.269 23.1811C116.523 23.0033 116.84 22.8646 117.194 22.7759C117.548 22.6871 117.93 22.6507 118.31 22.6694C118.627 22.6517 118.945 22.6793 119.242 22.7502C119.539 22.8211 119.806 22.9334 120.024 23.0786C120.404 23.4788 120.55 23.9496 120.435 24.4099L120.353 24.7679H116.353C116.231 25.1328 116.317 25.5129 116.597 25.8419C116.759 25.9555 116.962 26.0428 117.19 26.0963C117.417 26.1499 117.662 26.168 117.903 26.1492C118.155 26.1397 118.403 26.1051 118.638 26.0468C118.882 25.9955 119.049 25.8419 119.291 25.6888L120.107 25.9961C119.871 26.2054 119.564 26.38 119.209 26.5078C118.778 26.6415 118.303 26.7116 117.821 26.7127C117.453 26.7367 117.08 26.7025 116.738 26.6131C116.396 26.5237 116.095 26.382 115.863 26.201C115.408 25.7625 115.233 25.2329 115.372 24.7172M116.516 24.2568H119.536C119.587 24.1172 119.592 23.9724 119.55 23.8316C119.508 23.6908 119.42 23.5569 119.292 23.4383C119.177 23.331 119.017 23.2455 118.83 23.1913C118.643 23.1371 118.435 23.1162 118.23 23.131C117.812 23.1297 117.407 23.221 117.087 23.3888C116.786 23.645 116.589 23.9436 116.516 24.2585" fill="#FFFFFF"></path>
<path d="M121.903 26.0474L122.719 25.7401C122.854 25.8933 123.057 26.0185 123.303 26.1004C123.55 26.1822 123.829 26.217 124.107 26.2005C124.476 26.2106 124.843 26.1577 125.168 26.0474C125.379 25.9458 125.524 25.8008 125.58 25.6382C125.602 25.5489 125.573 25.4576 125.498 25.3804C125.405 25.3173 125.294 25.2654 125.171 25.2273C125.008 25.1761 124.681 25.1248 124.191 25.0224C123.632 24.9787 123.113 24.8162 122.721 24.5619C122.579 24.4573 122.476 24.3342 122.419 24.2015C122.363 24.0687 122.354 23.9298 122.394 23.7947C122.406 23.6318 122.478 23.4728 122.606 23.3307C122.734 23.1885 122.913 23.0671 123.129 22.9763C123.602 22.7613 124.178 22.653 124.762 22.6689C125.221 22.6442 125.681 22.7163 126.068 22.8738C126.352 23.0005 126.6 23.1561 126.802 23.3343L125.986 23.6416C125.862 23.4944 125.672 23.3728 125.441 23.2911C125.209 23.2095 124.945 23.1713 124.68 23.1812C124.363 23.1769 124.051 23.2301 123.782 23.3343C123.666 23.3766 123.567 23.436 123.496 23.5072C123.424 23.5785 123.381 23.6595 123.37 23.7435C123.359 23.8113 123.375 23.8798 123.418 23.9425C123.461 24.0051 123.528 24.0599 123.615 24.1015C123.881 24.2171 124.19 24.2877 124.513 24.3064C124.997 24.3666 125.464 24.4701 125.901 24.6137C126.13 24.7061 126.324 24.8282 126.472 24.9717C126.588 25.15 126.617 25.3461 126.553 25.5346C126.525 25.6949 126.445 25.8499 126.318 25.9905C126.192 26.1311 126.022 26.2544 125.819 26.3531C125.289 26.5751 124.659 26.6829 124.022 26.6604C123.539 26.6718 123.059 26.601 122.635 26.4555C122.472 26.4252 122.322 26.3729 122.195 26.3022C122.068 26.2314 121.967 26.1441 121.9 26.0463" fill="#FFFFFF"></path>
<path d="M128.108 26.0474L128.925 25.7401C129.059 25.8933 129.262 26.0185 129.509 26.1004C129.755 26.1822 130.035 26.217 130.312 26.2005C130.657 26.2185 131.002 26.1647 131.292 26.0474C131.502 25.9458 131.648 25.8008 131.704 25.6382C131.726 25.5489 131.697 25.4576 131.622 25.3804C131.529 25.3173 131.418 25.2654 131.295 25.2273C131.132 25.1761 130.805 25.1248 130.315 25.0224C129.755 24.9787 129.237 24.8162 128.845 24.5619C128.703 24.4573 128.6 24.3342 128.543 24.2015C128.487 24.0687 128.478 23.9298 128.518 23.7947C128.53 23.6318 128.602 23.4728 128.73 23.3307C128.857 23.1885 129.036 23.0671 129.253 22.9763C129.726 22.7613 130.301 22.653 130.885 22.6689C131.345 22.6442 131.805 22.7163 132.191 22.8738C132.476 23.0005 132.724 23.1561 132.926 23.3343L132.11 23.6416C131.985 23.4944 131.796 23.3728 131.565 23.2911C131.333 23.2095 131.069 23.1713 130.804 23.1812C130.487 23.1769 130.175 23.2301 129.906 23.3343C129.789 23.3766 129.691 23.436 129.62 23.5072C129.548 23.5785 129.505 23.6595 129.494 23.7435C129.483 23.8113 129.499 23.8798 129.542 23.9425C129.585 24.0051 129.652 24.0599 129.738 24.1015C130.005 24.2171 130.314 24.2877 130.637 24.3064C131.12 24.3666 131.588 24.4701 132.024 24.6137C132.253 24.7061 132.448 24.8282 132.596 24.9717C132.712 25.15 132.74 25.3461 132.677 25.5346C132.648 25.6949 132.568 25.8499 132.442 25.9905C132.316 26.1311 132.146 26.2544 131.943 26.3531C131.413 26.5751 130.782 26.6829 130.146 26.6604C129.663 26.6718 129.183 26.601 128.759 26.4555C128.483 26.361 128.256 26.219 128.106 26.0463" fill="#FFFFFF"></path>
<path d="M79.4448 18.0632H96.5911L97.0815 15.0444H84.9965L85.6521 10.7456H95.9399L96.3513 7.67558H86.0581L86.5485 4.1969H98.5509L98.9623 1.1781H81.816L79.4448 18.0632Z" fill="#F26722"></path>
<path d="M108.187 4.658C106.856 4.62778 105.53 4.77142 104.293 5.07979C103.056 5.38815 101.935 5.85448 101.001 6.44912C99.2874 7.57491 98.2249 9.31481 97.8988 11.617C97.5719 13.8174 98.1431 15.5573 99.5317 16.6831C101.002 17.8601 103.205 18.4742 106.228 18.4742C107.559 18.5095 108.887 18.3681 110.126 18.0595C111.364 17.7508 112.484 17.2818 113.413 16.6831C115.127 15.5061 116.189 13.8174 116.434 11.617C116.761 9.4167 116.189 7.67679 114.801 6.50035C113.412 5.27211 111.207 4.658 108.187 4.658ZM109.983 14.7389C109.596 15.042 109.095 15.2801 108.525 15.4319C107.954 15.5837 107.333 15.6444 106.716 15.6085C106.122 15.6503 105.521 15.5916 104.976 15.4387C104.43 15.2858 103.96 15.0441 103.614 14.7389C102.961 14.0735 102.797 12.999 102.961 11.5664C103.205 10.0826 103.696 9.00804 104.512 8.3427C104.916 8.03861 105.432 7.80054 106.015 7.64895C106.598 7.49737 107.231 7.4368 107.86 7.47246C108.439 7.44798 109.019 7.51473 109.546 7.66663C110.074 7.81853 110.532 8.05075 110.88 8.34213C111.533 8.95625 111.778 10.082 111.533 11.5658C111.288 13.0496 110.798 14.073 109.982 14.7383" fill="#F26722"></path>
<path d="M133.904 5.83436C133.006 5.06713 131.455 4.65735 129.332 4.65735C127.898 4.68534 126.497 4.93125 125.249 5.37391C124.595 5.58237 123.967 5.82193 123.371 6.09047L123.535 4.96469H118.636L116.84 18.0643H121.738L122.963 9.31417C123.849 8.88707 124.776 8.49401 125.739 8.13716C126.488 7.85916 127.323 7.68471 128.188 7.62549C128.637 7.61279 129.083 7.66519 129.494 7.77859C129.628 7.83772 129.741 7.91379 129.826 8.00191C129.91 8.09003 129.964 8.18825 129.985 8.29026C130.077 8.98938 130.05 9.69272 129.903 10.3882L128.84 18.0137H133.735L134.96 9.46671C135.123 7.82925 134.796 6.60102 133.898 5.8338" fill="#F26722"></path>
<path d="M13.1457 3.8384C14.3443 3.78743 15.5392 3.96587 16.5723 4.35007C17.4071 4.70313 18.0597 5.20093 18.4504 5.78263L18.8617 6.34553L23.3526 4.5544L22.9413 4.09395C22.1873 3.01239 20.8609 2.12703 19.186 1.58739C17.4293 1.06597 15.4964 0.820423 13.5544 0.871951C9.71648 0.871951 6.61147 1.58626 4.40914 3.07005C2.28494 4.50318 0.982582 6.75419 0.571215 9.61988C0.159849 12.4856 0.816418 14.6859 2.61278 16.1196C4.3265 17.6546 7.26714 18.4218 11.3494 18.4218C13.0385 18.4393 14.7208 18.2845 16.3307 17.9636C17.856 17.6588 19.3323 17.2648 20.7398 16.7866L21.2302 16.6335L22.2919 8.95791H11.0224L10.6111 11.9767H16.7349L16.3235 14.7912C15.6376 14.9823 14.927 15.1363 14.1993 15.2516C13.3698 15.3766 12.5212 15.4453 11.6682 15.4565C9.38236 15.4565 7.8303 15.0473 6.85129 14.1771C5.87227 13.3068 5.4636 11.7718 5.78964 9.72514C6.03394 7.67789 6.85129 6.19411 7.99467 5.22199C8.62013 4.75577 9.41125 4.38791 10.3046 4.14792C11.1979 3.90793 12.1685 3.8025 13.1385 3.84009" fill="#204199"></path>
<path d="M38.5373 5.73025C37.2313 5.01368 35.1898 4.65625 32.25 4.65625C30.574 4.64094 28.9096 4.8322 27.3513 5.21914C25.9782 5.59639 24.8136 6.21952 24.0038 7.01027L23.5134 7.47071L27.3513 9.00572L27.8417 8.49405C28.1791 8.19303 28.627 7.94726 29.1477 7.77749C29.9389 7.54739 30.8077 7.44189 31.6788 7.47015C32.674 7.43452 33.665 7.57641 34.5368 7.87937C35.0272 8.08427 35.2715 8.59594 35.1897 9.31194V9.36316L31.2701 9.62096C29.6718 9.71872 28.1043 9.96005 26.6157 10.3375C25.5018 10.6739 24.5454 11.1851 23.8395 11.8213C23.1554 12.5195 22.7372 13.3071 22.617 14.123C22.4935 14.6552 22.5453 15.1977 22.7693 15.7169C22.9933 16.2361 23.3847 16.7211 23.9194 17.1418C24.5014 17.564 25.2331 17.8951 26.0557 18.1084C26.8784 18.3218 27.7694 18.4116 28.6573 18.3706C30.0003 18.38 31.3238 18.1683 32.4952 17.7565C33.084 17.5533 33.6557 17.3312 34.208 17.0911L34.0464 18.0137H38.945L40.172 9.31475C40.4163 7.67729 39.845 6.44906 38.5391 5.73306M29.9659 15.5567C29.2768 15.592 28.5883 15.484 28.007 15.2493C27.8116 15.0918 27.6735 14.9095 27.6024 14.715C27.5314 14.5205 27.5291 14.3186 27.5956 14.1235C27.609 13.8742 27.7112 13.6299 27.8949 13.4086C28.0787 13.1873 28.3392 12.9946 28.6573 12.8447C29.8934 12.4362 31.2612 12.2087 32.6578 12.1793L34.782 12.0769L34.5377 14.1235L33.5578 14.584C33.1536 14.7839 32.7156 14.9555 32.2518 15.0957C31.8394 15.2455 31.4013 15.3656 30.9459 15.4537C30.6286 15.5168 30.2987 15.5513 29.9659 15.5561" fill="#204199"></path>
<path d="M54.7872 5.47582C53.0386 4.80772 50.9603 4.56379 48.9444 4.79006C46.9286 5.01632 45.1146 5.69715 43.8447 6.70406C42.0958 8.15697 41.0729 9.90198 40.9049 11.7189C40.578 13.8168 41.0684 15.4554 42.2926 16.6312C42.9056 17.2364 43.7675 17.7268 44.7875 18.051C45.8076 18.3752 46.9482 18.5212 48.0895 18.4736C49.3612 18.4869 50.6199 18.3115 51.763 17.9619C52.2534 17.8088 52.7429 17.6546 53.1507 17.5015L53.069 18.1156H57.9676L60.417 0H55.5219L54.7872 5.47582ZM50.4597 7.5225C51.9159 7.56871 53.3012 7.93066 54.3785 8.54641L53.5621 14.3791C52.9269 14.6927 52.2447 14.967 51.525 15.1981C50.7705 15.4522 49.9318 15.5923 49.0757 15.6073C48.1775 15.6073 45.4021 15.6073 45.9733 11.6159C45.9826 10.4786 46.5512 9.37075 47.6017 8.4434C47.9231 8.15601 48.3512 7.92195 48.8491 7.76141C49.347 7.60088 49.8998 7.51869 50.4597 7.52194" fill="#204199"></path>
<path d="M74.1375 3.78716C72.8403 3.27942 71.3395 3.01315 69.8101 3.01938C68.5598 3.00282 67.319 3.15929 66.1762 3.47764C65.0334 3.79599 64.0167 4.26838 63.1986 4.86117C61.4359 6.27048 60.4088 7.98593 60.2571 9.7741C59.9301 11.872 60.4205 13.5106 61.563 14.6352C62.1945 15.2257 63.0623 15.7019 64.0795 16.0163C65.0968 16.3306 66.228 16.472 67.3599 16.4264C68.6316 16.4396 69.8904 16.2643 71.0334 15.9147C71.5238 15.7616 71.9316 15.6074 72.4211 15.4543V15.7121C72.2576 16.6335 71.9307 17.2471 71.2777 17.6051C70.2998 18.0302 69.1164 18.2292 67.9302 18.168C66.0897 18.2142 64.278 17.8705 62.7872 17.1925L61.9708 16.8345L59.6849 19.444L60.2562 19.7018C62.4194 20.5684 64.9555 20.997 67.5207 20.9295C70.7047 20.9295 73.0714 20.4691 74.6244 19.5983C76.1773 18.7275 77.0737 17.3467 77.3189 15.6068L79.0326 3.32559H74.1375V3.78716ZM69.8101 5.88507C71.2665 5.93099 72.6521 6.29275 73.7298 6.90841L72.9124 12.3324C71.69 13.0576 70.1013 13.4919 68.4215 13.5601C67.9187 13.5936 67.4112 13.534 66.9618 13.3886C66.5124 13.2432 66.1409 13.0185 65.8931 12.7422C65.3219 12.1281 65.1584 11.1048 65.3219 9.72344C65.3583 8.68325 65.8681 7.67123 66.7913 6.80652C67.1335 6.50804 67.5887 6.26756 68.1159 6.10671C68.6432 5.94586 69.226 5.8697 69.8119 5.88507" fill="#204199"></path>
<path d="M61.9708 16.835L64.8288 19.7007L59.6849 19.4428L61.9708 16.835Z" fill="#F26722"></path>
</g>
<defs>
<clipPath id="svg-1640786208_25530_clip0_194_1164">
<rect width="135" height="28" fill="white"></rect>
</clipPath>
</defs>
</svg>