<svg xmlns="http://www.w3.org/2000/svg" xmlns:xlink="http://www.w3.org/1999/xlink" style="width: 100%; height: 100%" viewBox="0 0 512 512" preserveAspectRatio="none" width="512" height="512"><defs><svg width="512" height="512" viewBox="0 0 512 512" fill="none" xmlns="http://www.w3.org/2000/svg" id="svg-421217728_3968">
<path d="M255.929 62C215.811 62.0446 177.349 78.0198 148.981 106.421C120.614 134.822 104.657 173.329 104.612 213.494V235.663H80.4416C79.5956 235.663 78.758 235.829 77.9764 236.153C77.1949 236.478 76.4847 236.953 75.8866 237.551C75.2884 238.15 74.8139 238.861 74.4902 239.644C74.1665 240.426 73.9999 241.265 74 242.112V301.726C73.9999 302.573 74.1665 303.411 74.4902 304.194C74.8139 304.976 75.2884 305.687 75.8866 306.286C76.4847 306.885 77.1949 307.36 77.9764 307.684C78.758 308.008 79.5956 308.175 80.4416 308.175H104.612V309.722C104.618 314.766 106.622 319.601 110.185 323.168C113.747 326.734 118.577 328.741 123.615 328.747H139.583C144.621 328.741 149.451 326.734 153.014 323.168C156.576 319.601 158.58 314.766 158.586 309.722V229.078C158.58 224.034 156.576 219.198 153.014 215.631C149.451 212.065 144.621 210.058 139.583 210.053H123.615C121.55 210.077 119.502 210.443 117.556 211.136C118.164 174.799 133.007 140.156 158.887 114.673C184.767 89.1893 219.611 74.9057 255.911 74.9001C292.21 74.8946 327.059 89.1674 352.946 114.643C378.834 140.118 393.688 174.757 394.307 211.094C392.402 210.43 390.402 210.078 388.384 210.053H372.416C367.378 210.059 362.548 212.065 358.986 215.632C355.424 219.198 353.42 224.034 353.414 229.078V309.722C353.42 314.766 355.424 319.601 358.986 323.168C362.548 326.735 367.378 328.741 372.416 328.747H378.153V357.576C378.161 365.878 375.555 373.971 370.707 380.706C365.858 387.441 359.013 392.474 351.144 395.092L300.612 411.955L300.16 409.789C299.487 406.566 297.563 403.742 294.811 401.94C292.059 400.137 288.704 399.502 285.485 400.176L249.931 407.607C246.715 408.288 243.9 410.216 242.101 412.969C240.301 415.722 239.664 419.077 240.329 422.299L244.048 440.12C244.631 442.907 246.152 445.409 248.357 447.207C250.562 449.006 253.317 449.992 256.161 450C257.022 449.998 257.88 449.909 258.723 449.733L294.277 442.301C297.492 441.621 300.308 439.693 302.107 436.94C303.906 434.187 304.543 430.832 303.879 427.61L303.264 424.664L355.22 407.325C365.656 403.854 374.733 397.179 381.163 388.248C387.592 379.318 391.047 368.585 391.037 357.576V328.478C395.561 327.846 399.705 325.601 402.709 322.156C405.713 318.71 407.374 314.295 407.387 309.722V308.175H431.558C432.404 308.175 433.242 308.008 434.024 307.684C434.805 307.36 435.515 306.885 436.113 306.286C436.712 305.687 437.186 304.976 437.51 304.194C437.834 303.411 438 302.573 438 301.726V242.112C438 241.265 437.834 240.426 437.51 239.644C437.186 238.861 436.712 238.15 436.113 237.551C435.515 236.953 434.805 236.478 434.024 236.153C433.242 235.829 432.404 235.663 431.558 235.663H407.387V229.078C407.387 228.617 407.284 228.185 407.252 227.733V213.494C407.206 173.328 391.248 134.821 362.879 106.42C334.511 78.0194 296.048 62.0444 255.929 62ZM86.8832 295.277V248.561H104.612V295.277H86.8832ZM123.615 222.951H139.583C141.206 222.952 142.762 223.598 143.909 224.746C145.057 225.895 145.702 227.453 145.703 229.078V309.722C145.702 311.346 145.057 312.904 143.909 314.053C142.762 315.202 141.206 315.847 139.583 315.848H123.615C121.993 315.847 120.437 315.202 119.289 314.053C118.142 312.904 117.497 311.346 117.496 309.722V229.078C117.497 227.453 118.142 225.895 119.289 224.746C120.437 223.598 121.993 222.952 123.615 222.951ZM256.558 437.006L253.041 420.133L287.649 412.903L291.167 429.776L256.558 437.006ZM394.504 309.722C394.503 311.346 393.858 312.904 392.711 314.053C391.563 315.202 390.007 315.847 388.385 315.848H372.416C370.794 315.847 369.238 315.202 368.09 314.053C366.943 312.904 366.298 311.346 366.297 309.722V229.078C366.298 227.453 366.943 225.895 368.09 224.746C369.238 223.598 370.794 222.952 372.416 222.951H388.384C389.878 222.962 391.314 223.525 392.419 224.531C393.523 225.538 394.217 226.917 394.368 228.405V236.932C394.401 237.159 394.446 237.384 394.504 237.606L394.504 309.722ZM425.117 248.561V295.277H407.387V248.561L425.117 248.561Z" fill="black"></path>
</svg></defs><use href="#svg-421217728_3968"></use></svg>