<svg xmlns="http://www.w3.org/2000/svg" xmlns:xlink="http://www.w3.org/1999/xlink" style="width: 100%; height: 100%" viewBox="0 0 512 512" preserveAspectRatio="none" width="512" height="512"><defs><svg width="512" height="512" viewBox="0 0 512 512" fill="none" xmlns="http://www.w3.org/2000/svg" id="svg-337375601_3883">
<path d="M315.426 374.277C311.58 374.277 308.469 377.389 308.469 381.234V402.107H179.756V360.362H249.33C253.176 360.362 256.288 357.25 256.288 353.405C256.288 349.559 253.176 346.447 249.33 346.447H172.798C168.952 346.447 165.841 349.559 165.841 353.405V402.107H131.053V200.34C131.053 196.498 127.941 193.383 124.096 193.383H71.9149V155.117H124.096C127.941 155.117 131.053 152.002 131.053 148.16V123.808C130.901 114.669 117.292 114.659 117.138 123.809L117.138 141.202H71.9149V77.7492C71.9149 68.6176 79.3412 61.1913 88.4729 61.1913H291.911C301.042 61.1913 308.469 68.6176 308.469 77.7492V130.766C308.598 139.941 322.259 139.874 322.383 130.766L322.383 77.7492C322.383 60.9467 308.713 47.2764 291.911 47.2764H88.4729C71.6703 47.2764 58 60.9467 58 77.7492V409.064V434.251C58 451.054 71.6703 464.724 88.4729 464.724H291.911C308.713 464.724 322.383 451.054 322.383 434.251V409.064V381.234C322.383 377.389 319.272 374.277 315.426 374.277ZM117.138 207.298V402.107H71.9149V207.298H117.138ZM308.469 434.251C308.469 443.383 301.042 450.809 291.911 450.809H88.4729C79.3412 450.809 71.9149 443.383 71.9149 434.251V416.022C133.218 416.022 246.027 416.022 308.469 416.022V434.251Z" fill="black"></path>
<path d="M294.554 95.978C294.554 92.1357 291.442 89.0205 287.596 89.0205H92.7875C88.9419 89.0205 85.8301 92.1357 85.8301 95.978C85.8301 99.8202 88.9419 102.935 92.7875 102.935H287.596C291.442 102.935 294.554 99.8202 294.554 95.978Z" fill="black"></path>
<path d="M343.256 144.683C282.926 143.9 231.227 195.647 231.937 256.002C231.223 316.348 282.935 368.117 343.256 367.321C490.931 361.207 490.897 150.778 343.256 144.683ZM343.256 353.406C290.472 354.101 245.23 308.816 245.852 256.002C245.233 203.191 290.466 157.893 343.256 158.598C472.472 163.945 472.442 348.075 343.256 353.406Z" fill="black"></path>
<path d="M419.379 247.711C419.379 247.713 419.379 247.71 419.379 247.711C419.375 247.675 419.375 247.636 419.372 247.599C412.106 180.627 326.231 155.214 283.912 207.693C283.91 207.695 283.909 207.699 283.907 207.702C248.646 249.542 270.609 317.459 324.53 330.263C374.969 343.911 425.978 299.59 419.379 247.711ZM349.753 193.719C362.882 195.175 375.591 200.635 385.272 209.707C360.513 219.309 325.995 219.309 301.236 209.707C304.056 207.104 307.097 204.724 310.356 202.708C310.355 202.709 310.357 202.708 310.356 202.708C322.039 195.566 336.114 192.228 349.753 193.719ZM320.209 314.218C296.946 305.348 280.71 281.682 280.644 256.802C304.296 263.427 321.177 287.42 320.209 314.218ZM333.918 317.873C336.858 282.996 314.034 250.399 282.136 242.845C283.85 234.929 287.078 227.493 291.651 220.817C321.689 234.136 364.822 234.135 394.859 220.816C399.443 227.505 402.673 234.953 404.381 242.843C372.48 250.391 349.649 282.996 352.591 317.874C346.406 318.785 340.088 318.785 333.918 317.873ZM405.085 265.96C401.758 287.413 386.593 306.425 366.3 314.224C365.33 287.423 382.21 263.428 405.865 256.802C405.786 259.889 405.576 262.969 405.085 265.96Z" fill="black"></path>
<path d="M343.256 249.043C339.411 249.043 336.299 252.158 336.299 256V263.454C336.299 267.3 339.411 270.411 343.256 270.411C347.102 270.411 350.214 267.3 350.214 263.454V256C350.214 252.158 347.102 249.043 343.256 249.043Z" fill="black"></path>
<path d="M256.289 148.16C256.289 144.318 253.177 141.203 249.331 141.203H179.757V123.809C179.614 114.675 165.99 114.658 165.842 123.809L165.842 148.16C165.842 152.002 168.954 155.118 172.799 155.118H249.331C253.177 155.118 256.289 152.002 256.289 148.16Z" fill="black"></path>
<path d="M200.629 207.298C209.762 207.169 209.778 193.522 200.629 193.383L172.799 193.383C168.954 193.383 165.842 196.498 165.842 200.34V297.745C165.842 301.59 168.954 304.702 172.799 304.702H221.501C225.347 304.702 228.459 301.59 228.459 297.745C228.459 293.899 225.347 290.787 221.501 290.787H179.757V207.298H200.629Z" fill="black"></path>
</svg></defs><use href="#svg-337375601_3883"></use></svg>