<svg xmlns:xlink="http://www.w3.org/1999/xlink" width="512" height="512" viewBox="0 0 512 512" fill="none" xmlns="http://www.w3.org/2000/svg" id="svg-53332714_4688">
<path d="M222.802 232.718C239.599 232.718 256.019 227.737 269.986 218.405C283.952 209.073 294.838 195.809 301.266 180.29C307.694 164.771 309.376 147.695 306.099 131.22C302.822 114.746 294.733 99.613 282.856 87.7355C270.978 75.858 255.845 67.7693 239.371 64.4923C222.896 61.2153 205.82 62.8971 190.301 69.3252C174.782 75.7533 161.518 86.6388 152.186 100.605C142.854 114.572 137.873 130.992 137.873 147.789C137.873 170.314 146.821 191.916 162.748 207.843C178.675 223.77 200.277 232.718 222.802 232.718ZM222.802 80.1048C236.189 80.1048 249.275 84.0745 260.405 91.5117C271.536 98.949 280.211 109.52 285.334 121.888C290.457 134.255 291.797 147.864 289.186 160.994C286.574 174.123 280.128 186.184 270.662 195.649C261.196 205.115 249.136 211.562 236.007 214.173C222.877 216.785 209.268 215.444 196.9 210.322C184.533 205.199 173.962 196.523 166.524 185.393C159.087 174.262 155.117 161.176 155.117 147.789C155.231 129.873 162.398 112.723 175.067 100.054C187.736 87.3852 204.886 80.2179 222.802 80.1048Z" fill="black"></path>
<path d="M70.6222 385.335H272.813L284.022 411.632L299.111 410.339C302.522 414.256 306.273 417.862 310.32 421.117V436.206L343.947 449.139L353.862 437.93C359.182 438.212 364.516 438.067 369.813 437.499L379.729 448.277L412.924 433.619L411.2 418.961C415.364 415.517 419.124 411.612 422.409 407.321H437.067L450 373.695L438.791 364.21C439.302 358.896 439.157 353.538 438.36 348.259L449.138 337.912L434.911 305.148L419.822 306.01C416.305 302.062 412.562 298.319 408.613 294.801V280.575L374.987 267.641L365.071 278.85C360.188 278.346 355.259 278.491 350.413 279.281C333.547 260.381 311.269 247.135 286.609 241.344C284.229 240.919 281.776 241.379 279.711 242.637C262.993 254.419 243.041 260.744 222.589 260.744C202.136 260.744 182.184 254.419 165.467 242.637C164.461 241.973 163.333 241.517 162.148 241.295C160.964 241.073 159.747 241.089 158.569 241.344C131.201 248.052 106.848 263.689 89.3596 285.783C71.8712 307.878 62.2442 335.171 62 363.348V376.281C61.9974 378.61 62.8918 380.849 64.4975 382.535C66.1031 384.221 68.2966 385.224 70.6222 385.335ZM368.089 296.526H372.831L380.16 287.904L391.369 291.784V303.855L395.249 306.441C400.681 310.298 405.357 315.12 409.044 320.668L412.062 324.117L423.702 323.255L428.444 334.032L419.822 342.655L420.684 346.966C422.049 353.485 422.34 360.184 421.547 366.797L420.684 371.539L429.738 379.299L425.427 390.077H413.356L410.769 394.388C407.011 399.74 402.511 404.53 397.404 408.615L393.524 411.201L394.387 423.273L383.609 428.015L375.418 419.393L370.676 420.255C364.133 421.476 357.434 421.621 350.844 420.686H346.102L338.342 429.308L327.564 424.997V412.495L323.684 409.908C318.234 406.101 313.431 401.443 309.458 396.112L306.44 392.232L294.8 393.095L290.489 382.317L299.111 374.126L298.249 369.815C296.89 363.149 296.599 356.31 297.387 349.552L298.249 345.241L289.196 337.481L293.507 326.704H305.578L308.164 322.824C311.693 317.289 316.225 312.464 321.529 308.597L325.409 306.01L324.547 293.939L335.324 289.197L343.516 297.819L348.258 296.957C354.8 295.728 361.499 295.583 368.089 296.526ZM79.2445 363.348C79.473 339.673 87.3685 316.71 101.747 297.901C116.126 279.092 136.214 265.45 159 259.019C177.819 271.785 200.065 278.549 222.804 278.419C245.672 278.502 268.041 271.746 287.04 259.019C299.648 262.553 311.49 268.401 321.96 276.264L306.44 283.161L307.733 297.819C303.57 301.264 299.809 305.168 296.524 309.459H281.867L268.933 343.086L280.142 352.57C279.71 357.879 279.71 363.213 280.142 368.521H79.2445V363.348Z" fill="black"></path>
<path d="M314.631 358.168C314.546 367.054 317.102 375.764 321.977 383.194C326.851 390.623 333.823 396.437 342.008 399.897C350.193 403.357 359.221 404.306 367.946 402.625C376.672 400.944 384.701 396.708 391.014 390.456C397.328 384.203 401.641 376.215 403.406 367.506C405.172 358.797 404.309 349.76 400.929 341.542C397.548 333.325 391.802 326.297 384.42 321.351C377.038 316.405 368.352 313.764 359.467 313.764C347.684 313.874 336.408 318.574 328.036 326.866C319.664 335.157 314.855 346.387 314.631 358.168ZM359.467 331.008C366.71 331.007 373.663 333.855 378.826 338.936C383.988 344.018 386.944 350.925 387.058 358.168C387.058 361.791 386.344 365.379 384.957 368.727C383.571 372.074 381.538 375.116 378.976 377.678C376.414 380.24 373.373 382.272 370.025 383.659C366.678 385.046 363.09 385.759 359.467 385.759C355.843 385.759 352.255 385.046 348.908 383.659C345.56 382.272 342.519 380.24 339.957 377.678C337.395 375.116 335.362 372.074 333.976 368.727C332.589 365.379 331.875 361.791 331.875 358.168C331.989 350.925 334.945 344.018 340.108 338.936C345.27 333.855 352.223 331.007 359.467 331.008Z" fill="black"></path>
</svg>