<svg xmlns="http://www.w3.org/2000/svg" xmlns:xlink="http://www.w3.org/1999/xlink" style="width: 100%; height: 100%" viewBox="0 0 25 26" preserveAspectRatio="none" width="25" height="26"><defs><svg width="25" height="26" viewBox="0 0 25 26" fill="none" xmlns="http://www.w3.org/2000/svg" id="svg-1203552291_11236">
<g filter="url(#svg-1203552291_11236_filter0_dddd_194_1062)" fill="none">
<g clip-path="url(#svg-1203552291_11236_clip0_194_1062)" fill="none">
<path d="M-0.0078125 0.851562H24.9922V9.18652H-0.0078125V0.851562Z" fill="#FF9933"></path>
<path d="M-0.0078125 9.18652H24.9922V17.5166H-0.0078125V9.18652Z" fill="#FFFFFF"></path>
<path d="M-0.0078125 17.5166H24.9922V25.8516H-0.0078125V17.5166Z" fill="#128807"></path>
<path d="M12.4921 16.6848C14.3331 16.6848 15.8255 15.1925 15.8255 13.3515C15.8255 11.5106 14.3331 10.0182 12.4921 10.0182C10.6512 10.0182 9.15881 11.5106 9.15881 13.3515C9.15881 15.1925 10.6512 16.6848 12.4921 16.6848Z" fill="#000088"></path>
<path d="M12.4921 16.2683C14.1029 16.2683 15.4088 14.9624 15.4088 13.3516C15.4088 11.7408 14.1029 10.4349 12.4921 10.4349C10.8813 10.4349 9.57544 11.7408 9.57544 13.3516C9.57544 14.9624 10.8813 16.2683 12.4921 16.2683Z" fill="#FFFFFF"></path>
<path d="M12.4921 13.9349C12.8143 13.9349 13.0755 13.6737 13.0755 13.3515C13.0755 13.0294 12.8143 12.7682 12.4921 12.7682C12.17 12.7682 11.9088 13.0294 11.9088 13.3515C11.9088 13.6737 12.17 13.9349 12.4921 13.9349Z" fill="#000088"></path>
<path d="M15.3642 13.8821C15.4463 13.8929 15.5217 13.8351 15.5325 13.7529C15.5433 13.6708 15.4855 13.5955 15.4034 13.5846C15.3212 13.5738 15.2459 13.6316 15.2351 13.7138C15.2242 13.7959 15.2821 13.8713 15.3642 13.8821Z" fill="#000088"></path>
<path d="M12.4921 16.2683L12.5921 14.5183L12.4921 13.6849L12.3921 14.5183L12.4921 16.2683Z" fill="#000088"></path>
<path d="M15.129 14.6073C15.2055 14.639 15.2933 14.6026 15.325 14.5261C15.3567 14.4496 15.3203 14.3618 15.2438 14.3301C15.1673 14.2984 15.0795 14.3348 15.0478 14.4113C15.0161 14.4878 15.0525 14.5756 15.129 14.6073Z" fill="#000088"></path>
<path d="M11.7372 16.1688L12.2867 14.5043L12.4058 13.6735L12.0935 14.4525L11.7372 16.1688Z" fill="#000088"></path>
<path d="M14.7142 15.2469C14.7799 15.2974 14.8741 15.285 14.9245 15.2192C14.975 15.1535 14.9626 15.0593 14.8968 15.0089C14.8311 14.9585 14.7369 14.9709 14.6865 15.0366C14.6361 15.1023 14.6485 15.1965 14.7142 15.2469Z" fill="#000088"></path>
<path d="M11.0338 15.8773L11.9954 14.4118L12.3255 13.6401L11.8222 14.3118L11.0338 15.8773Z" fill="#000088"></path>
<path d="M14.1479 15.7574C14.1983 15.8232 14.2925 15.8356 14.3582 15.7851C14.4239 15.7347 14.4363 15.6405 14.3859 15.5748C14.3354 15.5091 14.2413 15.4967 14.1756 15.5471C14.1098 15.5976 14.0974 15.6917 14.1479 15.7574Z" fill="#000088"></path>
<path d="M10.4298 15.4139L11.738 14.2472L12.2565 13.5872L11.5965 14.1057L10.4298 15.4139Z" fill="#000088"></path>
<path d="M13.4688 16.104C13.5005 16.1805 13.5883 16.2169 13.6648 16.1852C13.7414 16.1534 13.7777 16.0657 13.746 15.9892C13.7143 15.9126 13.6266 15.8763 13.55 15.908C13.4735 15.9397 13.4371 16.0274 13.4688 16.104Z" fill="#000088"></path>
<path d="M9.96633 14.8098L11.5319 14.0214L12.2036 13.5181L11.4319 13.8482L9.96633 14.8098Z" fill="#000088"></path>
<path d="M12.7231 16.2631C12.7339 16.3452 12.8093 16.403 12.8914 16.3922C12.9736 16.3814 13.0314 16.306 13.0206 16.2239C13.0097 16.1418 12.9344 16.084 12.8523 16.0948C12.7701 16.1056 12.7123 16.1809 12.7231 16.2631Z" fill="#000088"></path>
<path d="M9.67499 14.1064L11.3912 13.7501L12.1703 13.4378L11.3395 13.5569L9.67499 14.1064Z" fill="#000088"></path>
<path d="M11.9616 16.2236C11.9507 16.3057 12.0086 16.3811 12.0907 16.3919C12.1728 16.4027 12.2482 16.3449 12.259 16.2627C12.2698 16.1806 12.212 16.1052 12.1298 16.0944C12.0477 16.0836 11.9724 16.1414 11.9616 16.2236Z" fill="#000088"></path>
<path d="M9.57536 13.3515L11.3254 13.4515L12.1587 13.3515L11.3254 13.2515L9.57536 13.3515Z" fill="#000088"></path>
<path d="M11.2364 15.9884C11.2047 16.0649 11.241 16.1527 11.3175 16.1844C11.3941 16.2161 11.4818 16.1797 11.5135 16.1032C11.5452 16.0266 11.5089 15.9389 11.4323 15.9072C11.3558 15.8755 11.2681 15.9118 11.2364 15.9884Z" fill="#000088"></path>
<path d="M9.67486 12.5966L11.3393 13.1461L12.1702 13.2652L11.3911 12.9529L9.67486 12.5966Z" fill="#000088"></path>
<path d="M10.5967 15.5736C10.5463 15.6393 10.5587 15.7335 10.6244 15.7839C10.6901 15.8343 10.7843 15.8219 10.8347 15.7562C10.8851 15.6905 10.8727 15.5963 10.807 15.5459C10.7413 15.4955 10.6471 15.5079 10.5967 15.5736Z" fill="#000088"></path>
<path d="M9.96631 11.8932L11.4319 12.8548L12.2035 13.1849L11.5319 12.6816L9.96631 11.8932Z" fill="#000088"></path>
<path d="M10.0862 15.0072C10.0205 15.0577 10.0081 15.1518 10.0585 15.2176C10.1089 15.2833 10.2031 15.2957 10.2688 15.2452C10.3345 15.1948 10.3469 15.1007 10.2965 15.0349C10.2461 14.9692 10.1519 14.9568 10.0862 15.0072Z" fill="#000088"></path>
<path d="M10.4297 11.2892L11.5965 12.5973L12.2564 13.1159L11.7379 12.4559L10.4297 11.2892Z" fill="#000088"></path>
<path d="M9.73966 14.3281C9.66312 14.3598 9.62677 14.4475 9.65848 14.5241C9.69018 14.6006 9.77792 14.637 9.85446 14.6053C9.931 14.5736 9.96734 14.4858 9.93564 14.4093C9.90394 14.3327 9.81619 14.2964 9.73966 14.3281Z" fill="#000088"></path>
<path d="M11.0338 10.8256L11.8222 12.3911L12.3255 13.0628L11.9954 12.2911L11.0338 10.8256Z" fill="#000088"></path>
<path d="M9.58056 13.5824C9.49842 13.5932 9.44061 13.6685 9.45142 13.7507C9.46223 13.8328 9.53758 13.8906 9.61972 13.8798C9.70185 13.869 9.75967 13.7936 9.74885 13.7115C9.73804 13.6294 9.66269 13.5716 9.58056 13.5824Z" fill="#000088"></path>
<path d="M11.7372 10.5342L12.0936 12.2505L12.4058 13.0295L12.2868 12.1987L11.7372 10.5342Z" fill="#000088"></path>
<path d="M9.62006 12.8209C9.53792 12.8101 9.46257 12.8679 9.45176 12.9501C9.44095 13.0322 9.49876 13.1075 9.5809 13.1184C9.66303 13.1292 9.73838 13.0714 9.74919 12.9892C9.76001 12.9071 9.70219 12.8317 9.62006 12.8209Z" fill="#000088"></path>
<path d="M12.4922 10.4347L12.3922 12.1847L12.4922 13.0181L12.5922 12.1847L12.4922 10.4347Z" fill="#000088"></path>
<path d="M9.85525 12.0957C9.77871 12.064 9.69097 12.1004 9.65927 12.1769C9.62756 12.2534 9.66391 12.3412 9.74045 12.3729C9.81698 12.4046 9.90473 12.3683 9.93643 12.2917C9.96813 12.2152 9.93179 12.1274 9.85525 12.0957Z" fill="#000088"></path>
<path d="M13.2471 10.5342L12.6975 12.1987L12.5785 13.0295L12.8907 12.2505L13.2471 10.5342Z" fill="#000088"></path>
<path d="M10.27 11.4561C10.2043 11.4056 10.1102 11.418 10.0597 11.4838C10.0093 11.5495 10.0217 11.6437 10.0874 11.6941C10.1531 11.7445 10.2473 11.7321 10.2977 11.6664C10.3482 11.6007 10.3358 11.5065 10.27 11.4561Z" fill="#000088"></path>
<path d="M13.9504 10.8257L12.9888 12.2912L12.6588 13.0629L13.162 12.3912L13.9504 10.8257Z" fill="#000088"></path>
<path d="M10.8364 10.9456C10.786 10.8798 10.6918 10.8674 10.6261 10.9179C10.5603 10.9683 10.548 11.0625 10.5984 11.1282C10.6488 11.1939 10.743 11.2063 10.8087 11.1559C10.8744 11.1054 10.8868 11.0113 10.8364 10.9456Z" fill="#000088"></path>
<path d="M14.5544 11.2891L13.2463 12.4558L12.7278 13.1158L13.3877 12.5973L14.5544 11.2891Z" fill="#000088"></path>
<path d="M11.5154 10.5992C11.4837 10.5226 11.396 10.4863 11.3194 10.518C11.2429 10.5497 11.2065 10.6374 11.2383 10.714C11.27 10.7905 11.3577 10.8268 11.4342 10.7951C11.5108 10.7634 11.5471 10.6757 11.5154 10.5992Z" fill="#000088"></path>
<path d="M15.0179 11.8933L13.4524 12.6817L12.7807 13.185L13.5524 12.8549L15.0179 11.8933Z" fill="#000088"></path>
<path d="M12.2611 10.4401C12.2503 10.3579 12.175 10.3001 12.0928 10.3109C12.0107 10.3217 11.9529 10.3971 11.9637 10.4792C11.9745 10.5613 12.0499 10.6192 12.132 10.6084C12.2141 10.5975 12.2719 10.5222 12.2611 10.4401Z" fill="#000088"></path>
<path d="M15.3093 12.5967L13.593 12.9531L12.814 13.2653L13.6448 13.1463L15.3093 12.5967Z" fill="#000088"></path>
<path d="M13.0227 10.4796C13.0335 10.3974 12.9757 10.3221 12.8936 10.3113C12.8114 10.3004 12.7361 10.3583 12.7253 10.4404C12.7145 10.5225 12.7723 10.5979 12.8544 10.6087C12.9365 10.6195 13.0119 10.5617 13.0227 10.4796Z" fill="#000088"></path>
<path d="M15.4089 13.3517L13.6589 13.2517L12.8256 13.3517L13.6589 13.4517L15.4089 13.3517Z" fill="#000088"></path>
<path d="M13.7479 10.7147C13.7796 10.6382 13.7433 10.5505 13.6667 10.5188C13.5902 10.4871 13.5024 10.5234 13.4707 10.5999C13.439 10.6765 13.4754 10.7642 13.5519 10.7959C13.6284 10.8276 13.7162 10.7913 13.7479 10.7147Z" fill="#000088"></path>
<path d="M15.3094 14.1066L13.6449 13.557L12.8141 13.438L13.5931 13.7502L15.3094 14.1066Z" fill="#000088"></path>
<path d="M14.3875 11.1294C14.438 11.0637 14.4256 10.9695 14.3599 10.9191C14.2941 10.8687 14.2 10.8811 14.1495 10.9468C14.0991 11.0125 14.1115 11.1067 14.1772 11.1571C14.243 11.2075 14.3371 11.1951 14.3875 11.1294Z" fill="#000088"></path>
<path d="M15.0179 14.8098L13.5524 13.8482L12.7807 13.5181L13.4524 14.0214L15.0179 14.8098Z" fill="#000088"></path>
<path d="M14.8981 11.6958C14.9638 11.6453 14.9762 11.5512 14.9258 11.4854C14.8753 11.4197 14.7812 11.4073 14.7154 11.4578C14.6497 11.5082 14.6373 11.6024 14.6877 11.6681C14.7382 11.7338 14.8323 11.7462 14.8981 11.6958Z" fill="#000088"></path>
<path d="M14.5545 15.4138L13.3878 14.1057L12.7278 13.5871L13.2464 14.2471L14.5545 15.4138Z" fill="#000088"></path>
<path d="M15.2446 12.3749C15.3211 12.3432 15.3575 12.2555 15.3258 12.1789C15.2941 12.1024 15.2063 12.066 15.1298 12.0977C15.0533 12.1295 15.0169 12.2172 15.0486 12.2937C15.0803 12.3703 15.1681 12.4066 15.2446 12.3749Z" fill="#000088"></path>
<path d="M13.9504 15.8774L13.162 14.3119L12.6587 13.6402L12.9888 14.4119L13.9504 15.8774Z" fill="#000088"></path>
<path d="M15.4037 13.1206C15.4858 13.1098 15.5436 13.0345 15.5328 12.9523C15.522 12.8702 15.4467 12.8124 15.3645 12.8232C15.2824 12.834 15.2246 12.9094 15.2354 12.9915C15.2462 13.0736 15.3216 13.1314 15.4037 13.1206Z" fill="#000088"></path>
<path d="M13.247 16.1688L12.8907 14.4525L12.5784 13.6735L12.6975 14.5043L13.247 16.1688Z" fill="#000088"></path>
</g>
</g>
<defs>
<filter id="svg-1203552291_11236_filter0_dddd_194_1062" x="-4.00781" y="-0.148438" width="33" height="41" filterUnits="userSpaceOnUse" color-interpolation-filters="sRGB">
<feFlood flood-opacity="0" result="BackgroundImageFix"></feFlood>
<feColorMatrix in="SourceAlpha" type="matrix" values="0 0 0 0 0 0 0 0 0 0 0 0 0 0 0 0 0 0 127 0" result="hardAlpha"></feColorMatrix>
<feOffset dy="1"></feOffset>
<feGaussianBlur stdDeviation="1"></feGaussianBlur>
<feColorMatrix type="matrix" values="0 0 0 0 0 0 0 0 0 0 0 0 0 0 0 0 0 0 0.2 0"></feColorMatrix>
<feBlend mode="normal" in2="BackgroundImageFix" result="effect1_dropShadow_194_1062"></feBlend>
<feColorMatrix in="SourceAlpha" type="matrix" values="0 0 0 0 0 0 0 0 0 0 0 0 0 0 0 0 0 0 127 0" result="hardAlpha"></feColorMatrix>
<feOffset dy="3"></feOffset>
<feGaussianBlur stdDeviation="1.5"></feGaussianBlur>
<feColorMatrix type="matrix" values="0 0 0 0 0 0 0 0 0 0 0 0 0 0 0 0 0 0 0.17 0"></feColorMatrix>
<feBlend mode="normal" in2="effect1_dropShadow_194_1062" result="effect2_dropShadow_194_1062"></feBlend>
<feColorMatrix in="SourceAlpha" type="matrix" values="0 0 0 0 0 0 0 0 0 0 0 0 0 0 0 0 0 0 127 0" result="hardAlpha"></feColorMatrix>
<feOffset dy="6"></feOffset>
<feGaussianBlur stdDeviation="2"></feGaussianBlur>
<feColorMatrix type="matrix" values="0 0 0 0 0 0 0 0 0 0 0 0 0 0 0 0 0 0 0.1 0"></feColorMatrix>
<feBlend mode="normal" in2="effect2_dropShadow_194_1062" result="effect3_dropShadow_194_1062"></feBlend>
<feColorMatrix in="SourceAlpha" type="matrix" values="0 0 0 0 0 0 0 0 0 0 0 0 0 0 0 0 0 0 127 0" result="hardAlpha"></feColorMatrix>
<feOffset dy="11"></feOffset>
<feGaussianBlur stdDeviation="2"></feGaussianBlur>
<feColorMatrix type="matrix" values="0 0 0 0 0 0 0 0 0 0 0 0 0 0 0 0 0 0 0.03 0"></feColorMatrix>
<feBlend mode="normal" in2="effect3_dropShadow_194_1062" result="effect4_dropShadow_194_1062"></feBlend>
<feBlend mode="normal" in="SourceGraphic" in2="effect4_dropShadow_194_1062" result="shape"></feBlend>
</filter>
<clipPath id="svg-1203552291_11236_clip0_194_1062">
<rect x="-0.0078125" y="0.851562" width="25" height="25" rx="12.5" fill="white"></rect>
</clipPath>
</defs>
</svg></defs><use href="#svg-1203552291_11236"></use></svg>